<mxfile host="app.diagrams.net" modified="2023-08-23T13:28:42.185Z" agent="Mozilla/5.0 (Windows NT 10.0; Win64; x64) AppleWebKit/537.36 (KHTML, like Gecko) Chrome/116.0.0.0 Safari/537.36" etag="9LRsOTHHLFm8X_3ZMH6e" version="21.6.9" type="device">
  <diagram name="Page-1" id="9D7_8FfV7WrEVihTT5R4">
    <mxGraphModel dx="7278" dy="3329" grid="1" gridSize="10" guides="1" tooltips="1" connect="1" arrows="1" fold="1" page="1" pageScale="1" pageWidth="827" pageHeight="1169" math="0" shadow="0">
      <root>
        <mxCell id="0" />
        <mxCell id="1" parent="0" />
        <mxCell id="U3rNr6C6E1IXeNHttjAs-13" value="" style="group;movable=1;resizable=1;rotatable=1;deletable=1;editable=1;locked=0;connectable=1;" parent="1" vertex="1" connectable="0">
          <mxGeometry x="-2650" y="-930" width="5203.25" height="3630" as="geometry" />
        </mxCell>
        <mxCell id="z_r0zyh52eoSOESYPmUw-2" value="" style="shape=image;verticalLabelPosition=bottom;labelBackgroundColor=default;verticalAlign=top;aspect=fixed;imageAspect=0;image=data:image/png,iVBORw0KGgoAAAANSUhEUgAABaIAAAPuCAMAAADNCZrhAAAACXBIWXMAAB7CAAAewgFu0HU+AAAAb1BMVEX///8NDQ3Nzc13d3cdHR0sLCybm5sAAACJiYlkZGTw8PBTU1OXl5fT09NoaGjk5OS+vr4yMjI6Ojr8/PwFBQVKSkoUFBS1tbXGxsbf39+srKxCQkL29vZaWlqkpKQlJSXr6+tvb2/Z2dmCgoKPj49i5JKjAAAgAElEQVR4AexdiaKyKhDWtChtMSXb0069/zOeATdUVDQrq+G/94jI+mmf4zAMmoYBEUAEEAFEABFABBABRAARQAQQAUQAEUAEEAFEABFABBABRAARQAQQAUQAEUAEEAFEABFABBABRAARQAQQAUQAEUAEEAFEABFABBABRAARQAQQAUQAEUAEEAFEABFABBABRAARQAQQAUQAEUAEEAFEABFABBABRAARQAQQAUQAEUAEEAFEABFABBABRAARQAQQAUQAEUAEEAFEABFABBABRAARQAQQAUQAEUAEEAFEABFABBABRAARQAQQAUQAEUAEEAFEABFABBABRAARQAQQAUQAEUAEEAFEABFABBABRAARQAQQAUQAEUAEEAFEABFABBABRAARQAQQAUQAEUAEEAFEABFABBABRAARQAQQAUQAEUAEEAFEABFABBABRAARQAQQAUQAEUAEEAFEABFABBABRAARQAQQAUQAEUAEEAFEABFABBABRAARQAQQAUQAEUAEEAFEABFABBABRAARQAQQAUQAEUAEEAFEABFABBABRAARQAQQAUQAEUAEEAFEABFABBABRAARQAQQAUQAEUAEEAFEABFABBABRAARQAQQgS9A4LKcYkAEEAFEABFIEJhdp9PbbDEMevcJBkQAEUAEEIE8ApSQ8xA4epLvFp4hAogAIoAIMAQoPQ2Ao2d4MxABRAARQARkCOwHQNFTWccwDRFABBABRGAwFD1ezjAgAogAIoAIcATczUxnL6jVUKRoYwAdwS4gAogAIvBaBE7b69GnVDePN8fLN20iRecBwTNEABFABF6KwM7WCTU35+P5CIZt+uxPbJ1T9GAUHShFi/cG44gAIvD9CPxtKLUvYTzQ1WRD6FlQbKAU/f2PAI4QEUAEBovAlNJryHsX/ln8+Hem/iXtL1J0CgVGEAFEABF4LQLWhhyZXsO5rikonfWjMYKzXUCWiUoaFR2vvSPYGiKACCACCQLWml49zbsHhIzPxtKwgZDXW0072cSOORql6AQsPCICiAAi8FIEvCO9a9piTM17on3+M3yygZMlWUZd+RCKPu1Hu/0QFkG+9AZiY4gAIvDNCCzJVNMOun5PtBpssKcr9XeadiZzPvQPUHRYh9mYgpqGkvHsEOnTv/mu4dgQAUTgNxDYUlvTLjTIGdnB0B1fd7TTmvL0wUvRe1hdQ9ezG/PJBwp1mrcZ/I07iaNEBBCB70PgZJqW5tAgFGVoPsyF7/9pf9RlJwOnaGtJ6SYTnU8Hm5BZyEeBfxABRAAR+GAE7uSiWb6faKHFkezo2tMM4kDasBUdjklsLuxbu8Nlx5Uc+zPxi0skxbFhHBFABBCBD0DAMwMPZgW3JRma9f0OmuiTfoTYoKXoCfHB/kTbzXgvCTFnoEX3gLdhFhQDIoAIIAIfjMABWHhFNxUjCPyTdiWw8HvIFH0n65WnOWtCXeNyOFwMF4wHQYJeueRWMS5MRgQQAUTgIxA40xB0GaOKvl7IRNsxg48BKzouxLW0E+g1jEhZA98D4U0n55N2cumkYmCYjAggAojAJyBgwmygOa7qqeeDfO2DpmO4UvRIH1vaakxmOTs7a0aCvWaNKag8MCACiAAi8KEIhMTQ9vB/VbD1k7bxB0zRngtWgWFAJkVl+oWaK22lj3EhS9W9xXREABEYMALhaASKAYcctAM9iP2ECxDCKOlOFqAHCYer6JjDnKDnwihKYUvXJ7D3Bi0NBkQAEUAEPgyB1cKyFn/aAUzq7oTZQ6RhZ7EQKwgOcG0OND1URYfnB5p2Y9rycpizr4O1nlOAlHNhCiKACCACg0Ngz82I9383mCmcEVFhu4g0A2Hkv38LE253uh0sRV9Aft5Hq2sijEPHcZLhbMiftkXLu8E9fNghRAARaEBgxRla01ZToOhocUpSIjHuiHjOgYUtE5hzG6pFh+t78IpZJJ3XdllU0/7IGbTo6/QiRhABRAAR+AgEEjlTm8KilXlOk5twXJTlQpki5G+oUvSKzDSLr62JYU96H53a3KIwfh19xI3BTiICiAAioP2FCQgOKDKc3AqPhOQiir7BupUrsYZK0Wymk+k60pD0PkrYglk3+w7AgAggAojAByGQCtHaiSz3B+KCApcFxnUJyUWy5xEM7o5mbHQ3vO1lb2TF3yAp9knvowSPnkOLXNOrGEEEEAFE4AMQEIgsgGUrLizzhl1XwAQP+i5cg2V6dOadCDgrHahFh61D7+ENkoZc7zVtPN5pbPUNBkQAEUAEPgcBgcjOoGhOlNErJiYL15g5mwN2eaApGChFu/CCMUUKzvVe02zYlmDsfs6NwZ4iAogAIpCj4QnoAU4+eLuD4LA/IsmFOphDbChYFg/UosMECVo0udOc/GLCIxijBKCrwYAIIAKIwOcgINDwzoW1HTcKizy0FXdDJFzTzmDP8cd1uQOVotcgRecVGaNIqx7/dcGkm+XBgAggAojA5yAg0PBuCxS8YFQWCdGiFH0HkzYQotnE4UApmrkPKVMw06tH/9wATLqZv2sMiAAigAh8DAICRY+0Ix0tVqa+5ZpoUdExYU4uDtEe4ANVdFxBCXOmXEsjBV/fWB6F9wwGRAARQAQ+B4F9mPTVWmh7HUTNP5PGtmkJfZ+uZB1qe9/k2t2BStEXmM6cgzamIozAidKI4t4rFfBgMiKACAwUgdQw+kyPHthFwxYlY+KOWG9jit4GdGNpVhA7XB4oRS9Aib4vicmjXWzBfaULWBvJhzXQG4HdQgQQAUSgjMAKiHgF4vGNEnr2DAJs7BiUuPM/RtHeYhpQfw5m0etk5d5AFR0aM+ve6GF+hAst5CRt+WBv55rVepB8MTxDBBABRGAgCKz+DEr3N0J0xtEzsgZOW111ODd9k8IOrTewtNuZ6eLpgUrR8I7ZwRLvZR5V9iEQgjdsAzypLn5rcaFLdV3PfMuejr4e/dMpA2kOl5MUXzeFlfMigruA56I0ysty5Qv6UUFoLK6MRu/B3Tram4xX5h0nYqUYRwQQgTYIADsDPZNxaFNy3k2pfgdh03OMzdh0N7cRnJwMkv3Yh0rRIdsZ1y5ooyNdzepCNpp3Zpvj/kzYwV0lBIzZ4xD6PIEQ+Fpiqcf4ND5Mk3z54wXe0UJguWQFR0Ie2KQYwjI6RLXtcgbrURr+RQQQATUE7iAoww9xHDISI/Z+OybBBDQfpz0LIEFbU59sMnbjFJ2dqjXyjFxTxgtGVvOVOl7o+7muxRTNrFRGzG7wd8KRXPcLHeZQkxDdz/1+R7lKfklu/AZHfwSRN8kfHUN+XScLduS5ZAU30Fgc5oTPKucpmoCaCQMigAh0QQBk6HE4Jz5wMbghAmlT8yYm0c+TEUsJd/cNJePse3mwdtHQV98EPTo1/wQYOEXvA5Ct94FeyUNCgW+J7gjbY2YqEV+X7B4XxNymUevEStX4OfKNCjqEzQFEObwx3zkhl2uHFN2EMF5HBKoQCAjTMnvs9wUM7YL4DGcH4GUI/I9+dlhaGrgUPQS2K0rRYLh9hlU3VD+kfeVGKQefrcaZiQJ3luFbY0dyg1tq+YIYHQ11FQnReU1EEwpA0WmWHPlGqUemY0rChd2FfPVI0Qk4eEQEWiPgwCxhJCSDKvrIGZrVcXLu19lxZsx3qfgUVz1YRUdMwwuTHFPjuoW2OBITDAtvoGZvjc3nFoiEaJkYHQvReQ5tGmgDRc9ExbPmhFCdSOQeUnQTwHgdEahGYORTztEL0EmnDF2dfagLwFmPPdCJepoFNoPjm3PYHg5T2yTU3jrbM11vjWNYM6zvuhQJ0RIxmgnR/KUrcmjj2BsoWlJXLgkpuhFhzIAIVCMAk0r8c9inSvuvDlfRARxtE8bDqyvvJNPVmFeYPgw3dHO6EBLANccv2OVVA/O5VxIhuixGJ0J0TsxtHChSdCNEmAEReB4CI0p00AJY65yBRFV7A1Z0AEcbsNCGSYl/k9vsfJtsWXzi06sHDA02aOEO3kdG1dC+Jj0RoktidKKJzmsiGseNFN0IEWZABJ6IwEgnPtg+gDitN7cyZCkaer8LSDBPJ7dCzZqPqenAtoYkAOOVADTvhPtbbR7o5+bIhOiiGJ0K0a+UolEX/bmPEvZ8IAiArSxdhGDccWvu0MApWvPuoH8+GofdaDc63I6UmPcTbG9OghU46YBFOo4L1t/Nw/zkHGNuzhGNwNLj2WB2mmqiYZEPSVcXjmMzxXgpYbJOUDCMEaVoScGc4jlqVsgF9ZEgSsW/iAAi0A0BhxAflp+B+V1jGLSiI+r99gxToEyxAaM6c12HT7gTqBsBC2lrTL58KTgV11EeBcVOJkSLiwRpbAAjWUoYPw0iRQurC5OCEooWcrHbIG4q2fiEYQZEABEoIXAASqNKnhQ4RQ/SLloc1H47mU4n22QZyxyEabbscAEdP4EYzUx3vzeIjCpqNDJNNNNFp6sLM7VQskSQHcVbLFYoKSihaCHXnm0s/71g48gQgdcgMFcVLT+DoougwSsoXnZowQC+XNGhk1kWxpmXbEGIFpm7iFX5PE/R82IGKUVnuVAXXQQMzxGBDghsVbQcUC+n6JwjjA6N9VGktLowX2kiQEepI5gvZJvjMq+qX++sg6kWhJBYsAiaaLToyD8seIYIfA8CnyJFg4mKGJwx00NrIRwSyhIvf1VcJ7dpGtx06Z8oRL9SitZw6cpXPV44mIEj8CkUvbNyAcxVQL2xArPo798dS9RLZFwsaqKfKUWH7AHO6T6Qogf+m/687l2uRpuwdD5viN17/CmKjsMoF2B5zp+2AqL+fobW5BSdE6LzHNr0NIgV5sg3KrgRVUcjnS3fFHOhLroJX7zeFgEzOLYJ/pfPPuXh+xQpuqDoYDYdDjC0ktVKfsQfdyYyakqWOU10nkMbByhWKJJvXBB8RHtpHRtu5JfLhVJ0ig5G+kFgnM1Gq1R4/gGvDxkOn0LR+elCTQObDvj3Cwwtl6LzQnTK3NmNrYk1ULQ2zt58sLIxhJqQomvgxEsPI4AUXQPhpyg6SkM4gJHDTzC0lKJXsLAyXjfINyrML/+r2rswBlGk6HzBaO9CeP0laxJptFIGKbr0/GFCjwioUfTqFm9GglJ0j9irV9VgdFeu6O6zvfd+IJzHmd5BO/gjNuQ/wQqPwXAVziFaj4xYobRgsjEi1MRNG5NWI7At8+uNaKKB4t9XIaBE0aG9C6MOIUW/6sbk2mlN0bnSP3dipUsHo3WD0a6EcaK4lLAJGWnBtPK9is/xpibwOiJQj4ASRa+mXFTZWtoPUvQHLF2pv8V4FTy3dgVBWlCa2LUFLIcI1CKgRNGhzXdFNva/SNFtpK5aqB+4iFL0A+BhUUTgkxFQomjY24MZTx9XSNHvuddI0e/BHVtFBN6OgBpFQzejjztUdLzljiFFvwV2bBQReD8CyhQNXT38pC4aFR3vf0qxB4jAzyKgRNHeNGQATVHR8abnBKXoNwGPzSIC70YgXQC+Tr2dS7q0vxohUPRPTheiRYfkgcAkRAAReA0CqRslwh09/E0M8JC+XE6dgs3nfmmsUIp+zT0pt4JSdBkTTEEEfgsBRtGjTbIOixL/XrD+3C/dn5SiURf9Wz8EHC0iMEwEgKLZpn5C2BQ4WvvzftHoDhUdw3xgsVeIwG8hQBawNXY+nMsI/KDRHUrR5cfgU1MWl0McJtGb19vOJ1HKZRcPyponedjR+dShYr+/DgGygJ3u8oHtrlQISNEFQF5zirroXnAOhec7coFkCCm3qI11/lvyB7ZF6AVbrOTpCJBJ/tFkz+6m1OoPUjQqOkpPwacmXImf7F/hRw7vdkdCo6RxskmNS9ZJJjjahe0SPnXo2O/PR4DMBIEiiRa10b+oi0ZFx+c/3NEIxB0NHeJzmyWL6PHwQEThbko3JHa8+y3DxnF8CQLETXhZOBa380CKfs/dRkVHH7hvxM/CeLfwjKK1S7RhOlJ0H1hjHf0jQEqqaKDq0lceKjr6R16hRqRoBZAaswTkkn0W7qLdVwSK1s70CHUgRTcCiRneggA5CtJzEkUpmhBUdLzleXxCoy5JrDayykWKnhO2MydSdIbO+2P726Q2zK+1lycT416bwZjWXp7M64tP7pfXYSTTRdNM6Ig78oNSNFL06x7C57bURNF3ysxMkaKfexfa1c63D00kxiccadlIIt9K03VSEmPbDbBFbnIpd8Yulf9BikaLjtJT8KEJTRRto6JjcHc2IEe7LgRkXXfZXpOg7vqR6HWXbVunx9oMelkZ/DQMyaKs6eCbdeZa/EGKRik69wR88AlQdOmzUFB0hDphDzxK0UO6xeMGCsxtvy7peKS8klyIkhZ0XHmNX2hqv+l6fe3trpLFoihGX8s1IEWXMXlBCk4X9gFyhRSdLCY8Ev7VuCFGkvK6b9g+hveVdTRR4KMUTT6KorWtLqph6Lkkcmi/aHSHio5v+e3LpWjhmeeziYGQMIQvqG9Bv9s4kKIz3NgHRXjOBOnxIbuWxVCKzrB4YQyl6D7AlkvR8erC41GPlq4IqwuvEiGlj45gHcoIIEVnUEU6H8uJbFAOFbIjUnSG2AtjSNF9gC2n6GR1oRYvOBR10UjRfeD+SB1I0Rl6DWr5OOMPUnTFyypD7gUxpOg+QG6gaG2NdtF9wNxrHUjRGZxI0RkWScxkaskh6CORopNb8shRrotOpWjN4AvERSn6kdYGWdbVdb/zP2Y1/uqAFJ0hjhSdYZHEkKITJL7i2CRF/8DqwmCWWKu0P9rlZRLPfyyQojOMOUWH02PA3rLmeuZkl4QYKjoEMF4XRSm6D6zXxMmqOcFmyRAEu2ht+v2rC8fzDIGWMc9AKboMWdMrpFyCpVjxJMcpv0OsBSGfkivOKHqaGnRAxJV94f8gRctgyCH3ghOk6D5ADqhg6W9E9hsCRYcm+Xo3SpyivduMmWsZt3agIkVL8GpH0SOd+7u1CeWuPYBvDU3zbvBnvw61G9Or0vJ6waRZoGjB5I5l9iWW+0jRCV4vPSJF9wH3gfpWUk9II81eRtGrMQmYYP3VuuhIil5dQR5z7i0VF0jRycMjHNtRtMknpJdk7DMmvlDTJLCrzxiWz1zoTpuR2WxmVIvRZHFPZWhG0BDG5dw/SNFo0SE8kZ8ddck5UcFuoqWE3oHoUdLEJOOQDU9YXQhXHJb0PSFWdEzh0/B8aqm4QIqWPAd5imaailgKOLFokUDnTGo+0cBbkLWmmXp48mG2mlM0eGFcEkkDQhIZ+RExC3/nwvUo+oMUjYqO0lPwqQm5DZRBkISPfeFpD0I+LnF1IVz9rr0LE4rea9uJhhStLfpcAG5Fq7P5kvIrf7BoYQMfi1H0gtyAlk1NYwZENrFSigZ/5UfZkm7+WMIfwjUhwhML0fL6daToBK+XHlHR0Q/c9jjZljCY8RqdzThOWq/jd/ElSPKw45ftXZhQ9EqzLcsuCnn1IKMULcFHlKIjWiZsUvoUayQKDBpTNFNuBEC58I48CxRtk8B0Q0kjcRKx8/TMz1LVXVLuBykaFR3JzcfjxyPAKBoEuenqdJ7NgnZfCEjRktsvUjTlu15Omb7ZoEDBjKjzk3+coi261vbsuq+fPFP3tADiE7rzGhUdhc3pOUXzj0GxYz9I0Stx/G+KP1GKPrDX8OLuvWlk2OxLEWAUfT5ps5C1ioqOfhUdOmW/pdMUWPPK7Tc1v0DRDtnAD80mmzFTgdxhr3mm+RjT+8SFnM0ULZGikaK/fXXhiriz2XJDXPabxfDtCDCK3m3syPhw0m60KEVL8BKlaB2UFnG4kQBmC/cFKdozKYEb4MFO3tz4bkn4pPWWaUVAJTJnkndNIBsJRZckyB+Uor9b0bGP7zp8b2H4fgRiXXSngSJFS2CroOhT7Ne5oIvebx1exy62Z15EepCF4zjs95cyvKQhSCLi5Hb8u/VLWfugaA/UYErhqJQLMpW62VOCyXAovaZ6qrxNNc9TdJyCA7MOSpY7tekU5v08BJCi8/esV4sOQYrW4qlD1c1nlQQk4hTNognTkxRCHxRtlBuKXwmFg2q+aBFCoad9nP4ARWsnjT0eSo9IH5BiHW9FACk6D//TKJo1cyurD2NhiBtN53uicEYWoBnJBz0sleuDoudkxwW3pj935XwllXmp390SOEV/t6KjGzBY6kMRQIrO37heKZpG04UG37wH1BY64eoLoUVmcw8rXE/c9p55G4jCSY3AyMIa5xmabMuyVT8UrdajuYp0DF1Uypeg0er4C1J0K0Aw84cjgBSdv4E9U/QFxE6DgtEdC2Uh+gJz8xu2GGo+m20imw+ecwpLCxUC8GGYmzHUCytjeB2Do2joFVK0wu3FLIgAIIAUnX8MeqXoSINLE3+KIETnGwPShmnCSSSguno2yXUmSjprLrIeNon+N7hlNQgN/SBFo6JDuP8Y/WwEkKLz969Xio4XgIP3DR7cWJrOWpxmtgcOiQwf+cV6ijaTbRhoRO5epCE+ZfXmYj9I0dJXVQ6U5588z6Lj+X3HFgaEQJmi/+Y34174znbuxm1SEk3Q6E5yI0WjO8nlfJJA0UcaxtfiKUBaaaVO7onvr3xtFWdI0RXAPDf5tyjaMsqTIM/F92dqL1L0DlZRsBAIBAE+/3g4Rka7KTZI0SkUWaRA0cmD6/0Jkt0qedtNCcQWzPp5lwnRswhtCmta5EFlSk4o+YMUneAroPDyaI8UrWqV3tLHTp+QzOGL7hD2WSPWFSNQoOh5oteEZW4xu5wyXz0FwQ4pWvIY5Sj6j4JrURb+ANd1QtdHsOKIkqdkNrkR9jbMhGiw/LBsMkl8mEYZc3+RonNw5E+4OCG8DvNXX3jWI0XzqqIXd+1fenvW+JwmRGH+16LGs5r/6XrzFH0Qn4BZBEws1EVXHBEspGgRjTguUvSfTyhPBr/OwNFulGUF0ShZsyBKKEwZambu8a7XRSNFx1jLDt9I0YpW6TvuTMCRWfXIkGqRxhx91Qek6Hp8Hriao+gTf75TmuZ6jfwCNlOck0KKlgAvUjRYdERStEnc04JvegUlZuQcJ4PAvHW2/KtcxJWZ5zmSqpMkpOgECcmRP8JfpuhQNFFcAEWzn7AjgaV70sq97j29yQp0Tu4XYh9Q19Ed6KqSOYq+pOzMI2dWKGd3G2+xF1eGFC1BVaTocB5xMezkE4JxHeF+b8CV0iKlaEkFLOlU0PrnsyFF5/HInX2nFK20cIhR9ITYTIre9yZKrxigY9q0k8mERtzBOSN3Q/DkQQRyFH3OUzSTAOH9mQviLUCKloAvUnSynfw52nSNMitotiFhtj+mpAIg6P3O2TqLUHoREpGiq5CB9B+n6EtkUW/Hkx01QCleWhKdGd5vmrJvD4cJGBqFTfnwelsEchS9zrExIYD3XyHJFRpAihbASKIyio43lzeZFfSe0n01RXuOsTGp6brjY+Dr7uwCt6AUkKJLkGQJnKJ/V9ExSn6vGSKPxXbE1Kz7Mpnqrq6sOUd1WbxSg0COovnjndxjOAKjLIRTFhWdaSJFS4CVUfSVcm/QJjOxs4k7vRF6l/gZ9ba2fjQi3TSr2drNz/74HhZbeS5Fgzh0OBSbVNSGKi/szupzJgUb/GLTLc9/XIrWRpuNbdts356ewlpJIPduzAutPa0ham+0vUyv0/l2J3n2e+rsN1ZTS9HAKEjRhbueo+DCNXaaux6Ly2duzHEijKLjV17ZQOl0N9fzsFij55z1c0ET+VSKjuYjihydUWqxg/nz1vlA6uMWLflqHjj7dYqOoeuPBU+hyt3Yx3vRV7warMPZpH6wdtfH9Rhi9gTEPwxKCNRSNErRZQxzFFy+LKVoeM/B/N8MPhlhl8gNSBuEXouP6N23K+YIralp577cyQQ8/quH40zSzeqkw+FMxnkDE3W3R60pGvxoK7kjqe5v4cqPKzoKaLzulLvTDaUit3dwiR/4Jv8Hf3yT6qYeLPt7jbxumG9oCSk6D3qvPjpAkx/5RnKJ6dxJSkZlXfRofSyIymK3TlNf/IIsOiAt6KJKp+0omjnkKzJ0BwWG2P9yPKPyLFbO1SXl16Xo3WbNlkK9JXjahkkh+XC6gfhMdfaPBzhQ+N/XJXJKviSecQRqKRpkN1R0FB6UNlL0lAJdzqGCE19Wf0uqKlH0zS9qFpKs8XG1WTNrkDR4sOeG6r+0kFpExtBI0WrYibl6XF2o+BpjRndMcUTMhqdJ7KYk/re9Le3j2tfXR3t52+YePEn2KGk/grAblxTXc07IETunf30e88d0UxIGKhv42Qs5ii5YdDDHPn95mYy6AlI4XSiAkURFCj+YlJrcQvU0pvSaZNE0w8jiQOAbNxTPpfG570jT+06cSmToZyo6FOlHeZg/rugAo7sT0cm64xyst7u5OhMs0gAnuntrfPb+YuNckR/gnv25NFcbqzaXQBtrVr7z35oxR9G5td6xI4l4GiC5ZeJHM1K05KkQKVpyWZK0HyuYNIGjJfMlH7AuOWlWyfG0KpG2zzcHM3EJKJ2TTPakFhX9nWt7oOB7pOgL2WpkBhMbXXq+m/Ffu7m5zg/O6O9v5Bzm1w1Lo/7Mqa/xMoVgFFbMzP0CfSQ0kh39WY0RSH2TP3I1R9E5Fx2EcDrOnChxWMVPKKRoyUPSmqJX5l1SjSRpHyhmlJRVTzKIa49La4jbU299i1l9U5J6Ya0vonj1xyl6Qq4HanfZetaas93ZguW29H4Lt0u4RAOZoWjdXfHsnMCc0XI+ZoZ1leC1HEV7Zg5TPoEFyi0hBOIrDyla8vy0pegwYMpqpbAK+jV+kDYKTh4oKTnNyShVWihNbJ9v5xckr7SubhFO0TCJ8vbwHik6BDUF7fCYhAZoKkxjVAXbwgBgqVGi7yz/6TC556a8rWOjCM2ZhQZq2u6sqd+K5ShaE30mJZa7hsDQNHcLkaIlz0pLij6t+aoWSUWSpL8X6aPLTben3nIdYjjujC8AACAASURBVIpqfWIZtTin6BomUaulh1zvoWjtNL+1f0F5UyDojfiFLAFgCwvB6bRqfg+cORJKEw/GUNwK8kptgUYKUd1HjpbgnSTlKVrbxlp/ADGd0bqmiOpOUowfkaJzcEQnRYq+scVe5ZCUPJ+TmMpx57f/+anU25hHlVL7ztfYsVKGX6foEiAKCQ7oMYr7dciKLcCnWjT9Xbq61+nNuawjZzTsqgde0ZUD6jpKgGYJBYrW9rHuee1keZzIEJeeC8IJUnSGURorUrR7nZTDNLZN8i6lRSJpRdLIfCxqmqRZnpLYN/Wq1td+MD+u6GgPmGaBlcBaUdvkrGGvD9n07o1c2JNpRs53IQauZpQZGha2VAnnHcbzbUVEir6yZfaz88Y9Hs88mv45H90jWxXHQoYAUnSGRRorUvRG9vCvYgv/lZ/T3qWVVEfsW/W1J15RpdS+87UfEkrRLTEbBaC+UH/x33ViSiz6tmQMH3hTGsStczWPOkeTY8te/1B2kaIJ/yY/l7/KhZQjycBBis6wSGOtKLo94e7fo+rom3pV60thVY4gRStDxTPCVnj5VVFNxfcuUHo50x3sp2HRTPyh/ee3kKEZk/sdpjjLnfjKlBxFK4h0C5rBgBSdYZHGlCh6H0nRow7fd9NOFq9p9zpGVCm173ztu8sp+k0a+1xv3zRdmOtD44kHE01tDZMryiw2m+Mt0Ve00XJEsjYdwj1rxOsdGVpTNErR9S8yJYqOFR1uh8UoJ9ln5tOfnL6pV7W+9gNDKboFZp5NCltGKxU+ULKpVY0ke7C00HRkE41KXfihTEjR+ZvdrxslqFuqi46kaCdnZZ7vR/XZvXEDjOqyna+oUmrf+dp3GClaHTNgaF2iV26uYOdLOHo1GsW8fdJhJ62WIfBzBr3NffjwHHaoOgCk6DxSr6HoSIo+d1otePILhjX5ATznrG/qVa2v/WhQ0aGMGTB06+nquPI/s7hVVsg8hemRkhq2VW4f/HeIHspY9Zlx6wdmQMyg/nM8bREpOoWCR15I0ZYus17Kd0d2dn2DUYcqpfadTzb++jSUouvxEa7OSHfJdeFH/iGS6izg7Cm4+GDPptd2rpDzOdV/RYwG18KTOblNanVFCbCwSYiw/FhlN48F6qLrX35Kumiu6Lh0m/jzRolhU3YXH49d6l8XfVOvan3tB4YUrYrZndBOWo6o/p3O6ThpbMq3CD9xu2hQVXcKgj1vUu1XHlcumf2pkG00eqTo/FPwQil609XOyOx/veyK1itdVCm173z5m6Nyxil6CNYBQ7foAGcPMpP9eozDxGRD0w6ECuUnhK393lG2JuvI/DG1D6afVV7fi4+/uoO19PWSnjBE01ynIe+BQ8gkRBckWsDC/q7foT0qSqlC33h0yX3oF1Oz8zlZZifl2Oso2uuo59C0bjrs8liFlBWRmLoK1/umXtX6hC4oRlGKVgMqNMlN8Us7q3Aq2l1MiTgrciY6UDOTy8PMiUQ7ng4anIRk/fj82OhY/9kqjHB7Y35eo8D0SE3hJLicaPK70lRXp+tfQdFM0TESN1NvBcXk3Cq7SmakaBWUWuUZuBS9IcfWDA2CsykwC1QhIDIxdbph33eXbkI0+HH6FU2HgNo3Rj+NotcydQaz6OhOtIv+ldH775KiUdHR9NM/5ETgptzRddAx+2SdcXToS42qzx1V0eCiKenHH9tlqybsdjUX4VLD9YbL9XXzq0lHHznuwkdKD7jsmNzmZb9EWcqRnLMTSexMjnXlb8SUFBKS4PuwrvzELCiZpHbRjKKNetVCzS040dbyT01t/FKzFF0/6gSgcwM6WT5lVVxT1wvXUdFRAER6avnpXsfS67LEOyG3VUAFjt5KeT7oquigiXODSzsFyetz04e+Y8Mr11q8ZIcO2Y18dlrX+/+6+5gnHylFM0XHA2ois3cpsUmK7v9H0/sQ4gcPKVrlF3jN6ShUSmjampVZmSJHb0iBqy6GZnX/hSbzjzeqm2A6XPkPdp2ovMZLgUBeXTowwRNU7XWf1Lfviyp5NfDEXA4J2PyfrqJYFsu9Pe5ZVvYNVd2bgBwFr07l6GbM0jp/a9UyuQ41b46s/uqgq0rR6+5moO4DxlJyZJukaG3nqIWDWjan++DlA0hTOUU/i//TVhQiQ9ZF70nhKVUYD5hwuJBtZQq6jj2lsUAy8jnrUV1btPfPkfzoki3iGqb0tcY5fSKYBkuG5pL6H1BT+03XJU3mki78A/pW34lciXefWAdjA19HsHE7Nd3ZhE05VIcmXXRUUic03RG+VYTq7J/0P0pUdMDF/kmlaKboMCPWM2ZGMl2repwfnWp8Wl5ZRtO/G8LfbLbtVqPvwY542b/V2ZiBSQD/tzux42QFf2HhgtK/lt1Uz45StAJW5/y6E4USkMXTCXv1AUePU9u7ayJP/lHKJUNfg80oE8pte1xfo540UeCnU7Qa3oPJtboFeu69q/tm3W7DRQqUDyRa5iS/1jV1w6WIptLF/kkpmik69PiDkLZ/ortsTlfR71Ljql9fbJsHGi1FP1FWyKFyExXPMIwZyFon43xgnTgtDaUdzys63JSMFN2EkKb9kU5+5dxIOwIcnapJwtS+dzdjVs3OXBM30mvH0XQdq02Qopvv4cty7FydFgJsCA9p0yqlR5EC5V0dOEUzKbq7yo7owpoB+fiVU6f59QtHXXH5wJZc9wH78IVg8U3UjlS+WI3/ZH2PLXUwWeWwuVIievHSPf/hFI2KjlpUr22nu+4z9nG1pZHwfQAHpkn9y8IyA0+78TvQjpzj3H5sxPcCimbfe5Whqf2m65UVpxd2zq62B2nGd0d2a/jZmr4k6IFZsZGlMkX3DkGPUjSj6GDd6TFmheo2zXZAmrFs1Y2OtJMu7va9y3asbHg21tTSxpyi/0YO24nYIVcqmsmm5U1/v7+zhWNLwoVuOt4H6fZJaa7eIihFN0J5Ks6XNJVgk8XMtbmjk+BiAVPbaQnQRheEKdhmq3OINYlNFPjhig5vElCY0Jz3zlDpXekrYtlc51uhKobPaKmsqEzRfXUzrefYr6LDVdvCXvq4F5HhGoSooy6xudMxJ+13fSQnRtt6WJ87verCS4ZT9B62habwk3V16yqdhYFcTD0NVoaE/5hB7DLkKpG08kciSNGN6E1o/PnTmDPKAAztRhMxDjyN8NErbgKw4c45hJpua+CftkEfM032OV6u/AKKrqXHpvabrgtoyKJ3/WZpp5ts7xpZ9velbX3+a6q5mfqs8IJmnX0fRW+IKHBWAVfsn1QXzaToM/Pe2C3EOuC0CxfCvkOjcAaXkOS+l0u0SSbhKIrRf9kHrJBDGg10L5aiJ9MbyN47ctVC6U/fpAvLYhqOjKK1UFpnL4n8oUJFRx2Wx3Y20cDQUw3exMwAIZzAxt4xkUZNRHYeQnPzWgcLQsZy9PIbuuh59IZ052UEBpWyBBG66XWr+xn1JJ0vUmCSnj9+gC762o2eWaminkD0eHEmNlspqGffonlk+Nne0vbGFN7lEAQxekbLeEtKsyTY8Tmm6EgXfSGOpiW6xFwZ7veMhjmKzmXo94RTdDSN2W/FbWvr1ejOzjzjVMfsBvc08QhCyu6GctjCihWQOTdEP7MXrWY5uaKgNcm/EA+1T16ubPHkfo1SmqTUD1d0zAO+gisYNkWfFC2Xy5tCKFN07adM8eFQOe9RF80sOi6dFR1mUZrPUzQby7Zeig7Of6x1Pq+fidErprBQDOAT2KTgCOpvDGsEQPi+sLlCMydfJTU59sxlZrhGJH4V5peSXH0dv5Gib+y9rBJuKiheUnsMldzahDDvdaCAJlS61WbxxbCLZESluguZjLj/X07RU91kgdtBFRAYzulprMhPpu4Ueq1K0eNz38HvTxfNFB17RQhKP02qFz8lRYq+chF7nGzFXEAvPtU3LrmMDML3TkzFaIOM5NllqYdgHbgnbeWCDtHcgUkdvBIPjiTnBRZy+cyJ4owrihbgEU2iv5IU7JbEKTov13Wr6NFSvUrRO1jX1Rh2IEWH+/3ffr/n8m7FCM5F7XFFvjjZo5AfGHp50fMqjvg6uCGF2B1WYu1dJgWvGKN3C/YhKvcCiq4V4Jrab7reMHovejxXtX1oqOPZlz1mVKsYipZcahQN7/zeAziRUQCm2L9KXbRmcjbp0E2z6JlJpOgT11Ws6llQ32zgJbGLdJKJGG3pR4Xxtc6yZRNBY3gcnWMIhffB2K4jkNb1FwpwUL9O0QEfIc1hQear+L1f96T6Bc1EU8VXMLuiFMSCLYEJiFIIeapBfMeMbPm6uycw42E2UeCHKzpKEA4vwbNbuCv0C/roIgXKhwdrFfnHRJ9/KFExRCj2T0rRTNGhzVq8qHJEXjK7EClajkchNaLoQzxtFIvRqTRdyPxZp79N0drEMMjaqLNq3CtJGuJNX8LTxyRlsOfg73/xGsS54zDYBxHsPvi7N5GFC9maT1f8AxDyvYCiJe+arINN7Tddz2r61Bi7my1C3vV9kQLlIHzAdKEGUkcLFLKsvlscc56iV7fpTfZTEkpBw7pmUTbFByESo09+UcXNL37aH07RX6foUJWi2d0CZf8mITvJ3TtI1RWSjFnSyWWzFLBNi/Qzy+Zv+j34XIicTnQ26bgkUxlNFIhSdHZvnhIDA/hWgSZ3jvfmbRTt9ThdyHTRzOdBl0D9VM/hnaPpfbCFjuf5YcJ9xqql57Du3k03m5tmzUegQmY/fi4/z3tcVl7X9pOv/bgUDegCka5pNcpgIlkrQspKbglZHig9Swve2MqlVUB0Gu0n/lenZZHVnqSdJ3EMKTqB5D3Hk+9T3Vf9xwRNXbROUaZo6eP0yJB7pGiu6NA6+j6nqSqXTbPnwwqMozaH0dZWmtpkAjT7WTEx2gvM3hF7BO2uZZGiAxrUqeTO0SRxO3yZTUkFQ8PKfpChYC443MRmRONImm7XAnsKw7jIj1H0arEYwuRJdr9aqjkYBYl2nMoUnbXYU6zH1YVcitZWncRonU2bx2Hsr4R5/j2b7zszP4yepp+TPDVHmFPc+Yyjp/RwaNhgtqaaQV3iFP3Tig4LGDqsvidH6RrQ6vzRlalbacY5YpY6W8PSPCOyyLjPmmqTXk/1HD+ki17NbbYYnBk02vMhPLXszvz57YlpDF9SSXgfRYMUrSBnFvsnnS6MKFqbcT5hd6hFEN9Xh5z91JTplu1o/996E2cP7LL2+50P4s6OrQ8CMXr9JfsvoxSd/FIqjoF0zq8is0ryqjj/GPr19kQVlY5TtwY/IkV7B1iqSd3ZDcISlthT96BAMBXo9ZgMXWkdqJ69YIoUKO/awKcLI0WHFnYwjTZv4ojHArFG831w13kozSmKxZJXwx0SgaMPoys4LxtlIIt5PyyOFN1wwyhJFWUNORUveyUH+jNBpFKsBGYjYx9KUOAFFF3LhU3tN11XG/NhTPRl5vDO2y19MoRN0P/ay9DAOEH26aRM0bU3QQ3EfK4eddGxFA0avNYh7y1UFKPnlH1nri5c9XGo1W7dwDDLMM68gLZLX5pdfll5jN5/xil6CC+bXpeusEndxgB20dqUzfLoa6c6M6mZSqwuVXeFksJvbe+Hdfnl19aRloRdbKLAb7DosGzi3wsvy9Pcp5tQDs/rUjtoohmLZR4PlSm67zH1btEBHTxxu7sKX3+SZEr97EHmA8zEaC/IxJDGsUcbU22jn9YfuOswz9Mp7NzbWHDwGX5bit5S/Xg8jmF/qqpg0SdQdFGxcc1Eqqp+FNMvoNBOwg9Q9Mgk1yJqMHzwFsm0j+8M4HSlUzBTo463UTTYSghPUSWIxf5JddGxokPTRi3xYIu8ciETow9dZuqTulbMM+LpyB3mJGmfefxtir5Ec4HHGop+hhTNyAb2Hk2fmBO4BGgXQn+UFfh+ioZXaap5z8bNYo6vH/IpLz7bdtC+Mk7PPAcxCmR3c3E6wLf6suIL8Am66GdI0Zp2TbUMSq8uvm9J7p6lYvRD833R9rLA0R+v6/htRQd4s2JfRptq02Sv5Ccx9zh1OdGZdtsAYcNncxs8HIKMr5O02uP5Klx+AUVH349Cm2K0qf2m62Jd0rhDk7Xu5ct7U+4ov5zzOSnnllJjylt6oltlFM1ESWNlgVHCueJJAIquvQldRvcEXTR0Y9liMbzuJyhk/U/E6G1LD+GjUZhVosU7gANHO0LqJ0Z/WoqeTIgLmxRffbkyY8IcsJcm9x6+y6zGM/HPG50tYonCTMXoM8msaZO1qJZtosBP10X/6XVezlamXiF4Zng9Maa3ExpThibjZEldStFsSmhxq+jrE6RorUe76FTRAd+HR3VIqOzWxWL0Mb9OvgKXOJnNSxByzqrbMx/TEE6wjfdnh5+m6DnseAGBUlEmTe/nlJIQnHpH+5OlqQ9HmHb7j65BJIKplYRpT+tUNanQgOPnJnhfQNG1AlxT+03XG0Z8GjPHj9VhoZsVkmdlmdD+04yEIitzqVzgXooz3m0RGydv5ZSiGZcsq4byDIru3y6aQ+ZtOKsoYCGq6zK0IzF6BLueqIcAbGRum8SpApSLpWj1Ggabk4OZ+8G/qavvsejQViMICVHmhj4llK2wXjPf3X2GPxLAnuIRRWcGfavMT0FjYyPfyeVposAPl6JjJ8C5IedOLq1+zKzonRp/dUtKc9XXnly6OncDf4hxxSlFw8/wL/2uKrb6JIouNiM5Z/0Tg3S6MDG64xk9RdO7spPHxZ0JA1yMtoubZYl9KMV19oPSLrGnO4gmUnQp58cl/LgUXX2/4JXBfWBs8nu+VxdQveIw70qg6LBtXZzKWJR85lZVWMr53RT9V7lOMwVo08ZzOys1JUbjeyutvTZitFC8FsTKRLuWUjRI0ZVCNHzNDVoXLSg6GF63xi3CwNpuHZag3ZINUC0To/9I8pVRyiRL0F0Hwj2j6C+TooegrXmPFL07umB1dyx/88YyNJugjnRasueiU9qc73h5Y9OFiR8kXs+fmc4e1tbrmIfC9e+maLt5eec+7zquAI/ktD+KdrvOFhIz0VYximZ0BBOF+0ohmlG0ZCCPJfWoi85J0dCrUdOrS9elvyvYawo4GsToWfNtFwefvP7S39Aqt5JczPpp8d9WdMAusNxBWemXAb6eY/6ct3ubN9//ZTSPIRrdRYX24yU8nU1hYjrFLC+g6NqONbXfdL04ntz5XgX/ZeFbPFeD5KQ/iu7M0ISMnahnjKLnG9sGq45DKOlslPQMiu7RLrpI0RrziF7t/U/Xx3ntSTpuztEHcmv51jVmk/lkMj9m0uZWqr5M2/mcyG8rOrwNhYWjkhmaxToRrHf96CyzJ2JNnewkF7PsdcVzm2azzuO/9CSJNFFg4zd9g9WK2+BJqqn9puvJOGRH76aixPhrqY3uj6LNzhytr2NT76KuVwYDm7a+yS88kNqj0V1B0cE6tT/Dwl1Z8MtLCoVBAEeHVkDp1qqVC4QSWbR9iazsYGO/TdGaNwXX+unHkewunUhqdiG73DoN3J6HSaGFkcTi48S/1b77D6Yhud5EgT1QdO2z39R+0/UCCPlTtUXArp8v1XDWH0V3ZmgwJIoVVsoUXXsTGkYsvdwjRZekaNbg/gi7eQEh5wPR3UT+kfbKSJQWemTIs9ock7eZNP+3J/62osPyiT+7O45Ejk5v/Lrf+UKHS+XumqnATVJseG8Hl8pf4s5dS1chNlFgDxSdoiGLNLWfu85d4hSHeGKpkpcPs50yZE0W06btNJc9UjRNCKXtMXVOoUzRxUE/fP5siga70sNZZwbLaaD62mgyILufZ2f/vLT1iKNHvk6p6zw82k+t4Lel6JA9PfB/bqOiwq28tfyILhQvnhrMCPsEOnBQgtMSRYMnxaN5yxRqWenTxA0qnG/mKDArkcaGRNE2/73Ghs6eS7na5sITpThf1BaH7ZKpg3TQtZH9caSdaz+eaosLF4PtpG24GTtm6fmXGK+9k6LXwlCqosX+Jf3O5ZcoOpLri8l1szZ93RyDI1lH+iJOsqZHvnchcHNsEB/CYtxxHE/z/ErEZO83GSW8GoD3WHScLmySYVL3Xt8Rs08sxlwVvTgyedixi+Ika2k08zcTTl1pu6vD2d/EXrzSxDTyQRQN87M88HciM5912CjWUWK6jUw6MlgVnamFhNRS9FTyxlPK8pwEV/pdo9TW0YmyFSlQXvgJuujn+OiQdD+EdxJ70kN4M8VPfMzUybIEuJD7DUbby45iORpWLE78epf+kla/JYlTdA6dN43sPRStMlhTZcJKpSKW54/4MlrOF4fPQ9PcGPfLYbu9zI1z4NuTMJ9FPHsBRdf2ual94fqZ+1ZbUVgDDx8M8AHDfKRYhLtxD2RitK2LI62Om9KtfKvz93Wl8/7tsBV8/BpWpujam9BlQM9XdES9Yk75QV6H2w7b3kdJy8hgiitBDG0EF3JLSOMdwIGjIbvjTANi8kUtXUb56WV+XIq+ghvwq3Gtnb5Yyqij4333blTRIn+1nV7P9nhzXt4OeZG61LRAgaVrLGFAio4ld0viOXPWL+82jmxF7lwU3chsFtyA5WwO4/in35yT5wBhbh8q5hWysVVz7CvoDMfo48qYCpdbRT09plxlim5VvUrmHim6RtEBi/7G1gL2uz9srNCJd8HaRLiZB5iEABz0g7WxhS7HFK2NpprHtpw1je5fK0K1Hxn9bYq+sJ8cPAG07t4taH5fiLq8Tdc8v0+RPG7tBRRdK8A1tS9cN2LnNlHPPTDnS2uGrTKMMnymoqmGr5gvauFAJ5ZeNwFR7ghLsahvb9gH98G2A7ZIFNhH8Y3L8ubDYhyfv5Oie9NFSy06kgFfYKibqKltgaJjw0PwNTvKNjlgu1Rk5qfeZD07jdv4VEra/Y4jp+ifVXRcyAGWRuxr/EWzu+xSLvT1ccMvsZX1zgDJeGRkz2FF5QvBFr8iy0ftupKnaE2wuN7p5JjSdTZUZSlahWzSajtadOzYirUtZ5UZieYRUqJN61aNpOT+Nop+mS6aUbTB34g7PX4Nx1K07pvc8QFQtCVOiYkUDcpBU3xSVAH+lny/LkXvPLLUNkzjVR0OJJCQR3X+mivryPJgRZgpg0NoU71LlbeDIKVKmx6QoqOSooGhN7LJ/oZbk47X5AyQnjZEOlN0qhGDbamjeydxeNzQeHz5HGljYbWzIDFWF33AAJtpZSqCihqp2L+2Fh1M0QG6IfYO3dHE0UhM0f51wp2FAkWHVRR9gu+r67pHbWM1yIO88vMUrenXJor2Apr+NB+7iVsSbTKxi773zxKju3wDS9hfsTF8AUXDdkrMN0M5XMXP3/LlJMXjjk+Ss8ZjN4r2dtlzAOubI92pnTBtY6OFDImLDkWK7ri5SwU1J8kqGnwlim5UdAQGZ+gEhEQXnSk67qbwAEwER9KGHnkTvCZlf+z424qOA0xigCtSu0GROSGBTMJr/ah449i3yy5i3mU9RS8MY02ORqOp/wsoWvj1lEfd1L5wfRnpmw/xJFuiix7pVM7QoJQclRsspyzql4gWC3SjaDBBgVe1xVRUew3uJa/10Ep8zzripJqZIgVmecSYtz30/8+pva9x88X+SaXoWoo2fGMDumSHuoYRixwuPNewUta34bADJb9t6KKduie8+JbEpe6hfvGCiNS3xX9bitaiNbirhuli+DnGnPLY7Z8nVA8OSS+Hw2RcT9Euk3Uo7CXR0KpAgdKcA1J0zOgapvAXsVOQkxut3GQydChfXjhSc1g2aXAjUsClI0XviXs4+CA9u/79zu3BYBWSzJq70JzsdJY+UUUKlOV+Z1qxf1KKrrXoMMZHF4a7HcOK2lg/dAMPk5uVdmaOJi/afuwe3SopaEnPxLaafwbvxOiZbf84RStC65B0pznFErJsoU5itwxe7Kqx/jvzL5aim1YWvYCia6WtpvaF66v4C5srCRbs4YP3D1/jCVFfMnvq+fUYxThv2hnddKToaI0NyIEjCq/O+Bv9nHKt7J5XpYXZA1WkwKoi70ov9k9K0bVSdLHn3u5+3bjBcXbbhsVr5XMweqVrzYwsaMqXvz6FU/TPWnRoO5BlD4eDhBvyd/7c0jdivnR8lqgv2Sk0fDg0f8N/23Shxy2K42UKnKJn8ZKGCorWZlTh6QxVrc3jO3Eh81DnRnNxguoBHhaH5Q0Pqd/QkahDVa1Hm2afRkUKVK7jRRmL/XuUop0zeD6gvukz7qHuPWwYB3g1BZMOs/FjsqGaj73821L0Kp4nr7fogJsb+u2cQMiehwvRFdgmX/Lbpgvzo1M5c1IjgJrc00SkrcmTuzTyvL8wl6J8knxQJEdtIypRFauxhC+GIgUqVvGybMX+SSm6VtEhdvUwJnRz33Gthrc/zHyqL0MxQym+smfuVnPij5bS5a9P+G2KZsIsPR7WjRQNe/U8us/0n96B5f9mYfMjKCgSpJkHpIuW9q8+ce0X3QGW8p9MsOp6W1i03t0WNo6Cj4ckFCkwSR/Ksdg/KUUrKjoWa2LeQnFk3vZIVCxLxTK/Ff9xRQdM94C5lorx7ZkEjVRR9+jAPtaRlVZdpm7XXkDRqcgo62FT+03XZXVmadtmi9hbouPPSr0ytmxtDvZnhlkHixSYXRlGrNi/Byh6rusSh+i7MTkKeFSNuvYZrCr0Bek/LkV7cx/WpQS1C8Cju3wC+7cHHhJYyTV+iOKLz5qXdaaJAj9bitY2OQc7RRzgfKHXTSk6vMTqTywY2n+a0ZOtO9OC7cTKFeKuqBspUqBC+ZdmKfZPStEqig5vSSV7BoGvFthaJ/EpVTEymC3ajLMnviLXdyZ/J0Ufl7PmYJM5kHMwJmDypXBz9z45d39IYMvv1oroyk4xD/jLc7px0AsounbgTe03Xa8cZ3RhpYsyZzmzNY68TpevsJQ7hdkmPuEkXL8T469hw7MLt8xl3qDn7NV6mh9Y+RUDAm7km4+kLAAAIABJREFU6g4XHJbCwralquOWe9kXKTCqczh/i/2TUrSKouNM7QrDOnCVJCjny0Pfg6O8YjfKub405RsVHVv+m2z+Qw/WEvY4sc1sdr3uLi/0lnYDQmXLh1XZQmXJJGciOzZR4IdL0TAPcKz4aTNQ4PukTh6e06MNwc8tdZ5SowEUg7CVhH/8IQIFlRUQ7pE6AAu7ObhO5UaTmWefa8XCG+GmCdFt/pUzdO4p9q8rRS+TNfMCFGl0pyeO/9IkIWKBq4Rz7W0WMn9b9BulaI3vswSSZkOo+d1LbzP4kegmR3szWrmnrLSl+sQd8c8z359xuQ6yfjtFa1O5/w6OEqzENurgih3yuLkJxUa76BNYhDHih+nkDaxABS8+1yOb7QWHLrDLgKWNzZzNpLdpoY5e+HljyyIF1o3mHdeK/ZNSdLOi4xI7nqoYwrXWU0lAFnDPKop+efJXUvSz7hnz9dNBoXyye2VocLxD6XWdcc5nUbR32zCxthTqblq842hhkcg9+lCqZ8c7Oe6sFSg7xfobKXpKprE/Dm4/HdIjLCOEKlKKztDn9VpjZf5Y+AXzsSIFih0dQrzYP9cMJP8afChoe1o/3Z7zbVca9oYctkrqyFLJz0/4RkXH8+7KyCfj1irl1ZrobeeTGobgwD4WGee8gKKZCrYyNLVfuH5cSnb7m9b/xO9HRukFFBcs7Vjg7WIvvWi3xHGOF5so+uSPuT8OqMxgLq0XbBk684uaUDT72axFUKzxUjwt9iI735nJx0+SVqTAJH0ox2L/LLbzYik0LYFtmvStp+gbMVak0xqhflC8Bes4BGksSVmvszTmLKrvgFJ0K0T3MLlY/Ik1VLAFm5GcOUFDfrXLzjoz4StQYKmCBrUrEA8plRETBK/OYnIab2q/cF36oawy3ZQ22BjxxPfoajkrbl/VRNGgidaj+V0mP4PNCNssJhCk6EC3bWBtIVhHqTNVIQeLetuiDK3qjLRQ0QtPixTdqWmH7apcF2op2juAX0G93qNNXeUPXzNp8uVAqVn6hsjSBMHp4TaTCpCiEyTUjqcNJecWyg5rScixRX7oxcjl/pPS6c7lmhsXVPevQIGljD1QdK2E2NR+4bqUopt1maVh1STc6mVyUG7XTxc64+OarNltM/gkgkfNk8O23WMf2zOmiy4oOiDnaTZu9CPgGWZeD83G0AsFsoqeFHrp3zHzSSLvZi1Fw7xtoG1Eh9LySp6Wmt3vLJY1lqVlsezqozFUdLRF8E6pX2dCkKvvYBLa8CWeyw+/9FjvmjI0c3YHPsFqQoECSzl7oOhSnWJCU/uF61KK7leKXlKxf+X4/jjSznkpuJgp8g19ikyumeGuzlwYm9S2mYs76U/x4k9rX2XaaLwJi+38BkUvGndoD2sVRd5mpoUFPVcZyeelZPc7i2WtZWlZLLv6aAyl6NYI/rng/MVRKbZzKVk3ila5mmClVSnA7op67qUwBYbRtsdEuC5QYK4+dvKDFC1obtra7cTwWRuuLLFjqdegvgNXDhTemPDOvd/ibLnDfhPkVN65i9pqaebuYnK1Fyk1qewJxz76Z9Taazyh0z1XmVFvFsuayNKyWHb10RhSdAcEJ7AFxsZpKrjbgEZzXi9XFeo4GWyzW2kQBGnYyw2k6oVPY/aZE7s0eyMmwMZe4mk5Tkg5TUiB3byEs3LUaGjfYJNsWZBK0f0qOpYZRe/M0X6/txliLwjbtXuQ3/G/q2nIFV59UOAzh9ZH/8bBM3v4/Loz6jVpNk2YxCjMUkQhy5ekPH7kFC1OrjxeZbcapoyYjG5lX17KMsBF3povO6to25qsCdGNsOKyPBkWMPL7IeXoTJCO92xhOlEeyqoRaQVvTJyJ45VSdL2iw3Lus80YZmzWm+U88pIm1pjGQyeKChR9i4e9TjM9N3Jw/fKuwdYFUsOKhvugwIqqe0nuoX9h02Rhc0fDkzZ/Hz1k1Hv1k4nD7Oinz3eWr3lEqjlQilZFKp8vnAJy1OZ7Y+avwNnqwiy9Ci69SrnKCcDqlUGnyfYeXnFbrRvRs8dFFoN9lgPzOZvfEdYebOMsazZJ8/MbC7al6JGxplT3oRH2n69T6k4rhIoLs7yAIFD0hMxg7yVj6fALr/jzZ5jmeT7ia8XZPlqHq6vbFbI168+Y3CRWiMNJMh9XUmwfXhlowcre4H3zharUq5qvzXOIFN0GLTGvdwDjZELGs8kuzNLD3WTG1Mng4lT+wZtlLcXuYOklD5SFeD9TMPkg5hVIxyepoiOnSCjVGyVEzvTl9T+QWtGamFzQlUspukrRcZqMS6DAC4nqUnhhMTjnaIGi2S54re+E2Psu8f3l7Prcaz3Vx5tpjdwPtT/p3fnAPS0WLVuhtARlwlZoPhRWRAeTjhpN/0O1NxZWpV7VfI0NChk4RVfIJEK250c/StERwxHONxF/6MH6OAZDrSA6pZt52B6xve6PuTTKpEUxgAzJgp+43PTOIKPDWyCxNC1QYEXLS2I2LIhvfznZhLCiyTi50D8pRcsVHScwnynyRXzuS+fevA2XowWKru/aU6+G+7+VwmTlZc2W4Aw3HDML/K5wGSTsWjQp55OV0c8OokmNbY6q1Kuar03bKEW3QaucF7ZhO4tynj4+32E5Whe5jQvlnICqaImGcQdOMAO2T3/9BQosd5KnXJ9gVg9bEVa0JiYX+qdO0Vsf9uTQ/cI/9rbibyzdEVuJ4iBHLx3najrONr0HC8eRT9SVi/ecsnhY/uy5Q2+q7txgBKnQLdiJ+PK+vbFUqVc1n8KA0yxI0SkUD0Ssv50Du9qNum62xJqeV4iLQnLFBooFCqwYB0jRFVe6J/dH0RJFh3WWqwDYC4xt7wp/jfQ1lY4BdhWPQ+xPbs+80tFbmuGVkaDdrrd1XVvtLrfl2XbPy+t8+1ced13Zt1+zVd7k9b28kukC1q+8KahSr2q+NsPgFI2KjjaQVeZNxbbKHDUXVnpO5wrKDf6PMZEQpMo4NYoejBS9llkHlxUdI98sDF7AIY76Mlu6wxw2JJ3Nl2QcAt6w6+R5bpjkLRyt0z7Ed293O0ZvK509FGzsdD1L97eteaiGcslIv/8692hCzx5NzEw719K1oCr1quZr0w9O0a+xGa3v1ifqouMR3ercGdePOruaqTnKTJSlwMI2WIFcIGo1ih62FF2i6G2lFjpDA2IyB1WeH/iBp104R9+YByTN8huWhGc3orcYaKN0stg/SNLe9gzvbn9jHHb7SAawRg4o12Ds7n0IP1wVvCbkYY3PiHv1f5cwqUq9qvlUQEvy/AJFu0xsG82cZMx9Hk/w0BwfNimCHsUzjTn+KZ1EnmRgJchOXFWuSNGZgX1vADxP0TGPpMUSAsUEXy+8r2BsEzKZslvCOfpC2QsUVu/0NmjFipKNFx7aljg0QHzezP/KbZ4OS3Au0LyAqlzyDSmPG91pJ3+tbZMJ8pcPQZV6VfO1GQCn6He9m8SOPk+KBh45AEXTZKWH2Oqj8QUlLnxXP74u4kQja47Ellh+HBMHegwUfebidNx7NYoejKJDZbowWXBSZGTJeXnSMPA9i4nRwNFwY85EX5tEl7Dcoze/vnx49EH81fV1d1F3NQMHAtXGQZ4Dpj1jeLYHH8IeFqXtu+P4OD6q1Kuar02PfkCK3hOfwnNsPMHw3YumrXp4AGEnFSrhn0KSzs2OulH0Erw/9R3uT7Lo2Ob08gUQCqelXe8OFFQbXIzWLjP4LVxgwYsdtvlR9Jb3If+Z4RV2kGiwJ7ZuPlk7vfX3aRUFjwsxT+ubSsWq1KuaT6XNJM8PUPSKGgFw9JT0/7FgEbI/HFMD5QTUDsc7kZsvFPiIL18hY2NMDSPxotS4MVbUHZhDe0ZQGGtBypdK0TmLjm27jur5G+uyPQUjMVqhc0/N8ghFgyOYjYILrtNNp/Y7BUwlAK+kl6+YRcMbS6kvXTKpUq9qvjZ94BSdf8TbFO8v7zMVHdNVQJfrJ1C0ZifLSR4FYqbISmzWK5a3/eSHWaDAiq7ARzFfpNjrn6dI0admU448Wq44ZCdaBB6J0eKFN8TdzhuFrI6kzmueOJZwVnCEKF4cSHzXKMZYRkNXPXsOO8LB2/cdQZV6VfO1GcMPSNEWbEW0Ahk190Nug1FN3v0s4cmaTCqXxuJywuq4zxTqHiwDDC0rtY1Vo+jP0UWf+UOZZ+G6M6ozo40kbCi/JYMQo0/pPUp6p3g8+NSI7DcUCni7gNpv4i6F7vEsrt/QwTlzx10XwL8j7PL7JjFalXpV89UNtHjtByha4w+H08uXVhG+vs5P4DJeKcjcFKhR9LCN7gRFx5bW8bH0Gs2+Axd0Ft2UQYjRHZ8Pg5ituOg0e8bmax07Ly22bZqvqd91BeqEeR/Ywmgurf3piarUq5qvTYc5RWcPeJui/eZ9nqKj334+pzawOlEMN1iHyPzUjrOpfDWK/hQp2hu3p2g/cyNxTrSegxCjOz0tJ7v9RvMX6rci9U4de6TQscH4sJGiwSPgTu1Jf6SbFWVVqVc1X0Uz0uRfkKKlAx9Yon9UcmI0ZQR0486WaPrRp/bgDluKzpauzFtYcySvNT9dwbKidqIg+FQx+nQk12QM6k/pzted9qXU63805x9Z12p9min6TOe7p2grFYamSr2q+RSaTLMgRadQvDVyVFv9JthDT1KdhxpFD1uKThUdHn8iE+5VPQaJGH1NX1wDMepo/VRZbjeHbn9m+kC0bvMVBe6JBkreWPPWWXdytcAl6VtCNfWG1/MMQuzUoDpf927zHwQqOroD2FNJI5rkaqptfEwlpQtN1tWpUfSHSNEXqkrLuXyxNtqKtoONYPxIMRpkaHHys+mBEK6D2ZIjnA4ueo73W5B27M+n6ZMtzaBpDjlq5jPMsiraE5MrqfcUf/Oto95X5hMraxlHKbolYE/KflCy3juRK7S/OrCwSUuoUfSwpehU0aHmqyRHz+xEN/iNuYmS5EdqozfdZGg2+r3ZoO/lEL3tD/jyrtzle6fro6aOrWAR/82s1ZY0VdH5eiX1rsiMayjj90tlvs4tw67z7PnuyXDsgW6w5WAQot/ZQ/V8aOF9nYiRjmlH2QfVhkEFG2/Fj4Xi0pVhS9GJoiPMO/yLRqrwd+wzNE7+OMUKIh8oRhuNBsTiAAvxkR47YC2kD+T0ZNOjnGpgvyGFyc7JtpMf9j5GX0m9KzJNfoasncp8D3QCFR0PgNdnUX+jUNudmytEUnT2TH+TFD3hD6QCJxezBA7gN6Um35V5HB3WVE3Dr4D8i7JsaabJ6tAkFO9Q6nVFpsSfiIwWtbxwyXoIutYaHCqpd082IxbCqHBlvpq6my6hFN2E0Iuur1W8v7tU1htG0SG7AH9OzPx7d5GsExi2FJ0oOjZdKdq9wcAPbB9d+KeTeIcxFxI/KIT+g2KwQaeDHu4uIONLXlexONMWy3TeNLpK6vXipb7MaxeEynwP9Bsp+gHw+iw65Wrm+hodEona3t0+L8M0L6NoA0h5NdW8DSirHfsuWWw2bF10oujoYHEXydO+yMbD2LswvUHKkWNmj6JcJp/RpZU63dNufvZ12LctT5H58s8+8+4+8c+HWN9h7aZrQs5MrBh2qKZeb36bQnCi/lfn6z4+TtFD+Mr4cV00eJ1u3CXZMqNVtCG/aalBB9dFM4reT7UTOJL2wDLYMUqPxEdI0SvmwLNT0EWLgA+l6IvCa7p0X/MJe13qUy688U0AYM8WCugG55tcJ5yv6zlnp8kR+qAHY3PMnmPTGAL7NA1VlXpV8zW1J17nv/b33a+sKz9P0Xt93CDezJhPVQgmvYbWAbZEjtETpGigac9hRlvn+Fp2GLYUHSs6tvx57MbRgo+Hz6Roy+/BXmEqs9mDh0V3l5eF58J+veYa3FTR1E9i9oS8LHbaGrYL8wWb61y4aS9rvkND9dS7uB9iDXt9vg4NQxGk6G64PaHUvMGgxUk2QI52EDByRnexooMpO3bM6mNZ6uCwpehY0XEzu0rRdJ2YibPRk9Lw35cQ/Xrj33BdN4zsw6guW/01Lyg5LAptasYc4jKXtyb86MEVdfKGr68PrzIEaql3CZjG89K1+TpCySl6CJ8aPy9Fa1qNHhHuLqg5wugmj8lsN7rTdMvORIoGRQdTduxukO1DpeiOVtFM7F4LcuGQKPoQsNVnsyBefxbdQtnfld6LOcY2Nd+MXAqcQIReJtPHnKL96FNFFwCT9QfTMgSqqdfzNNO8HOMlNdX5srraxlCKbovY8/Lv9SD5KUkayVxTn2CKBeSg1OqOUfQVXrMLg08Zaue9disTwrCl6FjRsekqRBN6FGwZhkTRd99mwRe6J7m7kLR8eK4wqtfVQx4J2FMCm4UT04kuwN9Iio52j6AUBekUmIZINfUGwWXsggV+9E1Sna+hgZrLSNE14Lz4kjcl3LpX1uz+CMtf07A1bvNMcc0oenW0bfjFnTbwvW9tjkyQLoRh66JjRYcb0Uqnv2zhZRyGRNHzyNTEnSedqziG4tr1ijxKyVsS3X0dxPclWLSlIjSUFqVo0CnFZK5U7U9nqqbeC6j5A+36bIpGRcdAnj+438uMeoVOgfu3myec56KMopvDR0jRAe3EzqyQnnhSAigW1WA1A8VyXGymnCjMZf2xNFtUD6zsJSQVyNe7sXyz5INoarJq/kzJWzPXl1tvHjaCaN2pzpRds/x68lQXDYAxWVplvVSulz96Uk3R2unOvvzoif88a/J1Rg6l6M7QPaMgm9lxShWDCD0elRg6fbGqUfSwpehY0XE2OL21+LM8utcJC9dGTUIJ18qEOfzo4Gdn5DPw6RIicN5fpDEI8m/VfZQ6jjna2pC1va5a+py1EARZ/LHYJJpIZhS95ZtdZtWJUjR0M+AOBbLLGKtAoJZ6T7e1HZt21+arqLspGSm6CaEXXxcnd+KmJ3p++dVq60CYpqpLNYoethQdKzquHb28AVIPFC3e4jlx92yurZjO0mBTwURqXpl0CxuUZTuUxflPLN8884+8sGd2OnFQrDM5d/pbF2jpXDg2Z8IUc9xMJEVH7xD4q+vJFHTSje8+OmHH8alSr2q+Nt3gFJ3KY21K9pwXLTpiQEO7YHzngAidAzv6hZFUAlKj6I+Qom9N6oAcELmTc3mGNHdd/cSh6xI7Z6VP69g8/TQmTpZcjHlz2kqLkGgzi/V0ObcJk+sXIag5BEtEVlNBigZlB9OGgOsAcDPBypwydxM8/cv+6MJ8RauhqVKvar42jaMU3Qat1+QtbLNobfMf0tqd2HP4sP8qKTpWdEwixuiCs9soqCrWGppmrclwGOj8+rJh+YeRitsqDZvSVYEqJct5Es+2qSV9miWSovmPnuuiwd7jABf3FPQ64CvQY29/YSPItNyXRJQmbWRjVaVe1XyyNqrSkKKrkBlw+l/IOpeK1t8gRceKjtG4M+y9WSfYdcIx696Oycdemf8KXffWnOwsh6Uf0rtVyBWfLmIzDPnVlqkW5W86L3YYIJQuStFAyD4IAGdyndrggGBC7Ok1WSElFPuW6OdSNCo6PvoZVKPoYeuiYynaU/H3J71Z+75m23ZkVpqZLbR4ZcsAg8Z3woIyI5O7aUBw6aJQSf50kn4T5dO7nbkMjJPnOrDiKVeDqItmkjMERtE2eFD0DifNACdMnmjdmSv8+SefS9G133UvujGoi+4MtBpFf4QuWls73WDwLt1VJPkWk5Uf+dTcmeWvtQNtntmcEZCdp/6RhUqL96jms970Xsj1oOHEYGa67gwUy1syE/OWpWjC3h3JlpgLopu+YLIiFv3c+J3vLsishEi00hNiiQmG4qhUFRiq+RSb5dlQ0dEGrWHmVaPoYUvRsaJDM7rOF9o9zRaOVLzN3YizZtJnQ9gzhcNCyRgwcBvqanX5wGY0YymZvSbSIOqik4WcAkXviL82+1S5pA2/M8K9+0WfDNnfVnO59T46hLE9jaJR0SGgPKDoWe13q0bRM/im7T0QFX9Fhf5tClYGHPBY0aHtOiqjvWgK7+Gb5135xjYN9axI0exGXmBD83oGeS5IPXX+BJdWuafwpvPXzJHxLbeKR5SiBYre6NAFpugAPv8+RUe8vSAzhUxDS7xVqVc1n/SuVSSiFF0BzBCSdbVfeIECK3puZBJEn7GK1sTkQv9qKVozRaFPrKU+fhCWx9fnbLgKOgyFAC6PQfhsDAdmGLkyptbd+KvNPGpl/VFbFbvoUVBv7GL9pahBEXXRAkXPyNlg2wlcyNE451UjjW0NP4OMjmVpNSNRpV7VfDVNlS4hRZcgGU6CTpSEsAIFVvX/mqrkWizea8hqyyTiYgcK/ZNSdKLo0G7dTFeP8GXfR1ioaWLnxFRpzQKq3FJTp7qfWrFLyx368EMa17yBSUqz4o1VIUWvgK4pGxGjg8ZpUOkIBpwoo2NZWs0QVKlXNV9NU6VLnKJR0VHC5e0Jp+sRRLXjcRY2dqVAgY35X52h0D8pRSeKDm3ViSEW6XboDw5u0rj3DW9gFPnsbmxsHWj3tRaC8mRdO7s4VxLKG5tjGSwCWgtu0iHJXqGL1k77/Z5J2x4cm3XskoqHnCSjY1lazRhUqVc1X01TpUsoRZcgGUbCX6KNaP7wL1DgMPov9KLQv3qK1mZdJgxtpTk5oU9V0avah8uCqE0TzIgHnu4sMLCo93R3o71ZVXGKtoGmZaFCipZl/Z40GR3L0mpGrEq9qvlqmipdQoouQTKQhL/DQSeXpiUPrLMFChxI/7NuFPonpehU0aHt/fZsNephR6mov2ea9bsmtlWUom9kdQ+8P7LzxrUvkStfsl3ToOIla3k8guvsY1AxjApdtGLtH5pNRseytJrhqVKvar6apkqXUNFRgmQ4Cf3qot82LhWKThUdmmaApVrL4IoeQluWZdn3/i3W+ldpCAqVXkhQSJGfggJj5BMKql7dkeeIUmcqljF1FcTXRsm3V0V9KEXHQH0aRbcXWxSelpZZcOlKGTBTTbYqUGC5njenFPonlaIFij6ZKnOQ4pjualoHsUg+vqOBf+M6WNPPX6k4mzKFr0KYMis2Z6QtnHoNr11BqQpN5LMsDheiHw7HivoiKZrLZbB9YRRUTFPyjXzYmYyOZWk1w1KVjlXz1TRVuoSKjhIkw0nYqpkpFChwOP2Pe1Lon5SiM0WHpjlm2GoMI//R+e6d7k1MfQqStLIUrWa/rToNuCSiaVyr0Rczc130rE7RkexdiBRdxK7yXJV6VfNVNiS5gIoOCSgfllSgwMH1vtA/KUULUrSm3VpJxdb44YWFO5CJvUvgO5qtJkWDg1glmI10D+D67Kr56mvhV08UhlA7XQhrvFlAKVoBzTiLKvWq5lNvOTKEjPfdalOs/7yo6OiMaYECO9fzrIKF/jVTtLZZqvfFO17VM8tzeoyimSOhBWxCFyul5TmTVFWjO8XZR+3e4GUpaVfluAU90dGU56zURTtTpolZwO41c+7U9cD3xjwxFSj7RLlD+qU3QV/et6elypQasrSaDqhSr2q+mqZKl1DRUYLk4xIKFDi4/hf6J6VoUdEBtr1jQ3UUnr15nDpO96S5S5Mn0iijKkWv1YRtWNbHiTHpxWNHwCNy+VF+20h00XwDrwXh/u3GXLqG1pewaRaUnq3B5y0gcqXsQtspgsdG0V9pGR3L0mpaVKVe1Xw1TZUuoaKjBMnHJRQocHD9L/RPStE5RQdw9FpRNPY2PTC0gNhezYnQlCgpRCyq+DmwIw8ra4RBaBrfWvZU3Hwxv+sKV3QA9zIitwn3Er2C/dZYl++wEJxx9gaE8S10zaAH2Iot18IHncjoWJZWMyRV6lXNV9NU6RJK0SVIPi6hQIGD63+hfyoUrVlHW0U4tlzbU8mnhskfGDeYSnLvUVcSey/RRq/NrYcq/vWaq0lyhMRgqGzA/XM+RFK0oIumfA3OiICXjign98Xqg9vuI3B3StFkVd7JMV/zgM9kdCxLqxmCKvWq5qtpqnQJKboEycclFChwcP0v9E9K0XlFBwzhZLt/jSPZmZyKGvM1ZfAM5hRu6tqaZ6h5uoN9SpoqhetH5R0K/I1CdcpZmOQLIdTHhfeXqIvmRO3rTNW8oauYoh0+Lh0kaFh1E1E0eBc5s9nFjzXOk9GxLK0GXlXqVc1X01TpEio6SpC8PMFbLZytM1rVm85Wd6tAgdUZ33Sl0D8pRRcUHaynE39S32HPaG1BXVGhRc01BB8sSRYqjt6uZOTqZU1vsfY/5nBOLWyUFCdqdTFFRcSnl8JOxdH2sib/0Ud7FxKmhf9ji2siP08uN0GhoINeJhTNFB1kNuvnZag6gj7zyehYllbTpir1quaraap0CaXoEiQvTfibbwLqm2tzHPjUPE6LX6YqnSlQoEqRl+Yp9E+VorXF2q2DYxtsHrWHTmDwFlxnfGDvhE3z9qqh7oKK9paUrjyeVSTyqPRUPWtlc9mFlPCPBVVHUYpmXAymLC4sG/fZhOU2+jhwqXPyYR+YNbw4Lpyim99HWetDi8noWJZW029V6lXNV9NU6RJSdAmS1yX8Gbo/1n3TNyHAwQey9mdO2w4UKLBt8afnL/RPStElRQfv1cQ8V5H09jh+joXBiDTqHM7M7GPd6PkIdkFUxnZHGj4ZlGuCjF6qNlkVVB2iLhoUHTr9S+qNFB3HyI57xLynglORGVkfTVggaaiZIiZ1Dewoo2NZWk23ValXNV9NU6VL36fosA7XzRg89AbH2WQIK9tLkCcJzloPmC1TGmgcM1taoBYoMKl/MMdC/6QULVF0sP6f7uZ6UpbgVlPz8fUqVfhcm+b4ov0AG6n81LwBbdoFz9MbXwxp5sbILtsgYE6Oov6sKEUDDcfB4C88I35ROD7bt0VbmbrOOrZQf9ck9Q3oKKNjWVpNl1WpVzVfTVOlS98mRW83wHPm0YZ/ASV0PREf0NLo35gwcillwrMsjJu0sPl+Fyhc8kovAAAgAElEQVQwf3EAZ4X+taFo6P3W9o/TXUbToWOs/WWPZsQRQiMncaNhmXoqW8rQ2/t+yNKNBlXHmbR51dq0vyd1STIN0JGYDuttFCIpmv/oiQ/WHIXZxCTbdx1ldCxLqxm1KvWq5qtpqnTpuyj6MCb6+RDGD57lXEF1cB/iY3haJiIzHAv/cVk6aPEBUKDA0j1+d0Khf1KKlis6op6fttc1aISOtgvvXd13b07vt/Tgwk3QbyFvcEGDKBI1X/hrBbHXf+9Yu5MKTLEVStae8j20anMoX/Rym3sdfLJMX3CiFE30HnUryp17Q0YZHcvSarqmSr2q+WqaKl0yGSFk79zS9Zcl9LAAfAVzHvf0aeQ99y5rYqpIXIGu+73/q1yOsDNNoITa4FcWLt2SObFHQw5G/vfgmmZQ/gcTU7UhXDiHycFZhLW5Ol4c0dkKnHQwWzMWDmRc+YYM15FBG2QLxzUcfaPt1tSc+tN0ONxMg4+E/QltmgrSoi76WDnGtOh3RPKPXzQmWVrNaFWpVzVfTVOlS5yih3CvHqforU4NycfiJFKrlUaeSwCrq2PvodJ09k516cbxOc6mR1VZ8Ukbx+Z689hJbic9S/o6aXoGGRjcZUTuvvV0Evno0Jbx8g2wYqh6r49MmsmewNGGvAenM83pgOW5cqnLbOoul97+pLTvOAjSxy0HOFN0cF1z+7o/sYSMjmVpNWNTpV7VfDVNlS59D0Xfq35WIFyfm9jOSgxIp/AkL+BHeAEz2YBbJJUgU01I6ywWuCY+xup5j27yXwTFatLzBViESOTSwaSZ+jztq0rkMplMQ5bxFNlseIe41LXRiCLO2Pawo8x/0ORoJwUdnd4kz4w31XXRjsQ6UukCm9GYzCTFk9qlx0VL1pBWwhIl1tghm6HxN8Z2zdarsMdv3fRKrKz+8y7IgJWl1YxMlXpV89U0Vbr0NYqOO1mHpdFFCd6ZpL+9iiwJne7ZBtBnHYz/zcAnftufWa72pM5cIpxsdDWKJib3cFMs/vXnc/bmYp7aTgH3wQg6XycatKu06roDQODSn73lwNw5CfBeD0qqpkNA3IJS8EbpNUwKxcf9meilsoU8klNY4idJbZ90LthC8xr+Llc3fuyou7zUzoe2b3LYJYCOPZB2cgLPp1F0P4/GY/fpQUXHlri5W5DvzDIRkvPJ2VlCp6uEokGOpuZjuCR1Zq3w2IwxkGL4jRn3AkAB3TpLZt+wI3yRHHhhiyXXp1E0d7gJP+JQ6MrEJOZNWPS8mAZEYmmz2BB63mYKNuuyoeSczFgL9TVGRy1po6LCP1qSR7ZHm4fN2vTXGx5tq4apaOwjksnSpsTUiZ76M9S0llirSseq+drg9iWKjj/KfCdWB7tmYoeVSuhUoOhruxn5cttJnbkr3q1xolCgb7NHY9lcN4Z8MmaybAj/e9E6Zu/AKdr2dUp0vUpJ3P+ITvcx/LLt2x3CzYYfSsB9KpcacoCTdfc6nUzn0+Ua4ueOMuqmF210uRbvtgE9Tj502MO3NPBPSSAbYrqw6a5Osx5/GkUXPt6ygbww9pAU7bkNLtFPQf0zmdBpqugAgrBb3sYiWEmdufSDQMAq0WWu9E+ccIrmI423ldpyinYjuKioC342HqMbuLRjRpHAwbdRZWvh5Zy8eMfLQyZRVxaQX/ijPbyRHclTOy371zCH8JuXw9B7KlD0VqNnrsBMKpeglFySHVWlY9V8sjaq0r5Dip7nzYwkgx3Vq6MTOk2l6NNJ89aKuxpJmmNJSZ3iZYvjrcLNcR5dxWJQbOHz43KK9rz9fk0O+/DFAwQfV7vdolnlZf2NdqN9Z3rmo7qm9nydBwmySPlzcmqU6ntQiVeqb8gJnKJhgTubY0oCUnSChPrxESn65BedLpbblU6ipNkSOrXIcb8P4FZuTOdvTMI0Q4dIUqdYFKZsYEmtamA07Zd+9ad7xw9psSNvjFvBOGrdMmnmCu5KI5c+4LE5AKsE/vWQk6KhDOiiH5rAfeOglZo+mXrzu6C+pqVsSSNSNFd0UFR01D88DVcfoeh5k1cFaHtVnkURepTSKd8aCOZbtuzr9irkaB9N68yKOqzWlqGk6rg1zX1m7Q0xZq1J9FOxONYxxhYgE/+CbOIefTZdCDltOJxccowkw3PsY3OIw+qlT06zC6f6drbSj0UZRf+SomM50wkz0Mos2nG6sP45kl59hKIDU0G4OtepLVI6DWeGsWS1OcvrXNpR5cS0zqxEwFmpFUebRSX6itLdwnWySj8sdgPFLu/ymgS7CY09vN3oMU7W/nxf1xlz702+ym8V0CAilPDrtT63Br8fDfd65ZtlNYemAUVDMnghOWgLJzJS+SlFx1IDvSUa3TU8PI2XH6DoUdUar1yjDr3nznMnFqHR+m+mgwCGgD+PrwcvmYRwi99WBA2ipV8Qo8+gVVvXjSU3sOGdLGYRF+8Im+K9cgtozdKJk1D08Lr8wh4dEwPDLm1a49h9SKEwTBfyuc7FQhtp0WuuSNEX8w/82lGl3cgKtQ/+VKZ3lqXVDER1GlA1X01TpUt8+moIHz0PUPRU7fvXP5ZGnyZY4B2v91B6DPK+RxW5Ws/rJ4HZVhOJhjodiiQS7i6TuzG9T7YLkCbeHayIi898z2mPcg8xN9BlIEXDnQmDZJ1O+9vkHSumG6cG5+U/mMNYcHNGUPgXfvMzWJtrUrMkVbTvxfBKkNnSslzYN8PJ+lb6bWaXZDFV6lXNJ2ujKo1T9KNzFFWVt0l/gKLTPSZq2/NsWq0OkSglaitTuViqs4smmvF4TiW+poblV/wUJb36m8zWsd1Y5FHPPBrCQgtJiacnxVxssFVCwBVsBSEI0TukaI48qHmqrftq7423iRAtZ5oaF8f527NZ5mQtTlGKNuDpoFtPj2dyy3V8cAqz6AhIEIgyAFJ0+xv6AEWbNeKx0JG6vYdKdCqU6xot1Xnm70NF4TnLpptCDy4gQF/JWkipie6WTG4fn6cTZ7Rf7P9Gh7kBM3GEuPc3vpWLFA3yHIzI2ZIfNDCU3LyRrzuS5Mak06ZyGnkKDkO8EZekqyn6YB40zf9Sir6weVg7mgPhSLakaFNne1s2Byr+VhtvmVqGL1B0WHkxs3Lc0SI1+eUSncqztUot1nkCbuwUUleS0PyEHhYUtipqDuEN7u36ljiqzwqsLjOg6eOh+psiy/uMWEzR52ihBmVL6hJkblF79zHTv+9A8+SyJfDeOWAfEqcpxA+Qm2ukXrmC5RkoVNcJHN1hcNaxmnWm1x28n3f7vXPaxtOJRUVHtPUV7NFS3a/hXdnNQpVOgRQ9Ya+vB+yir76aUzJ/ptKhdnk4Rb9RpEp7212K3ivOgu9q1ANFOk279UCkWOeWY92BpF14vNJgwYZyCs/BakZpMC0oHNNKNAfMkMw5UN4bQkzRW8JMbKYUdjEFK/T1Goxd4t1kV/DNDf2awIQt11QfwXMrDHnO5sL0M+zRzWZ0uZbkDb1/QZMLs/1sMBjx3yq7NjXC/V477ffWaZ9QdOE3fwjYwzCLrRsraxrUhZ2uYGwLPQaKngFF7032VMWh+n2W5BjM8QsoelTzcIo41+Ur0qlYrmu8WGe60UpbltaDXBcO5zB3LjkJZ5RsHMmFLOk0BzdBgqFoduXZsZiivYCsrR1N9adxMrS+JMf4k3TBzHy34Dl7Dd7b5szPHafoB60hnz1A5l1kacDfqWEYNtMAa9UvS1lnVmAQHlOp7LIk7aDXyB/M6I4RsBiKumhtAPPIYv8U4vDs2NqfAk7Ehl/cVbtn66Rau1FS6M7TsnCKrhS2ntZsueLuUvRCUebY1awSL9JpuX/tU4p1goedjkFPnsPJQaUb4NUY9mFpzOldTLLmCsrGrH1mOIBozNSeYP9MQDwGHWEUUopeUTf5JOVrVWxY5OmAB/qMou1p5E86KTq4I+ii6B7EfRaAq+Glc27VR2+WbZSiUNACe4xRkYSFcl+5dAVk6LM3kS7VEYbOomQ5cpjqSEQIpegCSAqn3Sk6VJSinRpvd0U6VehwY5ZCnSfgo44hmT/aUpXZnL81TL419o5lON0oWb5afLozELj4vtIJFdytHmO2npGbq3OpIfKrOSNgiAB7WicUPYLySpbwShg8J1O4Zl8+q/2M8L1zzMqZvKrmDzq9qt4Z0KCdk5e4tD4jiJyRCn/zlpxQ6jIeLzTPef0rW9rj5kTO0LDQ4NKcVUbHsrTmmt6Sg0vRBb3UWzrSnaI9RRHlQpzKkRXotDJfmwuFOhcc6k4kHe9aAqqBaejeGvowp4pfFaye0CbjZnm7ocWWl0EvGj9wXhLJ1cA9z/N3UbTg+0z+tC3oQ4CivUjRYYzqZMZcZeonK+MM5g5WT2i40cs0NmAvPAoqnYI7409Eua+qEDisNrf1GVf3vCdSOCvqiqYgQPgLzXSrmhlY+onJ0PC2V5lPge11bViO602EWdhPo+jPVnRoihtYGTVekTr8hhqf2UKdE9qJnlmho8Ebu5PgNGt4H52Ac/8auyZkmNBXbwRdTycgMR9gP272SP6BA0kICxIsfLCenpO5BUoQLlELA2gX3d60i67TsqoX5iiJPtKWPVlNxRQ9I3y9XuFRUOsy2PKal0awzoRmG3yrVSzLdSXhTvcXH0PR1viqgVRXfNPIhqaRWQAqtaspKkU+jaI/W4rWzsznTnM41vz6Ov2GGpos1HntzNBkPGNNhTCBDerNxLJV2nrokpkSGFnp/bj1V3hW+Emxmc8qTgzZYftcCr9F5mmJfdj+xW49OrW9MXdUPwblF92B3A7AUYkWvFPlcaHTcafFFA1aaGYvWHgUFCv32IzurUZ+8g5g7HKuyaDYEGQzqKUBR/ufIkVDl+9UjaGZRccVfjjmXfhlIEWrPxtJzu6KDrAVFr5gkvpKRyuSyUrpPKHbb0heV5JaqHMa0LYhIfWAW6uCXhPccRY8diSNRcd9UDMlms+anVkbyh1HZSlvj0X+klaJ0mGy4dOkW3s2Y98TDZ/1tb3fmAZYlRduDSvB9g0AjtoIyxtqK6q5uAITQRPkgcVxBO8TpmGXtFdTPrvkTcagrpc7n7UOZ5/os14IGsztwH7N26UOYbMuDDG2uLOPi6Pqq5qtLtSIKxA0WnR0ua0dKfo0Nf7Cskwk6cGljsi7/oYk7aRJhTrb7FmYcHNyZHNPC3A7dCB+mNZfjvyZVMnko1DSA+1J0wd1ocizT5/WnY05BacghVvDRnNgL7edTnugaM0n3CHRSqemzp462N84mfFtDdxoBpt2m7P5SJgQ9P4OBsjP9DjJ0U7ruoUCI519ijqUPWlDDzBTyF7eoapCDyj6PiKb0UhAq17UGRQCJmOBz1V0nGAzOzLZpFZpNdi6Zef4WW7Jbza72DFWqNPgUCek2+ross/PkX47mbWfdiuzKxG0NQrriMgAih31DVNrl7+owMfrnsuRPXRyG6y5+9QdHPk782qOu5tKeDuDbwrmB8fNxrWPa5MZK5rni0Daj3f6xEng5ZvadOg4MPRMs1q8xIGieRD3HUOKbo98Fyna0lYgEq3nW3JrvGNOrZ1WgU7bd19SolDn/boYtQ7Rr/AACziYWeeE1u0uA07SVBQ+kp6y71xDmv51ibAVLLG0dVDW6K/4poM7BSOuVqA0PpgKtXnaaTe5btwAhHJw2Hac3bZDkKoUev6ELNza7g528sqBLKfTqXGbTgWx+9Mouid9ljJmsowdKHpEzg6IRO4c/CeHsjrFNBfmQ6pDgU6rM7a4Uqjzws0TWpTPss5jBfQfMwurCp6rYiNaURq8pL1lpWFFd56YvBv9LrvVwOp1l/Jran3CJdBFnbU7aeNWm4yXsyi4MJsRBRUnCk/ofZcqP1rRMYKVndswmGq72l2vGC6TdKGxFKUCnUrztE0s1Lnr7qHmZmhO43eCobiCRz4M8AbP9Hs/HLwt0xx4YR8QnIVFIlF0M/CvlNjeCJavZMEyZvDetmAVu8HNhJxz358YWVuqMTBrOoNjl1YChaBhhG+oOAz8fgh4fDRFwxwarKpm/nVhV01hUOXoQh8LcwXl6wU6LWfokFKoc19j81dfu3e+wMxT3UcAlN9mS6nra6u4upfvqVSR+2OTT8bYDeGNXRKlT2xWLtSMaMnJg+Pzp8W1ItfuL+gH+6JW/ErYq2RNxOEf+ObGE85pIGTDaYtFUWrNts610GcefHDX/9oLtXpWEsgsiTX8mgo1vPWUU/SHKjo4cCv+3j9VbAkUYxsGuigelBEv0Gk5Q4eUQp2eHnaohBcZj85AwDM2aVgVQh/45aGwVbKLeaiJARRmXvPGoVWemDiQ8xWu9GEXDfsUlN4AW2Z7N+AwiSbT80tX9lwdsFq4FDRtIfEdk+1l9t7gMS1HK4YW+vtBGuis1x8uRZ+sWDje+7A0rCqE4ybVVYFOqypqlV6sc9N1Ms/SwWB1f4h2+avowrlmdXtFkWLyuftsY7Gq4Z7DDj0Xst6XZ0eZXfSErEW3791HUfTGDB85A6dovl/WxS0Y3UWUNqfsE+AGAC3e+xrf81+Q2Zmh2+773f0B6LPkR1P03xk8itnRi32h0zHsirAJ8+gs2U4Jeq2tGitQpNN8Jd3OinVK/I2pVbx1XWKcgjr9m9PDb8fyzVplkFpnB55rA+qmC5EsqNwy38OwKWQfdtEfKEXz22bDnuy5+xdRtOWy388UZuatt86ywUxhCN3bdZfkP1eK/lBFB+x2sx1tbRrZIiwCtjHCOv+J6Z0h0Wz2i1yk09yD2vGkWOcu6FaRdz2DN55b3W5Y3rq7FiXtlHeh0/TkWyMu+9gC9Spblp0LI8IgnPDNBHIXupx8oBRdGuZ+HSZS58kFV91sVWYomhaXSjw5gdtyPNaGDa/hjwufLEXP1xzuNbziHw1FOn20Pla+VKf516laz4ftZGFlRV7AyVV1qbdXyeWtOXFVlgDVlP+AS3fuz3UikQa3Rgj9n8/6GMTn6aLLo76Qi8emoC/gcmoOSy9HxPXs7jqGcgMtU0bclkP/RJJtOdJC9s+maL4U5GMo2uhm6LN1x7Zml9fDZXfSM3tRUXhOrKLdm9FObS2WB2SdGXgs5HP5i+eqdL6BoldE99mbf0thAS/7wtgQndTNWD/3xjOGZrYcznObGWDtnKI/VNFx68/EsSTx9nCrSnX+dSPSIyhyVhR+JCeL00u5a5cOzpPKtUDKOhKjLyTgmx338HkibWaQiV6PvfoGRYdmBGO+4cI8GEc+xZem/dw3W80dgC16OEP/1CMZ4fHJUrS15VaOTlhzaxUvlehUsVxdtnKdmy4P2IIRu7d0NA82YB07shbXek8/He5LiM2n1ShVZB34nLSwaq5p759h3dl52guS3yBFD+ueHsDxNsjQXX5AwxpI+958MkXz0fYj/JTptD2UxRLlOkddxOjjMYxrniyP8KlZNt0blU3Iin1RPQ/4lOYXU7RL2acXLRr+8IUZ/KOs45xuHuAPoejT1imF/ECGc7Zn9tC/yNAap+gPVXT0+PyU6fTxyiV1btqbTDhUtOk+3fyC6Sr0cwk7R/UUplx+/mKKPupsFV1Qni4Eozv2Teb2Y3RX+kUN0i76aq7XYKkq/ifuaTgH70NCqJ6Z2MIS8StbTrKbGecnzOeFDE6vzYZvPf0cBlHNx0vR/aAoodOHK5bUufJLv92GZsD/qHm6p1KZdfNJSc7rcauMPbdG86b9fJs0jO0dl698wktya7w7qDhOhzHto1fp/UorGyRFSyz1xZ5z1U/id2g2i7b8TUckRNb8ywTgY9tO+r0/OyOd+064lL8fhT58bxQpmt9byW/24Xsuq3Mq7Hit1IABQvQfhVUDECazo0/WpQd114/FXdSddWdPIkrDeXumE5txva0rVvrAtgu92CyIRBcN+WMoWpAhCqMonAq30trv90f4/LiR+aL8fSJk7BTl/qGhZO/U36k3ry+Eig6OuYxOH70Z0jqP1Z+LsvYcnRy9DZ2xa2y60CwRNNt2rjc9B/uVsfm0aM7sW38TVkCZKyVJCOcSfCX5mpI+xKKjQYoujKJwKmJgjUZMQ6T7sBgA3Hn0Grh/6Mm6x2e81+49vzKUojnGUjp9EH1pnaHptKh271OycJjBHQsVRndun4Lvjk3JOPQKzd3KvoZ4N/BPIwL+hmm8xeCuGwu9PkMTRfNvt7Rb1VI0mEzDFCxQ9Ll/iuYMPYefQdqPX4sgRfM7LqXTB58FeZ075jtVMYTmGnZ+DeoVGSedy9iKVTZl83TY4eVCmO/phQ+/uq8JtxJr2jDSJ4VD0RfpZO48qalHqpVRdBdFhzaaTgMmRY97p2i+pnD+o7Yc0b1FRQfHwSLU1/v+J1XLeVtTlaPDsXEdW3cSRHoH1tH9xl87vMfpHy73pmcPR44gk4MvOMbRfeyG/XB/+qrAvRZpc+pndXtHUeTl8WNXj5dZrUOPyShakJwLmo3CaWFw7GGxyaJC0RFCbusQe+m+HJxC4epTA35Ed9LX0qzqdgZ8BaXo6Oac3WPvIbeFRfYMHHwnO6mJrcYGuxowF2xJMAmoPjLGZsnzfteZXGFrvwt1jrA53FHgsKQDH3ssu4JdCQqilV8k8MkGXlJfHpooWqBrQKJa0TEDfwE6fHLBmnGTBl4ZtQ3zZgobu7jsEth/qG9Uf9p5P87QkV10/laUEX5FSoe9C1/RrWe04egqAtrIv/PGJ9EBpgsvO81ca9fC/iuMU3sMc3DXBHbR3pGYFASjrwkNFC3QdTxko70N+6eBJaPoLooOA9wFBGcYvRGsTXYshB2f1bDWPiOakLgX7suqkEly6oEw4q1+W4aGVyMzaRRuiwSo1yT9EEVrf8G5kVanZeONgLiwK4ZRoOR+nNCnN9mhFy2E7p2OVL7aPM35WZEyRYs7lYnxeFw/StGCuFbQbBROW9z+Y+T6hfnqhikOMvfGTKpuDCOdZTstVQSaxso+NwMqOt5x707LMgHn+vHnusJvJb4UGjrRjaAgRbvidnO5SjqdLOonJzvVOYRCZYrOKTpQio5ukqjNEONwNTt12eYZUTCzaJK0FtICZisXCdEwt5FQtPZXfrjLzwjMFPY5EV5u4ENSkKLfc6O2wabajCi8+mD6JgmhTQkpSCBm4VxSrE1S+KWmdmWKFiVnka5jtH5Uiha+qDNO5pCkpyPiR85q4W8W4ztq8PQszeTv+1iIFiha5YEEht54l3N+4kWl4LflQUXHm+6odzfLrMH7slj63Lu8tGOWw+QSMTAruR6DV96QpMfa31dVGWyRlkW6jvv4oxQtyLcFzUZ6CqoKxfvIczrMOoiFDRc8FEuDPbTtzQkVXhlRLT/3F6Xot93y02Rt3kaF+e+/u2vewkJibRejpYe1WVpd/NKvy3qKFuk6RgspOhWbI0TSU0WShVI855iCSTrTJ6/5tlpborIHB2foO1V+GcQ37RsPSNHvvKsjw/Tt22H3F1rWfnS4nwN/6TTw86kwe8K3Z+5xEH3X12PXHqmqTNGi5PyjFG2XfJGKfr5STo5wT09bUnTALBKYncc1COEvbBypoJo7gwf/+0+vWIlAh7+o6EiheE9kdTFsN/B93XQ3y0lRi5Hrk7EEp4+GW7Do6F2KXuYa/ZaTMkWLtCzSdTziH5CiJ7C5juiJFOLCMikt1WxEiKSnLSm60xO0PzAP/tHG0Z0q+J5CKEV/zL30KBNHwO4/b7DXsy769JO6aJGu4wfiByi64dFPxeYoX3ragaItJRuOXH925I172eZ68uYTpOg334C4+dDIE6+sVwf/Al4f74WtWwK+ZEuWv1PaKpnc6VR6uIXKUrQoOSNFS+5cysnRtfS0PUVbPqWOpIW6pP3mUHf5d66houMt9/rEJs4XTtb2TckNgcec5ha4nDnV6DGMlDrSY4MvqqpM0SIti3Qddwil6FSzESGSnranaG1KNmg91/FJRym6I3CPFbPB8cYddotN6dbovGLkTB/rSqH0Vt1/QqHksE/rKVqk63gcSNGZfTO3eY5d4sZ2Gkp3OyXzNKJUDDOJCCBFi2i8Ku7ZhC7JGKateYunw8Em58Ohk6Bxi7Zk6avr0/42QuyrS73U47pFX3YbwUsUUrQE5P0oF9KlVup8m+ZMI5JmMKkeAVR01OPzpKtnYpK1pcVTfcdoHrDBItnbpj8SsVcXcftZ8UK3+Iw2GP11q/btpXYlV3YTQde54rvO5kh8fH17nwfaAXW+TXOmkYEOacjdQin6LXfnTBawgtCKbZC3x6NJguPGqe+LSWwJSffsVGO8ru/E5121VD5OLiUGvwvr7D5v0M/ssTrfpjkXZIlwdrwnSNEdgXus2Jmw8pvM8FNFF71aUhlJ+5vH+pIrXeGSPZfng07+4FN9bY8USPo7vx2ecqtS4m2sPc25IP1+6zW2/EUZUNHxlpu5u7Fm79mntgpFg890IOmS+6WN3yO9bMUNBN4CTZ+NjmikQurzJdZn/z6zrpR4G7uf5gy/dM1qIwI9ZEApugcQe6jCCXZKtayuNChk7HXblSsJC9V/8umWBNepPp7WLtr85AG+pe8p8Ta2nuVU+I5prO1HMyBFf9qNXxV9f+17XA/owbYu3xTAees5VgR5L91g9ptALI4lI97ileK5es5iSTxPEUBFRwrFGyLngkukbl0Y97d4ZdfZPLtb159eag+qoXjPg+OyOCUobjD79J58TwPqxKue83vQ6X0kKEX3DqlKhXfK9xtX8fnVXN2UOM2Z1HLM+jWyVmv0ublW9j1qoH7xynM78VW1qxOves6vAqjfwSBF94unYm1borMNx7kDXcUikO1g6nqwLeUPaV9e/S39iyfWyhQtWfZdAhcTtFF+maF5VPbijBTdw+ODio4eQGxfhefw/aUnozZF50Rfr6nE/9e5L9l3+nWmURY3x+UmL2WKlqwpbHM/avJ6sD/v4XBI1/fXZB3+pa2bW2V4d4mZ7lDV8xwAACAASURBVFNYHxnT799G/en3D6Xop0PcVwMhCYBv9iYpzY7vSD8+nk9+0KP9Xl/jfqQelxLX0yb82+CVFH11PZf5jW3an+GRsb2s7Db/abXdBGa6d2G2Y6EsZvqtZJCXjeijGkKK/pjbtY801+MyRWsbWjTz6DSquURC71TRUAodyNqlG++ssw6VKVpV0bEvvRSbBrgxDWIfbrEPlqbcA79eouiB9/fLuoeKjs+5oUcyNoyASBTPi164wPLHXyZEb+lWW1K7iqLVFB0HnbZW9jOK3msWMT7n6aruKVJ0NTYvuIJS9AtALjcRnpmPu6XdznHBmVLwkFeuTdPOVG3li6xsmnbtzzIkrfO9kS3TrS+JWSFFq1F0oG/Mtsp+RtErpOj33v0vaR0p+i03csPlq2lboztrNJLPQK309cMC8AhUAm8B43mNOmQMOool4S61Oyk6rtfQHYNH+nbvUs0lOkjRxx4XFT0PpMaaUYpuhOiZGVDR8Ux0K+uO3ChpOpOlewnTh/ezOq37UWj3Mpy+KjGOTEl/5nuHlSm6WYr2ZoSaQQ1Fj0p7aDusxYk5hjan86945yFF9/U4dqoHpehOsD1aqAtFe5tJ9S/ec+mDk+eGsrXro4N/U/kuFK1puw1sjqNXei7xx6U9tOPFjG8a5ROalVK0Zcxgf26L7Uk/gy+V7dK49rJU9gn9//AqkaLfcgOPZAPP9oZy8U6xBwsQ6C6VJL3SA7kORLH2LcmbVikW+6BsZYoWLTr2pV1ZbDfyzu2sqR8vUCyPNt1zNb2UEVpkk51e+NhINiI+hOj0QIh/0ibck+BOW8XHjx3jgDuOio633Jw/k7KH2m8zybegtk+CSkkaOLaSv5vHuNDNhxi+uYV35LCOd/DLMY9QLlO0qOjYjosePCbj8kLO0iDSPVfTK5zBbPoH2pGWi0fTKgYWkVK0tuebBK0WLpvAduh27/RiVjSwsQ+gOyhFv+kmrPb7fbs5KFhNe7r71DxU9Nh44CeyMnXJhi4VDX1OMoh6LERU2UDR5Y+IcoHyyCukaJf4N1iD9x27qcspWovWS80jT9Cg67g88PyVgcWUBAGk6ASJwR+5w4PT3az0a3fubIYbBtQZ/Pg7dHBLbjCddwi40V39BrMFHmKNAUV7gaFpNjX/qhqvoOiNDw72wi/ZwqYATXIaUbTlxu+hAwnCKpQw/QEEfkXRwZbjQtBhTu2gR3FYAnKKk9k6VSEZbKZ4KOSuSFao5IEblBVdUS4/nyqXusG+4tcse4vYaky/c6rHOocAg+Vyit7NS6oM4YMkIR4BNqBo0LHewa6aCJuFCxkgWqHo2JgXO4TSs3zuzzwrQMNO9+swlqIBXcIUScDQ7T4KPxOLN/T6V6TodUy68DRdYoqGJ+0kT9ZaJStU0s+NbVzkfdqQWQd99D7I9lDsp6eDqsUgpPzhcSrqdQo8xEYAFL0HeiY2mN5V0U+VFM1bdL9jQX0BGnZ6IRePsKNtaXdmCoQM/bRn/lco2rN44BLoKYozTF+V/LT7l6/4dCbH1rN+Oz8Sz/NVfc/ZwjbKmLhkA19OQijwELvCpeibC7OwV1iHIg8VFH0B/QjYYwN3fUEoQMNOV0T32e4P4FTXpDQEhgbz8aD42vuCsQ9gCL+i6LjbPCxDTfubRXH4tvfkyVqrZIVK+rvRYcPPwCBtfyhz6jv99e9TajrCp9QmsvSIulzgIZbIKRp4SNv7tEq7VKHoiOr8kr8FaPipEYxdD77Y5sF4DO+6nTler92/LxnwsIbxK1I0jRQdbH9r+PBlgcK3qCVP1lolK1TSzz0/gC51bDb4mL7orXz0hhsyrpIQ++n1MGvZmPsz7KaekXSBh1ivgaJPfAeFrelUjaJCiq7K/pHpBWgKpx85pE/q9K9Q9CKaKmLzQ94hmjdizBQnb0EekCRX5K5IrqmklydiH71akq34qur8WxN1cebgk2UH7XVV25+TvoEXNCNpJ+myhHiAorUq6TkpVkHRB5s/Y1aS7aOPWze3yv12/OjRfFznOUUPQYyaMgLiGryPw/BFHd4T/bodm07VzFXSDW9KqUT7mlwWjiOXBI5w/kNRRtFA0tP00a+g6CZIKhQd4+h1Cr5QvyCMYJMV0GOk/52/YEwfNIRfkaI/6JZUdnUeEDMYV17OLvy51J82yX/an02o0Zgrq/UjY1Z5fxCfqZd3RSvDCoq+O2xTqLBy7BVS9MZngue9k4FNZVt44ScRQIr+oNvuXYJqC93cOLZj4l/rZm+87YbQcypD5gp/08nKzO27x05mjKJLQU7Rke8JsLsr5Y8TKih6e9M87bToacOyqsYx/RcQQEXHR91l716U/qq6v4WNaNdzOQd7ztUndCa/WFXhZ6aLnpLiERg3FmEaeNHPURVFb6bT6S2otou+5PS0cJKqai3wwyJ9G8T9wAMioIIAStEqKH1knr+lT0hwPeSZ2BvNbZ2x93dMZTXdGdFTUpzXYLxp6wU/R3KKPq0dyOzdKinahS2wUyVtFElVtfcNK4wBEXgIAaToh+AbdmHPMdi8lb62Z8btOjWM8zFg58d5nQ5k2GNq2bsqii75OTqYkbW88Jc5rGLCtgPi8G+80FqCi9lfgQAqOl6B8hvbCLc3G1zSE8psDKjpLuc7Rju/EmSKDiZFl/wcedOSB497DNRoPP4Ky4xfuedfNk6Uor/shlYMx1r97cNvN9+QjL1Kit6YB+7naCkpkyb90rssHTRGBoYAUvTAbgh2p1cEqimaNXP8Dj9HvSKGlQ0MAVR0DOyGYHd6RaBK0fFVfo56RQwrGxgCKEUP7IZgd3pFoEqK7rURrAwReB4CSNHPwxZrfj8CSNHvvwfYg4cQQEXHQ/Bh4YEjUKXoONjMgGMeDrz72D1EAKVofAa+GYEqKTr2c0TQmu6b7/5XjA0p+ituIw6iAoEqik79HFWUw2REYCAIoKJjIDcCu/EUBKoUHdubp3no5+gpmGOlvSKAUnSvcGJlA0Mg1EveSP1km3QLHv7bwPqL3UEECgggRRcAwdPvQuCv5Ix0lC4avNuoiv6uu/2No0FFxzfeVRwTIoAIfAkCKEV/yY3EYSACiMA3IoAU/Y13FceECCACX4IAKjq+5EbiMBABROAbEUAp+hvvKo4JEUAEvgQBpOgvuZE4DEQAEfhGBFDR8Y13FceECCACX4IAStFfciNxGIgAIvCNCCBFf+NdxTEhAojAlyCAio4vuZE4DEQAEfhGBFCK/sa7imNCBBCBL0EAKfpLbiQOAxFABL4RAVR0fONdxTEhAojAlyCAUvSX3EgcBiKACHwjAkjR33hXcUyIACLwJQigouNLbiQOAxFABL4RAZSiv/Gu4pgQAUTgSxBAiv6SG4nDQAQQgW9EABUd33hXcUyIACLwJQigFP0lNxKHgQggAt+IAFL0N95VHBMigAh8CQKo6PiSG4nDQAQQgW9EAKXob7yrOCZEABH4EgSQor/kRuIwEAFE4BsRQEXHN95VHBMi8KMI7Hds4Pvwe4aPUvT33EscCSLw8wgE5AIY+HT7NUggRX/NrcSBIAI/hsDeggGfHE8Y9prSg6Zt6UxI++woKjo++/5h7xGB30XAPE4m8xtxBY52zQA42iLG16CCUvTX3EocCCLwYwhQEgWuf47G7por4OgVvX4NFEjRX3MrcSCIwI8hENgOCyNh2EdTWwWEkpuQ9kB0cuRhA02s7CjO5HMx+RwngygvJD/QZqEoKjoKgOApIoAIfAgCq5OneUCNQvhzgEw3LpszlAfvcmgROD+CqA6Mv41ldh3qHcfiO0uOo+SUS5Y33iUVpeguqGEZRAAReAEC4SJPwD00aRC9TaA6I3RuH+JE1L6HTlhRlCfvovhfIbmHrkZVIEX3BiVWhAggAn0hYN2vm7FOyDKpMObq6ODtRmoBRNtCmLqFhNrT1VWfzCeTC6vnMIHJycmEqVVWcEySt1G8mFxbbZuLnKLZe+HdYcq+F4x39wLbRwQQgTcicFocprMr2NJtKCiUiek6cWdOwdlYzoyzyUnXhWtKISiNpR1Fc36MmOmStAlVCsmHpB/QaSG51G7nBF7pqnPx/goiRfeHJdaECHwiAqdZzHELTXOu08NCkIH3CRNyedL1p0rBH5dwaEfRW5faEGagxrCuLGbbd6hyG0Vrkkvtdk5Aiu4MHRZEBBCBxxEYgdx8DOgZSJAQGhyvd25Dx+Xpo5nYPK+IsQ/We4NwedItU6+0I+NyvnYUrW1NacUvTOQUjYqOFyKOTSECiAAgcFpsL6AcmDPxGLQazJA5/ANVszXaQvIC9NAsBBBnYU9m2tjVliSSosvUG2Ur/P0aikZFR+HO4ikigAg8EQHHdn1GwKA0cFz7OnEiKTG8nXm6rWl/42BzvW/38Syh5vkELN3GVOcJPydFI0U/8WnEqhEBRIAjsNpdgIOBf7UA6Fkf20YkIofOxbDPoabNGG3TgC0UKYW9T02T+qCmhvBzFI2KjtIDgQmIACLQFwLcvPmPy81gpQGTgIuLE0LlKxCJPZurNChxIPk2j+XphpZ/jqJRim54IvAyIoAIdEHAml9tZt4Mk4EL31+fb5cRN9PYzY3NmFJQKXs60de2cZFJzpUtIkVXQvO8C2h09zxssWZE4LUIeHtnYhihpp2Z6oL4buy+2fvb3m8gEV54MvHZHOEJsimHv/Nv6qJR0aH8iGBGRAARqEfAS8ybHU0bLaeHSG4GY2IwrSOUwgI1788GeXoXG2vU15a/On2Z0d0lMrye+fkOvP4M7aJfjzm2iAh8HwKLw325CegGVBdAw+ZxeXfYIMG0bro8mmug4zWIzqY7m3ZgZqhozleLjF9G0X6wZmF8ZKN4Z0CKfif62DYi8OkIhLvLPQQHFsDLLMxgPFZs3gzJq3iOMGDxrbhcEPK1CkdePXmZXbQ5lK21cOlKq+cEMyMCiECKwM5e+2zZyc3Tdu7mCuYYXFNsMfNmYGwQQMNxAPL0lnF2L+F1io5hUTRadPTy+GAliMAvIBCbN4NlBlNdUDBvDvmwQZ42zmeY2LoyjTMdb5ze0fCcaLXhCyw6kKKLdw8tOoqI4DkiMCgEwEwDaHllMo0GpX4ISwAvDhPvmHmzNuPmzYSAfmB/v+yeJfZxk71XLF0ZFkWjRcegfgrYGURgYAic5leYCiRsMnBvcvPmyBxjNzHsMUwOQndNvlxwImwj+MQxoBT9RHCrqkYpugoZTEcE3o3Aks/V+e4h6gjI0/Mb+OeM5wh9WJjSzrz50fEgRT+KYIfySNEdQMMiiMBLEFiA9+ZRbCy33TAPG3w/lP2MmT13M6J7qN8/R9Go6HjoecHCiMC3I3D6A7PnYzAONe0Iumjfnd3ewMwpyj9H0c9S7aeIKkRQilYACbMgAm9BIDSZkQasPAGqCLfJcsG3dIU3ihT9BuyRot8AOjaJCCghYLlj+zrf/kX2FEpFnprp5ygaFR1PfZ6wckQAEegVgZ+jaFR09Pr8YGWIACLwVASQop8Kr7xyVHTIccFURAARKCLwcxSNio7iI4DniAAiMFwE1mu1vj2wveywVheiokPthmMuRAARGAICsBe4UkCKVoJJLRMqOtRwwlyIACLwAor2Xe6g2mYrJ98aTLZOCBUdb70H2DgigAi0QuAFFH2bzZbw34a26tgTMnOKRkXHE5DFKhGBj0fAHvOtR/gf5pVfDFa0LUmWoVVsbIt1aVrs+p9JjBAm+YulsxdQdNzmTi81/uIEpOgXA47NIQKfg4B/jnbwY3/JIt/vBcmutY9tgnxtZOJkwZyzi1uuaTjKNA0/R9Go6Mg/LniGCCACDAHzkuFQpujsWvvYfJwvA7V78T9NG3OKZhm8+0y2YcvPUTQqOvKPC54hAogAQ+ClFJ1BnlL0ai3fQRApOgPrZTG06HgZ1NgQIqCIwLspWvtbGrKu/hxFo6JD9hhgGiLQOwLeMTLlEv4eBWVC7+09WOFbKXrENdznq2QML6NoD6cLU/hRik6hwMj3IrDyJ8WwuQ13uG+l6HDEQyiB52UUrSFFp/AjRadQYOR7EVixbf7ywZjmz4d0lqPoQ0SZyd8DeaSn8yCpJzrmJiMjXbRjH4/LUNrIz1E0KjqkzwEmvhKBff4nW3lWMP16ZRd7aGsvp2jLmIEpsGUYxnXGfDJ7Bj/00OBjVYgUHe/wHRkus78PWQxfsnp4jIoklEwXXnaL2TWUDOFhigaQ/0YjSc3FJJSiU0RQik6hGHoknAGVKIRr0wIEcaAh29RDJdA2tYotDCJeIUUfYK+pkzbh42d7aMOvQTpN9uoxmPF+sqzdk1UI7F3SPdRVllE0MCnsOl4Kj1K0ddV2m6mxgS1yGwJSdAoQUnQKxdAjtgqT8jwtRrIgttL6hytNbWZb1D6YrBUUre0JW223Wricmk9+QAah/hCl6BdiKFC0dVtKGn6YopeaDfbWF/Y6rA8DoWjxG6O+w8+7ihT9PGx7rnlJ9krh3EZZuSBq1Kuar+cx91VdhaJD0whfRDenR9bSnd6RorWVY9yNmVSx1QNFM+Zvpmi06Mie/O+g6JMSd0GmbOCfF1sqUq9qPo6AKvWq5svBej+DRxyFYDd/+ObqbX9SJUXHFG25jJpBiF6QQdh5vFWKXkzu9woxtyeKnjuNd3AgUjSuLmy8U2oZvNKUSpVOYBA/QLVBlXKpUq9qPt6AKvWq5sv1WlXPTWR6z1xNj55IKXq1XsUUrZ1csot10vJ1dY92oF35t1J0TVcfpegTeBrVtFGFvYjY8EAoeggy3VdI0RZZK0yjwbQ9kdnji09GTfyuSjhl44GaWltcUqVe1Xy8aVXqVc2XGw+ZFSanKk6JTO+Zq+nRE6miY0vnHgENx8UOtTkofE7n2Zm41qNt9VD+rRTtXEF2tAzZyp5HKVodmoFQNErR6resNqel+Bu3HpmvnxFhaVpNNFDUR9SOSHZRlXpV8/E2VKlXNV+u44q3RVPNl6u81YlUig6p7jMFx5boJtVDVuH+zbro0TlY3085Hx2txvlY5ni6cGUsrzOp7ulRij5t2Ny0oSCbZhS9vTh8VKvHLFlaI4POSFtDVlPgJRStynyq+WrGI7+kWrFqPt6KKvWq5st1XZV6VfPlKm91IqVobWqOj+yHfwnGQWysO32r3GRwBV2wEI3uWo3zscwxRVu385lJ0uXwKEVbZ2Z3vztXqLqFBlOKnvhHHUwQ/2Z+fIeETE+NcopWeJk8tROs8rcoOm6KXskDRSNVpGjxOUGKFtGI4lJFRznbm1Pm0RQKNd+r6FiCBL26PkPRcYrMh1pYdNzNvTby72f/9moF1G9L0SY1A5V/RFGtixQtckvvFM0WIB4UjfPEjigrMN4lRec6O4CTdAsUX8aPz+9gYhdd2dKjUjSv+PR3VZeiZ3coc6S3sLJPz7rw2xQt2SBYCrRqPqToGD6+AHHdRhmuoMCIFiBSxS8a8UaqUq9qPrHudnG5oqNdHU/PvQAhmt7ZCiX6Tooe2ZtZhVKhF4reLZ1mKBNFx5LJ3UvG068Ov63oUKVe1XwZRYc3g72hJzAnwZRpzm16c/i9vTCdo0Xs7p9LqsKpaj7erTZ/FCqOFyC2qFWBovkCxOuHS9F6aYJ3/IB1TwuAJVmrnkFG0brHtB1vpejzCfbGkk8XmorWkZIf7tSVIFGdlKfoSD9SnfsZV1CKVkFVcqelxTKKBtX6WgMLKv6wa+yZJ5Rx9ZnCzD1QNJlJK1BJzBhyN2G2s6fL4cCFjcPh4MD5Hs4PoMXL8qnU2iKPQsV8AWLfqws5iytQeXkoqtKxar5yC8opl6Iv0sldOiGmXGH3jHsK01+epHzIH1vKnt13StFLTdtd5EZ3SNGS2/bspLdMF6pSr2o+i5zZ8kLAytsw46mA7kYGDbUz2Y7mzIwKuJm9iOHQXXRKGdKChTIObF7EflBwPLIjaAG4ItH03kzRMMq0oxBvDArU+1SK5gsQH3hxNg4wynDaZpuoJjHFor1nO1E7NAk3JSnUvWGPEgtv1UVzii70LD59PUXba/j8CdgfW7okXd7PPlJR0aGCojpFs+eaMvo96/DH1P/2+1DTZqCVjTgo+gsU3UGjGvc0Y74Jq8Uh9mGiG9qJBIeD72ua7l4m75eiobNZR+Oe1x3eTdFMZiTPX104M9fjwj/9XVK0ZtMxCYjkw3/FaYFQ461Gd/ezYbPPREl4GUWnPjr+5vD5c2d/JlX6IUk/+0ji9+Jtz4gwgjdL0SvGpBpzscF0xRocoxvh7dmXoDpFw+rCK5fFOEXzQcFPgJFVbxQd6XmZjcmOwHfohYB3zv1KW4FXB+8IyYxsdNB8tGJINmjVoFAxz6KQL2vy3RTNFyA+X4qW+O833/bzA5/NE82l/InP7gSL7TfwFPnzdy9d2eW6tmJfqBFYL6Powq4rjAxeHZCiOeI7SkCYOTEdAfjt1daM5dj3jGdyIUOdouHjLFJIc4r2YDn4mPz1S9FntrqQLR30OEVbjJL9VbQebQMUPTnPbKqfkKKz35KCjplnUciXVdopJqPodyxLWM6g1RMNgILY5145hDv2/L/VLtq6bmCBYxKc2BLQYQmvp+hDap/HJ3ySXr3gyCn6Hc9IcWzvlaI9m+kMbmRjbGAOZQSuNmb8o/dC9DX0tCtFH8BI5wZ6YpucQORlE4V9KDoo1MMlVE7R2sW1j+DKcsXqZxTNwoyskKIjKNhfBep9I0W/QYqewWvd0UCCXut+nWr1rRR9/tMm7iQRXMfUZv5vbpy0X0/R3OiO90Xyls2etCfEfluKNul6veZLB+ds77QzEJs2WYHuAB5fHxQUXmByC8z2FO34zH73SsZrn4Tg/9dcmwT0at6GBH98utAEVUS3kCkRIopm1vT6WFsxFbgLumj2lkeKzmE7dIqGp2UNFma+r+vw8bY34Ujh7f60YJPzgXmmPh2jj8XKht5K0Xy60EnU0W4sffC+vomiuUsnpOjKx+UJF0wamLDCEGrmFD0BJh2fmXp35/FvKdDzdqRo+LnBE7Y3TdMHqtbWEGGmnKeNHsC7wCLUTD+c2o4ro2juDm1FA3sDe3Z41LdtNpYjtW2dokWHgOuwKXoPmz8xE82/49ElNPQs++jqBAzinhX2zK2eDg86PIn1bbyfotMuDoGil2xTtrdQ9G8rOriIzCnac01TB2EXKDpSd/m6rfsg/LaXouuf/Ic83aUUbZmUAt8zCykdRHPm+oZZuh6YchreCzxffT+6XVWoOO2jcgtvny6EN6qKQkR5QPKMkt83ny6MXiI7Gqsd/GcytHbS4YMLKDpsIOg366KN6VZw0DEm3OLtzPv8Mik6teiIVhfO4a5KbqH8XveU+tuKDk69GUVbDogy9BwrOkDS4DMU8DgPk6IbHgEFJm2ooeKyQsVI0RXYSX7fAkVvyThiTconqyvqeDAZWliBQk8/78BU05vV0vRbje60w1TQBi7GIHkQSvnX58soOrXoQIp+j6e7jKLPbLLtQmbTMwigDjlODfYxCKGjoqP+Z9SPFF3fBkrRGT7DVnSsgIjiHk5IwKfDwM4Cvo+eEo4wdc2CvoGZQm+zXtdx9FsVHfHwBZqOU95h0TEzwIeXzf6cgSleGdCig4vIO74+m/npoTo8sgEcmbIDwox9AKMUzbGI/6AULaLRLi6TorfwqDGLbAtk2xu9gHU+X5DUrmLV3GA55XKO1kGp4m3OnlHH0W+l6GiJgsZ15oXhvV6KNkxwiemzP+YzJ3IL42SnqOiI+PdvxxTyJ3DzzZ5fD16WsSmUxwxtkKIBhDQgRadQtI7IKPrA7CtgMnlKDccGJfSOzJxbtCN46/obC9yv02jPLaqPGEODbrWGo99L0bMpk/CHQdGNwD4tA1J0jn8ZH0sCUrQIyvMo+gKGrzP4emG+TJdwL7wrnMO70zLOMGnLZxQVphXFvkbxpyo6vB280FUCe/nLKHrPpjxg1HzZ9cYDsx84D8LyMHpKAY6GruxW3sbmNdZw9FspGu74DMygY4reXVhnY3+Rr5eiLfBNxoPDMXvhH1R05Ci6AnmkaBGYiKJ3TAMEJn5gTgg2vZrhwycgsOnSZyYwPIsClWfVMuq1+PSsG63uZHa7SzZDBHaEE0LG3lApeg3qMaUQwGhlFL2ypnOHIXGazC9MSPAOk3TFBkvvOwBHQ5XA0LFEUs3RqhQNnhNYjbH7hIf7m7n0B5KO3iPamh4hULZk4YW66NSiY8daZ8EcRxrQhwepWgFK0UjRqs9Kki+i3rHOfuBb4sOinDssnPHXY6ZQNajvdKVozdrDIp8VmI27+/2YgkWNud9PwWkf+HCFT96BStFjn21V2hz8MeAlo2jGbtUhem8pvQPKmSi8LovhbwV0FzKGTq9UcrQqRe+OS7hB16Uh00qkzShHMorWtNEtKhbAHrzwj3Jh+vVSdNL37dh0kvhrjkjRSNFtnzRO0Qfw2gRhCR5ILKDmLdC0Nj1ACleidpOiwaaGsg/8FTPrZk5OfB8UCMDQ2hL4erAUzahXIfBPMWOWuCBNj+BfpS4sIntg5gWzdTjK9j/Y6Feqe5kMDY1XzhmqUrTHd8MFfu6Voldw67dObNFxh/d/Gt5F0dv1mL8i0o68IIKKDqToto8Z59+AXmcgohlkDxRtAH2OQY/M5lYfoegLGYfQm5Sir0yHwFZl8iYXBGyeHtm7cAKvEW0Hshi9gX7bhNXWUPfCpKxRrq5W0FlDDYWgqgXj+eYBuCLN/beOzOwKlWannZTvcXFp2Z0OK51yDA25r/I5Q2W76Cn7FADVVz8EFknRN8PT9vaE3f9ieAtFw/eMDg/OqwNK0UjRbZ85xpcHZpYIn8sGuDXhVt58QwH2AHOKnhEg7NZ7F/5FDA1O+4xIitZAfRAQ+ITmFL3nH/Ld9y5cwaok5jrIPerE0650fTTBM0u4JjBF9yqKbot1/O3QvhgvIaVo7XRgM4UwpaEEogAAIABJREFUZjHIdR2qUrTGpWig6H5CRNFMbF5NpYL5Wyhas6xL4EpUR/0MuqoWpGik6Kpnoyqd8eWaLvZ3+IyOKBoWYIb7/Z9uQhFO0QYTfwnkUw6MTbZs/ZAxASka1KQu6DamIPbOmIMrTtHaHBj7gb0Ll6wmzV8z74MLbQ2KFOsK9D9nHll+iaL5TCEzL8mF6zrMnfMTdYqOpehyFV1SIopmjL+aerHuZMpepN51yl8t76Fo6I93CYJ3TBcyeN8d3ueMVOFDVSELx4+7is42MKzE9PNXFx6pA1t+TYCi56MtSKchBSWEDjYLFpdJ2Z4I+7Z7F3oh0cGrlQE0Cu6tCFR2pnAO05KOTpkFLwtywTC6VvmXKzAiIZq7x2IeWWbEntnsuxwoGv6+SNFR2cXKC50GHNdWVfZqlhia6TrCUifUKXoLhXuWos9Q5fyeSNEmf7COkS7qZRSdWXQkEwEmTheWHpMnJnDqVeBfhSy8l3zvwkWzRvPzKdoBbwkUzCxWXFweaZ7PInNY5UO4X2wGRyT6Kt4+ziZ3E/S0IcwRBeAjFqaJ9uwI3sVGaxMEdR6qWCe+LD/wOzKDmU0I7NfNKHoFOz/yLX9jih7PZrNOu66oPhyq+aIh/MWvpG7vpBiGFCwHTHr53vPRhdMxeePFGfnBKHO0MkVfocI/l6s7xCo7xiMp+u9sb+B9DQ8VC+D8D+To+JfzMopOfXSE8bbAczYl/tKAio5+FR3s857KJjhyd/XzKVq73KYG0xvsjOmNqedWxpSpJeCc+a/moT1FxwXrDinr1GUqXmMUveea6IyiLQgTtqlYRNH8h9Bp70JV6lXNxzt/S20xOg04BiAp+8ceS66Bii/IOfpamrlUpmhQGGmnHbe+iZt45BBRdL4G17zSjfc2is535pVn/MlERUcD5Kq/Lgu2a4H1cGFDdYks0JRNfj3au7BZz9uKIeVNyVNLFScCXyF7KV/heu40YZNcouRENV+uKKPoM7k4TsgM+RznCJOcd/3gXBlFG+yP5jHKbv7+yVUbnSg8HHwBYjCWFK5Igv2H2fuOhU4DjopmZZ0D2Kvzj4j4ipSj52xTuFwAit7CEw1hCpdWNx41mGLoEEUrktmGVhW5c/VXnMgpGnbIcJfRiyZydl1RWkiW3JupK1xvju5gyoKHbQD+OeDf2IkTXnVAKbpfKRq4oIKwxDv6kBTN9y60kw9/sdp8vBVD5ovWn6lWrJqPt6bKRKr5ckNg1EuZIAkrFplbbabnBs9Z4Gf7BG4N2baVUXgWRUcLEP1cn2pPvMy2sNOA48qFslTPC2ISjr6z1aH5YF7gZcEDvTDNVRTgXcN3zISzimS2w1BF7nwD8jMZRS/h3kGVkUPt11P0LJhEi/zn5k3e6WelIkX3TtEKt+ohiubLOBQaacWQCvWlWVQrVs3HKxbYJG1IFlHNlyvLqNeZT+YTJkhe5hMm+2nb+eTOuPnAFTU8/7Momi9A5KsLeTMKf7JhZjGFYoUsQlmX7ZsmhhJH34MSQ7PtZWMpmsnFYSxFj6CehmSQUypyi32oissoWmP3bMGMbyC8nqK5v2jethEZlfD4K/78tqKD713IN8aqx1ryvSQtoPql/BhFN+s4eOdaMaR0OBWJqhWr5uPNCGxS0WyUrJovV4kq9army1Wu8HDwLAr5snqzYWax7KpqTCgLu2YWpL8CR0tkaNAKHZdnMGXY2PZ5CdOpsVUDxHgynFYlQ5aq3OxSQ/DB+LI2vIyiU4sOkaJru9b7xd+WotnehYE/a0RV9deFFC1C2ZKimbv05pBpAMSmGuKq1KuaL9ecwsPxbooOjZV2Im4kgaadP7mxyTFLufPNX9JrceQK22HG2g3Xtvm+J3AKm2Q2JR8rc8c0X3s4Mjm9LryMolOLDqToN+66UvcoxNcUfoU8529QNF86GM0W1f5ttbowWjoY00HtoUnCktxPVepVzZdrQuHhaE/RsOkP+7CHIEjCUUKLv0nZPfVnY7ZkMx8EOVoqQ0Nuz5uteTiCjshx+dr1NdwBngxL2WXJkP8IOpOK3PkudDz7OYou66A6IvdAsfctXVHotMKvkNfyGxQdLx2s5VF+MZkMV0AYbN+afcXxHIXPdaW6ValXNV+uUYWHozVFWyahTtRKQrO5NhVP0rIXkIUFkTkpnsrRchk6yZYeC2J4kl5ITk6TY5Kt9pj7fmokpNdT9Gx8iLp4CYzagfR+8bcVHQq/Lo64ar7foGi+dJAtH2wKsRzY+0PbukJV6lXNl+uAwsPRmqK1k8UsjVlIaTY6bfU3K5vVl6sglqOnkplClm/PlvckoWgzeE0utDvCy4L9BytTxTCPk/lFAmv/68PrKdo7JEZ3bBXAKwNStAraCr9CXg1fXdhEXHAdfLapNCvPo6riVc0nb+WrUglbOqgQnrW6sD1FZ/BnNJulqcaay3I5uoqhQRGbukx1rmComAuzTXaxfcyc5yqbj5ldehx28YT4iv+U0nWWQoHXU7TQ+IujnKIbvyte0KmvUHScVAWKeKVbJ1xVqVc1X6dOfFYh/pSr3Jsub06F9/dwKVoDOXoqnSlkd3gH/lGSf/OiFL3kawCSy22PBbu6XO2LmKKnbKrjOmaLWAvhZRSdWnSAmeHFKfTiNacoRavgrPArjKqZw2Z7KqF5AWJ1t+LVhQqMU13Hj13hSwcTGa3u2AUXhYdjwBStndbVewqkS+sAlxyJMpwYRXcPKhTNat/abC1jMbyMolOLDm3iH/WX++dg40aKLt592bnCr1AoBtMkjf8J2dtG/8D8SSkU1iq0bQfzqyGg8HAMmaLrBvl+ir5tQlkHX0/RzORl4b+Do1HRIXsCimkKv8JiETz/FQQUHo7HKFrhe6kyy+2hu/B+itb+zrDyvBReT9Ez5jOF/yl15rEEyzlMJ9saB1S/LUXz1YWR3WftX4UFiI/dJyz9uQg8maI1tryvazgmdiGd4BUUsW9RdMDCGQhv1UWnig6+dCVbv9IJz3Kh7TKAtytl/7tT5p1AEn6boq9+bEkTObGq/KuwAFGCLSb9BALPpug3gpiTos3YY3JyOEoMrdX7GpyTevjxLNqLJNOF1bW9Xop+AkWf5iYF15gTx9lt72dg4qMjGzGn6J+16JAhgmmIQCsEfoSit76ZD34X85cU2U2+MhP82KUhoeirvbZT7+PpVRZ5GUWnHxL9U/Q2ION5mA1rcdWJnfhczJJ/fLpQAAKjiEAXBA4z34Ryq+vMgTlibXo1Zg4ctzPjeoGEy/kGC3ge0UVDZW8LohT9wk4kFA1WI9piZoTlpl9G0ZoTL6OBt4VtB+yPLTECLPewKeW0JD57QLTV9j4z5ju2zCu8Er28MOa3FR1NOOJ1RKAeAW7OfwNqJmQNOWFjdFg4F8Ie5iyMNMsnxEGKrsewdFWkaHDwJDGjeB1FJ2+pvzkoZO7sz+Qh/X48WOtIbKhndeMEzJ6aI9u4bBSk28qlqKCiI4UCI4hAawSovwt0F4odYXcA+Ms3Rme77h72O3C2DBsHMK9PD0jR1mHCPn5h80GZZQNceWZI+OmZbUjqFinam28kUuvrKTrqJhN7+wgnl7mGtWZMF71dhKvRZeYT9ryEbomjUYruA3Gs41cRoP4q0kVvuM+ojal5O9iJBLYeHI2YtBUtwX6AomdcPL8zoZyJ6S8NqSL2pa0y0KIGJ1P3ajuyxl9G0c+BAJx3gw2f45NNti7nNIE9zkNY7UkK72KkaNkTgGmIgBoCExJEexKmFA2C80VbMUqlIP7GFB2Al7Q2exdmjVt3Jm+Z+uWwBgXKi8Obpei/0UgiQTMMXkbRqdFdr8gb1IBpCuLnFc+nK4H1MVZA89Z3qOjoFXus7NcQuBCdO69IKZpL0druNl0yv3kRRfNfGWmxd6GAIq9BhynJJcn/dIU8z4q+maIjtUL0Nz/Ez6boBVONXci4ZEl3oEGo/VGmOMsCStEZFhhDBNoiYK1JtCfhhs6grAvqjgPsKL63Qy0km4SiFwa4um61d2HWD07RR6LrhMrIKsvYZ2w106l5P72Zoo3rXvPmAGUpfDZFHyksJtfHknFt2dY4U74lfTpmpOgUCowgAq0RCIhPKUjL2prY8PdGTFMnC1B2+KYPLpFhWshMvtUjnXW7FvbXSA4fE9vWKZuQ7COs+GqRyYTVt+Xx+QiiWfIODFFAUWNeuYK9jyZb1ZHoosGU8bhxZEWpaEYtyxCnSTCf5mXUmsL80hPeUg7s9Out9eS5yPXgBrOFXiCu44nsoksCd67Ua07e4oz0NUPDVr4XgZm51pliUbtsGOGd3PE6uELkHKzHIER7Z3Od/LokdNGIy5KGOzazpMOP9grU309YMwIGCoZXC7MS5AHmNtPkU6SYYel9GJi17nRC0SBBH65XZtBSDKqOvSWYv5+ibZhUmLO7moTRznHiewvUzS4ekktwRClaAAOjiEB7BCIaaFZCSOiisbE7WY8p/F6ZFO2TnqRoz2ELMGD3bqAFK/KDYTPCSJMnEWvDX9rYw2dkSCjacOAlt7qG5TZUt8eRYN6Oop9g0WFRGwRlM31gwl0ahYE6sNuHpbMvsiQgRSdI4BER6ISAhAak9ajmEwt74MWBzUZu2Q5VTNndT4hdZrPKYMcsFjhLRFFL21BCNgum7HgvRWunqpfSyyj6CRYdB3jnbgUheiEyNHzLwKyyzY3s43vNKTr5FOvn/nerBRUd3XDDUu9GQJV6VfM9fzznSEqmIDrvGPdDCIAM42QyP0Zp8Lc39XerQSVS9Ow8s/+kJT+ZopegPbqSMB1XQX11pzvQdGT20qjoSJHCCCLQCQFV6lXN16kTrQpdQUpm/AtrJEZcRoNlMSDKpcl3fplnqRJjW7XXNnNC0WdPmxlLGUnLtjOXtSLBvJ2i4wlStAvzCmtuqBn1uEDRC3o7jcg8Gw2/QzKFfJblNTGUol+DM7bSNwISGpA2oZoPCm/d8+0g21ZVWnHvicyzCA/MhvANIaVo5kfJkrlRojAVqxIkmL+don3ou7h3aYGiNWpbFmFTznHgFI2KjgQOPCICbREYs6WDCqHF6sI5ECSldC1O7Lft1iP5nUj9EWzfS9EwaVahf/9ku2ig5xDmBNNQpGjTtTRRkYNSdAoVRhCBLgjwn1AsdtYeTPXa/y7GBuoF69/VZmNcRq/WNyxsSnQjfIJRsAoGiRQN1iaCNCmWfBlFP8GiA74AViIFn3Z5LYZuWpq4wBApWrzzGEcEWiPAlw7C6sGmcBOmgOob8ebTLXzZhsyJ8D4WaCu4qr6iR6++maKru/8yin6CLrooRcM9BrvoLPhjiRSNio7qhwGvIAKvRoB7m9bdGUznAVFvp+cxaD1gEYnhLu9O+MLevJmi5/Z5mrdIS8b+yRRtgi46Z/jMB+Vp8T+P66IFRQhK0cldxyMiMBQEHOPIfpgU1JTO7bI4ad6IfQyvWRrxNy8Tqd5M0cBl9nkuI2lGcyphiNOFLii8RIuOwjgWYDK9Q4uOAip4iggMDQEvdKZzUHS4jJbH9pRpo0+7+cwFxceE2XzYt8PTqfrNFH1m04WOzI3SJ1M0s4k2SO7eiW+hG2zWc4f/08Cl6Fz29NJrI2h091q8sbXPQGA/tcdsEvIGKsvbZAfqjj3Tad9B9QEzek+2+Xg/RTMPVZLwAop2TTOAf2bvCyy34E/cYfczDaE4SzE2V9ZGF0gbFR0pUBhBBIaJwGk0ucECjjujavNocCutv4NhB4S713tap59gzqDU18SiwzYM0VmFUPYFFO1fIx+Aebf7Qh+6Rk86aGnGZmakk2PoLZmu9qLZNK4u7Ao0lkMEXo3AZMnUHMxpB7P5AO30qeDfoe8OvVmK1kZV43sBRZu9c3Nyd87gLvqSidGWKEOfxrq1vxGxbVR0JMDhERH4AAT+DjcHlB1MoNbd5ZPXtrybovn9WEhWgI9dtVv1wHTh8yh6xBxiueCKIwq5pStXmCj8M+ElnAVUdGRYYAwR+AAEuJoSbD58ChOJz51GejNFX0DzDp64RZEyvj8fTdGaDZ6/V7oZr1gRKXpCQQmyzLmLRkXHB/wmsYuIgAyB0LnfM42mLMejaW+m6MXsBiT9fRS9p+OT5lAzMtsQKPpOYPH3rrClDCo6Hn2MsTwi8K0IqFL09gABbLgPfLHNw2gk04VgDg4k/X0UDc5GQdXh6Dp4g4XtLRO8VmeydrSVWdgyCxUdCUB4RAReisBuHm8hqHa4xyrZe7BuE8axTUSXYsoWHYfD5QaeJ+yD0QtHpxQN92M0s79O0cFccxvAzWOyPngJRa9uOlmewt2aRPqd9FlEik6hwAgi8EoEAt9sEQJmqsXCzG1yBpK7bsdTT52KqUrRIBLOPG0CfHOOOvnYX5GioWqJvt3NTahVtzbI6ULorrchAJg31Yl+nk62zuF2hO11HJgHHpPL3zoIhSGhokMAA6OIwOsQcOet2lrGqzhmFas5Kiqbx7YPnYqpUrTnwIc7VxonZgoVvVFLTiiamaMdprdUE5CVfoCil0FWTV3seRYdrFXvTF149VhzoGYe/DPTemxh2/gdbHrDOHoTW0ejFM0Aw4AIvByBjhSdULVifxOK7lRMlaKZDC2f11PsZT5bQtEb0O1cnZtE0fEARRvx10i+yfLZcyla024UtleBZk+7w+2+/fPgdbTYEH904tuSjcMr2OuANgR3AC/fGkxBBF6CwPdQtGVzQ0DZvF4nJBOKZloT4ySr1u2+jcJQKFpbrIkfrRTV/hxn521tSq+n04bQJWzpABvfwDKlGyCAio5ODxEWQgQeReB7KDpkXHqRWsd1AilH0XKLjkg70PwXvMoVwmAoGpQ44CPLtI3JdH5fupTQGah0wCELuAZn2+4cQ7gMmzqgoqNwB996Ooom99maMe8Sxdk8fkXyW7uKjT+KwPApWtmi42yz/VHOR/5h/igu8MFPojqOK2vvSpn/z8jNiVaeGKNSbwZE0Zr2dwNqBo0Gpb49sUJw7Q9MzX7yBtuT3QJ2viBFl27hOxPY7WIBTJeMOM7EgIrkd/YU234YgeFT9BO2HFFCLaHo/Ww2C7U/iUVHXI3HV+5YXM2S1Owc2altVy3qGRRFs06vRrvRgq2j/GPLDefgEJzNj7Lub+GHv0NFByAxnDCBZxIC2/N4f43iTKKuSB5Ov7EnHRBAiq4CLaHoqutp+tJl2/rqrsjRs0jKIUz5IguDo+i0k4yZQfsBEnUcA3W0g4oOjorSnz/2NIxG7HV3iqLsg0T7i+LFZKUqS5k8iwcuAJyiOMtTkVwqjgmfhIAKRVujlH0Sk4zkWDfUrZ1+4Lex6Njaqc1cVEzVoqOuLx2uKVO0GdPxTWjkSkDrYtsuk21kYegUzTiasrvOjuw28kHG/jxkA3pZ2tBd+h9ibQOzqgQ/vTzA7hcVyR1h487b4d0Jv5RL3B4zEYqTmW8sMbljI1hsGAgoUPTEvoVJZxNqTo5JuuR4MMKU2VtQ9KVUbOgUffS5FtpgAlISVtMkJj+qUrTvc4/+gV+lMZFX/0BqJDuDjw7CKPpOYmmaU3S1sueBBlsWHTpFL9Z8E4aALRwwougaKLMiueXgk+zcJBIMbuDluWWegSGw77WK5KQUHj8SAQWKjrkHnjPwfxYvWUmONWPeRpbE3ANEG4ouFXNom7XmveUdx9OFNUOMLu3Tj4XGrGkGVYreRtP1U/JsATZSqEP/IooOYfYQbgTopM2Il1GKTu/dsCKpGJTvVkVyPhOefQIC63PsnAMmhyvCMqIH9ppOKdr2YyrMrRLOVbCdbR0I3DtHQtEKxQ7nUrFbpa3EUy/wl0tuSC1OGn4iqhQdt7jK7zLYoh/KWRdsuzMIEUWvQET70ybwLR2/G5CiFZEcxVL0DPJfIyl6DNJNRbJipZjthxGwIw8dQbw73upi8DDdZRzzx6zZbHvNUEqk59TeDJwOa1p4P/q+Dv/MzSX7Il9M55P5hDN7QtFqxaDUPFfs8+7PlDrQ6XPl4sCWFL1/uhQNvY1IOqJobQLy85TSxJ00WnQoPoPelqsdYPU8FEh0wxOtIlmxUsyGCMDvk33W/23i5wsOJsxx5AL/4E0oOr3CKHqiwyazSfAjRUWagUcSik5TOxZLyw8qkr2V0m4t+VTOllY5WmpJ0atXUDS4u3OsxOUd03EAz6T6FZSi03vbENnLTTcqkhsqw8uIQIIAo+hDPPMQs63MqFdG0XwCJ2FoOEpUJjKK7lIs6e2gjsZxD8GM1p/HPTOIz+bVK3c3bE3RL5qpWzh8ygFGsbrAazplaLToGNQjh535QQSAomESPx+YOg1CxA7RnJiEop18IVBfRt/KC15iwn/lEoquKrarKxZ1KP5rReIK715sdcrk2Wcm59pPTriACSBMkwQ4GmTHOLovin6JoiPq/ggkaQiLhXc5ZgyNio4IHfyLCLwLAaDodZFricN7s7yw7UzOnIEkFB0r3ITCkf/+y5GrsF1Wh4Siq4rNXV6Ma75LxXh/kj/g44cH0Kzc4ygrJU8+yZMrclclJ03njq7P1fdngdCAoq2FT8dsn3RpGKoUzTo7YrO87GWXTUegXbT0LmIiIvA6BBZkF9OccIg8Zi4njKIPXMdcpuiDkD+OUi6HOU7W+xLXkspih7piWY0Qm0VGJcc/Tdu5UdyoTPZa5a6qO9d+cvLn5NmMpe/gNTXyyZh/EiQZhWNLin6hFC10UoyiLlpEA+OIwMsRWJCrhGu5HPUHO3Mk/SlTdOLGRSxdmjEsU3S3Ykk3Pv7YkqJfYHTXACmn6BcpxGu7MvSlK7Wdx4uIQGcEFlSw5kjpFgRU2BMqEoo5TZcomp7TzFmkaAxSVnTUFDsZG/scTTmWmD03vHO8dgtU3844ioMHTbB0YwvygnU+2YuSTTefXJG7KjnX/iMnLSkapegUbKToFAqM/BQCCwJ+gUuBT/wtbcbR2zPDo0TRpJKi/zi/T0JWrMS11cVOZwcKTLnmu1SM1ZWGZJrOgfoJ5X134aI8OdFFM3vl5twVlaRNPxxpSdEDkaJFbfvDEHSsACm6I3BY7MMRWJBKKdpYnBlHV1C0UeJ1Qg8MjMsGvCQuz4w1JRRdWWwSCdC8tXqKfqbpRkXdbCy9hJYUPRApGhUdvdx8rAQR6IDAgshIkys3DGvPOLqCosF8thRC1gHnkDlMLHEtqS7G7YtXsNGHhNlZ4vDCCZT1kuUrdR1d6pE6RvGv+YqlK3X9RbvoWnTwIiLwdASkFh2R9Ry4Udrb1oqbd5QVHYtEsZARNafXnJVDmaKrizn2dHLjcntZ+H46DF0asPyzdm7pis6axq5RVA9dOtZnGX6XUdHRJ6RYFyLQBgGwiy4ro6OVZg7I0n/2jH/lSii6LA9HxcTWJRRdXewEfpSiwqViYp2DiS9gmff7xdwnw8EpGhUdT0YZq0cEKhGQrC6kyyh3anEHpxKK1pIdRhIxms/05RsqcS346OhSLF/rQM4WsEDFfL4ruveOFqXo9+KPrf88AkDRqXfwmGvPIjfHAMko2stZVFMJQ5c1FkDRXYoN8jZFFD0EJcAT4UGKfiK4WDUi0IwAo2hQOdNEFCZBybiZVZJQtLeLHGSMmMs6bTHjv2AoG1ylVJVI0R2LsZaHG36HolHRMdynEHv2rQjMxtHS6XiPkfBw527yJyP5gBOKPidcTuOfbbTJpUTu5vUkFN2xmLwvQ0lFRccr7wTaRb8SbWzr/QiM7XjnErU9RhKKXs6ifYctNWOzhKI7Fns/THU9+B0pWvqFVAfNE64hRT8BVKxywAgo7F0o9j6l6HgqUbxWE08puluxmpoHcGlFXW1NwwH05Ild4JosVHQ8EWGsGhGQItATRVvcg6UzqtB0VFG0YjFpz4eT6PxpzNvdVwdO0ShFf/U9xsENEoE8RYdzm++OGRyNsnEz679cir4cU9X0xpENU07RysVkVWLaSxFAin4p3NgYIpAgkKPoe7ozFlCuuOdGkltK0Vbeu8dMIknLKLpFsbR5jLwLAU7RqOh4F/zY7u8iIFJ0wWmdsHNdio9EivaOqaFeFOHOPNISPCKh6DbF8pUN7uy21ba3wfWq3w6hFN0vnlgbIqCIgEDR8wLVknVZHpZQ9L1YjJQ8+qdLV5Li0Lk2xRTH8qZsf2StBXQIetonAoAU/URwsWpEoBqBjKJPPi2SbXn1SsKxyVHTJMX4voO5JstSdKtiuboGd/I7Rneo6Bjcw4cd+noEMoou+zUC90DFkFBzcgSfo0Veh/OSRFmm6FbFir0Y1vnvUHTpvr7hRqBd9BtAxybfiEBG0UsJ1zJX/rmQUHNyhP1RJMW4S3+xXJmiWxUTqxpeHFcXvvKeIEW/Em1s6/0IZBRdnPUD6qXMAUcuJNScHMEMT0LR81wZOClTdKtixeqGdf47UjQqOob15GFvfgGBjKLL7qIJ95GUQyGh5uSoaTk3dzFdl3TYZYpuVSzXhcGd/A5Fo6JjcA8fdujrEcgoumByx9m29JtMqDk5atqkLEWzLVzzoUzRrYrlKxvaGSo6XnlHUNHxSrSxrfcjkFF02QqO+KX+JdScHMGBackOhOglY70yRbcqVurGoBK8zVSbbkpjHlQfH+4MN7pDRcfDOGIFiEBLBDKKXpW4ll5LlSXUnBwhQ1mHXfaVVKboVsVK3cCEVyPAKbr0UfXqXkB7KEW/AXRs8o0IZBRdnvjTw1LHEmpOjpBhUaR2STEJRbcpVuoGJrwaAaToVyOO7SECHAGBosMgr1amlzJGCTUnR5ajYFBd1kTLLDpaFSv3Y1ApJ0/z1PxmD6rbrTrDKRoVHa0ww8yIQA8ICBStrXJGHbqEoaVulDRH5Ha3ZKgHvZRI0bDoRblYD+N8YhWWf9bO/pdzNErRT3yCsGpEoBoBkaJBsnVjrQU15ZsQJtJzcowq9rbXzZGFTYUPUylFa8rFqrs/hCtodPfKu4C66FeijW1vE0mZAAAgAElEQVS9H4E8RYPLjdWehdKywrinCTUnR8UByCm6sXBSrDHjWzP8jtEdKjre+qBh4z+JQJGiG0BIqDk5NmRPLidc27FYUs0wjyhFv/K+oBT9SrSxrfcjsD5PolBatC3tW8KxGz/aOHxtlj2PSgomFG13KyapcUBJSNGvvBlI0a9EG9t6PwIbMw7E4Z3x9iMIiyZFx58Rbxxu8p3Dw4Mxg7CcHuQFE4ruWOz9MNX1ABUddej0fQ0pum9Esb4PQYCyzQoP6SaEphHKOp5I0em1MUjfK2HtuH6VkXRC0Y8WS8sPKYJS9CvvBlL0K9HGtgaEANlpYc7ojh4kvZNR9MLP2VMHkjVoMoruUkzSo/cnrairrWn4/o48swdodPdMdLFuRKAZAbILg9jiLmFciZpZQtFhnqEJGZdNhCUU3alY8zDekcP50/6cdzT8wjY5RaNFxwsRx6YQgTwCZFdy4SxZyS2haEHLEXN7eatVCUV3KpbvMp69DgGUol+HNbaECMgQIIeCDA18W+1GKa1hPC0XM0te38oU3a1Y2ixGXowAUvSLAcfmEIECAkTiZL/aGWlaeDxL1CLCcZRejiNliu5WrFjvMM5vW21b/nIYRt/66gWnaFR09AUn1oMItEaAlJ2KSvaJLSs6UhsQgaJL3j3KFN2tWOtRvaLAH1lrQXlL3Vc0/bo2UIp+HdbYEiIgQ4CMBY5NoiWXSBKKTvIKx9IyGAlFC9mTaHMxWcffnoZGd6+8BWh090q0sa0BIUDWCVMKRwWK3gjZk6iCFN2t2IDwyrryOxSNio7srmMMEXgxAlRGmqVlKGUpWqJUpt100QrFXoyJWnO/s7pQYvGuBlGPuVCK7hFMrOqTECC3RAbOjuPSAMoUfZdYdJSKlRUd3YqVKh5Cwu9I0UjRQ3jesA8/igBxiktQCCkph1OX/ilI43nZEqRcrEzR3YqlzQ4p8jsUjYqOIT132JcfQ4Ds5pn4HMXGJftmGUVb4uYprKBbLiah6E7FBnlPUNHxytuCio5Xoo1tDQgB8NGRX/BH/b9y98qKjrn2l+fodVguJqHoTsXKNQ8gxdtMtemm/F4aQNf66wIa3fWHJdaECHRBgOw87a4LgvRGpnmUUbR2umY6EnMq4yoZRXcp1mVgWKYPBHDpSh8oYh2IQGsEuHto5iIapGhNC+d25Kr/WLEJYULR9zPzDw3Bn7Imvd2FbwxwKdlyRB1KKLpjsagS/PtGBFCKfiP42PQvI5DKzUWTN5kwrKW6aHNtR+EYk7I8e4JsQtEdiyXVDPR48jTvNNC+9dUtpOi+kMR6EIFWCJCdFQU1jkmkaObJv0VIKLpjsRYtvSGr5Z+1s6+G3xu610+TqOjoB0esBRFoiQApLSCsrQApugzPgo41E310lIF5SgpadDwFVqx0sAggRT98a9Do7mEIW1SAFN0CLMz6BQggRT98E6uXrkwmD1c+lApQ0TGUO4H9+DEEkKIfvuHVFB2QkkOph1t7UwU4Xfgm4LHZX0cAKfrhJ6BC0bFbWheiD2HN9MMjhAqQovtAEetABFojgBTdGrJigQopeklszSbHemvEYl2DPUdFx2BvDXbsuxFAin74/q6oq61pWKznTycX2OacL+0pXvu8c5SiP++eYY+/AgGk6Mdvo/On/Tnlaiag5nBIcUlQOd9HpCBFf8Rtwk5+HwJI0c+7pxvqektqP6+BF9aMio4Xgo1NIQIZAmRmtAnrc1R0rOt+4Z8OoZiWnOvBQ8Wy7n5UjKk5TsvDR/W5qrMoRVchg+mIwFMRmB0LwTUJ1ceFxPR0fY96Ex4KgTu7M6eF1PQ09uTRsdhTEXi88ttW295k1WyJLkv+xDSk6E+8a9jnL0TAifwqxcKy8gDj7QCoo1yCZ+xYrF0jz879R9ZaQGWuW7UJd2UivfTsXvVcPyo6egYUq0MEOiEQJp7v2hkirJJiZqtWOxZr1cbzM1cY3aUN78gyjX9sBKXoj7112PGvQiDdY1ZvZc97h60AKPfr77SBo2OxNk28IG89Rf9Z8CL6fH00UvQLniRsAhFoRGAMXHt1KPyV7IpVXdqGArbGChvVmcpXOhYrV/TWlIrVhXGfqAmLDP2P13Vwih7CUkl0o/TWhx0b74yAlagagCZrA93WtQEsS+8nVlcrJ6VXKDC+MTG6lVOKjsXqBvCGa/VStAtWd7DI8A396rVJlKJ7hRMrGyYCtyDadarpb9BKFI3GuqDJPijxdigVhyOtdca/TOidtnJRz+VuVrS8yK7uVnQsVlflG67VU/QeFhlan7/IECm61ydrZUf7yjX+bTcn1Gsff7Eykwamyj/SbtKNQ7kgtdSbwt2Qb5FQdMsZrk1cruXLpWOxdDSDiNQrOrQJ5YsMWymOBjGuXCdQ0ZGD49ETpuJTCw+0dKdqTXThmwe69WBRb8e2WlUIrYTMuFPjsVrvVPOJtTVQb5q1KV9sBre20hJKEevIn4Zzq0lGTetYTKlLL8vkbabadFM9cuZLyeC7976sS/03hFJ0r5guSbwfXcNhRh5odkYqPqULycEjjRT7dx43KQmi60HXKfS16osnXi5X7GDtuSr1quYTG2ui3iRvY74tqKN1o/0baLsZn3dJK+rHjsXUG3h/TlhkONHC9/fjoR4gRT8EX7HwspEV2Svf05rzFWsWzlULq+YTqq6OEl1JU2CCeUG3MPanSsFXFIhzvVClXtV8YuWN1BtnVsh3ailBi93AuASBrf/5GkVO0WjRIbm7nZJUWVE1n7QTqoVV80kbKSaqLgJQzVesX1NlR9V8uQZUC6nmEytXoF6eXTWfWDfG6xE4eZpX+9nBlSCXc1hfzaCvohTd6+1RZUXVfNLOqRZWzSdtpJioSr2q+Yr1I0WXEMGEJgQs/6yd/VqOZlWcO3/aNXXgFdeRontFWZUVVfNJO6daWDWftJFioir1quYr1o8UXUIEE5oQqDe6i0qP3B24+P/g3WZR0dH0GLS6rsqKqvmkjasWVs0nbaSYqEq9qvmK9SNFlxDBhCYEGozuePEtMcP5J+9kiFJ002PQ6nrKitaamLBKbAaefE1YgnpnHn0dTbuBX1/d7G26cDdhC9ZOl8OBu5yEI7QBweKrXpfkUG2PxPO1+KNKvar5Sk2rqoFV8+UaUC2kmk+sXEHHHC9AvInFMP44AipStHYkZ21D3P5+Co/3u1UNSNGt4GrKnFI0rDxdh9qemEeX7aGm68cjBVOEw/E4ZubKWb6mGiXX08Lsl+9oWuJEx2UGsgYUWPk+KwbnQW8mAqrUq5qPdTAXVNlRNV/byvkCRPqcpSt8AeKR3nN9wpOHEVCiaPClxHYy/Nj3Iyo6Hn5OxApmhK0rBE72dsxnwoX9AbfjK0Zca+5kfErGYV8UrU0YIzvUPkx0QzvR4HDg5LwkjKIPhMz681CgSr2q+UTUeFyVelXz5RpQKGRSsCp8FkWzBYgK0nauz3jSiICKooP9CvX9tsudbWz/JRlQiu4V5nhZLdTJKXpExrPZ1QNpGlh7wyW0JWXrwFJBuEvr0RJGVlv8HoC5kP0K3gNTTzuy5BX/O6bEO5K+HH2pUq9qvtLAFViUL0AMnmQXzdtX6ESp4wrUy7Mo5CvVjQm1CChJ0Zpmw0bhl65Lqmo78IqLSNG9osxXF7Klg5EUzXQN4L+MsWdC0R63AHqIoqEG22ZLB6NGLAqNgM9F4T3A3wa+T7R7O7dpNVgoUC9fgNh5T08FdowWIHIlTk1PZZcUKkeKlgE37LQVcO+62X+U5dMP9tOBio5eH0JGvR7nXy7gaqFlhfo4o+jQ0rw1CR+TopcU+iw0MjnabEpEeA9EFK0T7fZKiuYLEDuboKqwKFuA+KzVhUjRvf4SXlOZ86f9Oc1N7eE7E745w+acA8yBUnSvN4UTJ/9zYfMTITWcLV1rFlk7jg+66I1/2QbEepCi4T0gUvQthPlIeA/QK0wRchmTUzS41/FM2td8oYIUzbMo5JMjrkLRTMehkK/cgEIhpOgybF+VYhGzrx/DS3FBiu4V7pSiI2MLj3loZ3vzgIMcmLxjU3twBO7m+bq2nDYCy6ZcC6g5sDcgvHrUt20+K7IzKUxTgndLk8J0Yj9BgXqRoqugRl10FTIvS1/sPBc+NT8woKKj15uWsadzA5bUVtPJnM1TnKbzCf/Y+rvfHTjvh6Itk1IwvmbeKHVQthlwpKy1O+EPo01pf88kUjQAKw0K04BI0VLkXpm4JltYZMh+HZ8WUIru9Y5lFF1fbT8UXd/GY++BYt1I0UVEknOk6ASJIR+nxLcmRO/LwOmFQ0WK7hVspGgFKpcj/kx1sYoCG3XR8vvyLalH0AVu+lsn8DpYUNHRK9ZI0UjRkgcKFR0SUF6cxHYyhEWGTP34WQGl6F7vF1I0UrTkgUKKloDy6iS+yND8PG00UnSvT8r3UfTIBA9Q+lYjPjXZ1g9L8Aflw9zkHI761tOmemo1wtkZKVryQCFFS0B5eZKNFh0PYT4FcwTuA+ihWt5d+PsoerU5upSMNGIyAz+w8PPBMRRsfuVTcAy11rStriffjkjRVY8fUnQVMq9Mt461Jqg7MLrqM0wbtxpQGzxK0Wo4Keb6PooG9x8mCNEa2RD4q22Zc3STrZcEmnbAOZDmpj4zfpmimUNYhz0kcIRvCwDqcLjA0TtM4JMDKZpBM4ywHe/kHaFMSOwzdN3Fs9A9pOgCII+dfiFF/5nUAVBSigaiHruap+uzmR3Chc+h6HC/57t0WnBkLOrBkUk61h8zxXrMooP/jkDPyf1oLblpOiHwkTEnFNyDI0UDwIMIHniHrFhkSDZOr6Gzyq8AFH+0cHvZAiqdT7+Pov98ztBFigbvHxBcAOpjKBqcsxIm+8PUPjjSBoZmz74eauBkhw3xIYrekc3hAg7BuUNYE1b6m/rlsNFh89MNQSm688+p94J/vgGuzeTiLVAq3K/e/mm9UvQQ7LlRF638PL7kPZD0xmb0FXpA0XQCIueWqTuYFA0Ooqw18+f0MRQd0Kthgn+UM5kZLqzCvJOjYTO9zZRsYGSPULTnMFeGfhB5G7SBoiGuaUDO0fohlKIBiSGEFWWLDJl7hHLoi1KTmvuqDxUdCaK9HF/Cni9pJIFjSSfOHWgaFB0UlHg7Yjtb8NmkBfBZyMRFa5x+N/JnsvODySlydZ05TAcxvRozB47bmXFlC+cv59sjLMr5VwfWvILnv6MPWnSwj52xxfNbEE84gT5E0ZpFKYjkRuRt8AywcJ/eV+g5v1lI0YDEIMKd+GHFIsPOT27FwPqqDxUdFQB3S34Je76kkWT8ewLkAy55ic23f/P4LlzAmswxCDNimhG6ifP2QNHwLbWG2phOgkKje9YI2YEugu8A1lnQ5fzrkvGaUo9vrcBcxcK+o+vxEV4IPVA07Hhm6/QUSdGMoq2NbfuQkFA0H8gtARWPb0OgepFhX5SaDK2v+lCKThDt5fgS9nxJIykcu/vkDuImWTpAOMA908mEm//fI8dQq/s9mcrogaK1o85aOdLF/g46iCs97Ec+bJK7Y4qE7oJuTNEmuJ3KKBo8w5o+hbdNRNGmvl6vu2yfFBUHxocurghIzkegaGbewUT22FHKGTZhwL0L4Ra+PcBOhpOQ6bui4J35Vxs76YtS45qF+pZj9iXYNSBFd0VOWo7vXTgm0mtiImdZMaFN/LUUHfdM4QHug6I3QG/RBjU70BgaZD4aWY8LupyiuaIDlBuJouPkgJKdwCdAxLFX/7G9C9c+vFzA0CVyCGvDzjgmE6sDtm0hDzGVx2d4eBMCbJHhykkan7EHIAoKT3iSVemY1udEn4ZKhSSZUNEhAaV7UrR3ISg7G8JDFM31nOTJ74HiANIHrnghO++ZokEXAbM7oPHI1MXBaDTqvHehSW/TAHa82dDrdMMUHfQ8XTIn3vdsMy+uSslGpBSLqXcWfVuwDsNsFHcMDhI1qGxcplyHgBQd4fDuv2fRJalNwUIyCgpPeJJV6ZjW51IzfQ8olcxnQik6j8eDZ3zvQib2NYSHKJrvXWjD778hPNRIse70gSteyM6Jz1QFcoumLFdVLGLHVIr2mBSt7Yzpkm0mE9Ebf1j57uZVlVSls8ovTKsOv5U/NrUHu/CemFodvFOCopuCmQoPD1B0VdNpOlJ0CsVbIx7Memche66zWHb1kVhS344YSNGPANlvWVVWVM0n7R3fu1B6JZ/4UCP5qpQ0dUcTVAUVRqfF6srnMUVTEGs1F9QdB9BF72FxTMhqjOhtYTy0d+EeZHDWbghHpvE+wTGE42oHOuMoIEUnSPzKMSFSpSe8FShJzWDg6bvseesYuGCSzPd0rKOXYl9kF62Ax0PsqVpYNZ9Cf9Uf4OTBVKpUzBSx45hT/I34gU5HMEvoBz4oc08uMRMa7cKi0USj2FpFvEvlqtKxar6KrmHyUxDIntcs1k9DcX0WN+ZJ1Snt6+YUDcq+twekaOVboEq9qvmUGlZ9gFXzlRqN2HHCVpEAJY/XAdPkzIL1eAMrvs7mOpEjurAoUnQJbkyIEMie1yzWDzZJfYfJxB+H3etEiu6OnaSkKiuq5pM0kdhxSS/lEh9qJFcTnCQPXDG9eK6ar1juqSz61MpVpWPVfCVkMOF5CMD8fmIQ1/nJreidUF/w8HRhIqBUtPWSZJSilWFWpV7VfEoNCw9cbX7VfKVKVKVj1Xy5BlQLqeYTK1elXtV8Yt0YfzICE3eTaNA6P7kVXRTqyyY7KvLWJaMUXYdO62uqrKiaT9oB1cKq+aSNFBOFB654KXeumi9XiJ2osqNqvlwDqoVU84mVL7iyUeUPri4UcRtavPOTWzGQvupDiq4AuFuyKiuq5pP2QrWwaj5pI8VE1QdONV+x/udSNF86CCaBTaHL6kKNLR1UCcdkSVtp7JgwAAQ6P7kVfe+rPk7RqOioQLl1Ml9dOGsOCgsQq9tWpV7VfNUtCVdUHzjVfELVUVRVgFXNl2uALx0MwCaw4Z8/yxXDkx9CoPOTW4FRX/WhFF0BcLdk7kVZ5Zu3eQFidQfi1YUKzVTX0fqK6gOnmq/UgTFbOqgQOq0uLLWGCYhAAYHOT26hnuS0r/qQohNE+zmCF2Wl0LwAsbo/f67KZzXkaV6AWN1I8QpfOtikJ4DrnVcX8idR4bXDFgZiQAR6R4Ac+9y5cDJhvgX6CKjo6APFH6iDLx1sUBMwNYKf2DC1xYQvHYTVg03hllu/27YVzI8IVCDANuPpNZwrGmqZjFJ0S8AwOyLwIwhcm+dUWI6l/cDq5gFBuXecy9rkGxjeXb6L4eH6yGaGid+XR4eIFP0oglgeEXgFAn9MT8+22oqDEE2S+j3+KYuU32JM6Dk+MU8eONoiK4+taQW30h6LdPm/t5uBio7eoMSKEIHnIHDR3ZPDLfZWGTEnKy6e0yTUuiB3pWmVXeoR+2ldeV3FfI5vaxLmE+OP9qSqeKz7KEU/hh+WRgSejQD4nqab2DA24+gXUPRcaWRftWoyMsOYEga3TW7pjkJKSDwnE1L0c3DFWhGBnhDYAkODo+vYBijlaKTonvDNqoEPlYSiQYrmih7YQPPdARUd774D2D4iUIfARSf+YpbtrbSPdR0/QNF3eDUphX7sMEf6IqVokKLPZOLc+J6Zdbfn+ddQin4+xtgCItAZgS0Bhta0dbYzTMzRP0DRM9gAUiUEzZvEqeB/oLd9tJXhjcB7cEP+rAN5/1QoUrTKzcM8iMB7EDiAlmPENhMnfrraKeLoT6Dola1mtzeTE6GqBwPVfA230GI7psFubGzjSdOCvS1hG0q2ifubA6foeCrirV35Dmekb4UQG/86BOBXwbeb4ZsspqPjHP107lCdBqzJp+yqgKZjEyOq1KuaT6xbFt/aZ4OlW9fNHQ6388xWmzGVVdZbGkrRvUGJFSECPSNwB4bmqmeXEDuVojWNcfQnUHS023Kz6d5MrqlQpV7VfD3fnRdVhxT9IqCxGUSgLQIwSahHX7ieTajI0X9/w6BotgDRrraLVuXOinwVySUYVfOVCn5EAio6PuI2YSd/EAGYKTRD2KD8DgusvSMlboSBt5gYy+PM2D7Z/XSNAiO5GfECxJsg4CeX+FGVOyvyVSTnmmAnqvlKBT8iAaXoj7hN2MkfRGAEBmeO9qeTADja8gkBJvQOduruh45vz5xFUqBovgCxZnWhKndW5KtILj0KqvlKBT8iASn6I24TdvIXEXB0QifsF3o8WWsCzi29uQkLDe9O6GnW4nINCD1zVfVTwFGiaJhOq8mnyp0V+SqSS6NVzVcq+BEJqOj4iNuEnfxJBEY+BcMvsIs4AkPftF1AxpOTBqwcaxZGM6obIGI/JdRQb9Iez1KTT5U7K/JVJCetp0fVfGmBj4qgFP1Rtws7+1sIjMBU96AZQNTA0FPiT5iuYz6fHcfn2yEELBZHsmYuf54Qaqg3ae39FB0vQEw69I1HpOhvvKs4pm9BwBmzLRIMQgxvRlwg470BSmni68xxx4a5JL5Tbjnd/4A/gqL5AsSeVhf2D2EvNXKKfuakg2ovcemKKlKY7/cQmN4OG3LcOlubkrE9YZ7m99uZTtZgHe1Q/yk/4NdQNF+AWLHbsoICg2dRyPfBjwxK0R9887DrP4OAdSVncL4WkM1Ig53BIl20daN0yjg6CJ8AxGsoOl6AKO2/AvUiRUuRe0oiStFPgRUr/Q4EttT1tJ1OmQuJXTxZCNHVmi417RA5/+l5pK+haL4Asfvqwl+h6Kd8J7V8YJCiWwKG2X8IAW+sO9rC90cwZk/cX/d0Jgas3aCH/sF4FUVDzyvE5Ypkcai/QtFPmhIWoWyMI0U3QoQZfhaBO5l4TgD+jFkQKVrzNmDycTLNTLLuCySk6L6QfKwe1EU/hh+WRgSej4Dnj8EhKTUkFK1ZgR9qE+5Es9+OIEX3i2fX2tCioytyWA4ReBUCFzrRVvSoeSOm6RB00awDDrlqJ9/tvS9I0b1D2qlClKI7wYaFEIEXImDTEwjRXBE9WuQVHdCLo26B5fRf3/1Biu4b0W71IUV3ww1LIQIvQ+Ck25qXyMneKKeLhk4cQMau8WXUtZtI0V2R67ccKjr6xRNrQwR6R2BH7sDBbCMQafAYg8P/vYbT2WF+oL0N9dkaxonu6zpERnCkN03b6jrsSc5ZvIbKHzTJ+G/vTBRWVaEorGnReLIkG7Rsev9nPBvMUNOi0uSvxbn3DxUZPm213TK8eXqtPNrLDFZ0e+xRMghoEeixVdS/s4reglbAnsdaWWknWrG+nKrf4XLdl4CHIadiZmweBty3jq5YeBUSrc3z9YSQ6NfZ4UwQ+AgBh+2HC35cq5Cf3c5hQ2tr11oV6ssXM5d6Ww859bumd5U0tjHklmXTL8GExDnpygyJrhV6eWZwdJRzwV4QMIbAgPnDuS0FWug0/T/pZEX6xNZWxQC9V9uwp4mpmRhzPhRDY6y1+Ct+Bbp8+28hnOHSCQGJfpXvE+fBin4CFpKCQBsEFox6P5M++pnCj5nxZgeS6FH5Cq2ZM56LCkcHZXuR6Gkq0UuaHZUFlNVFoufvrl0o8yl1OnubUKwzYy17oiuLNd1tdqLXit/bbDz6XPc29DNVfTol+Y4Aif6O64hWfDGBA4uGI/Iy5EIyjEXuOrFp3VY0vZ48yMUSh+xAayReJXofDYcDId1SG4fJIl3vrF1YqbFLYcaT93tJa+xSDYa0xTgVLBVrY/ldMYX2z0g05ujI3fzYAAGjCPTZkXSRdCobMhL9j97fLYRpW1/wV+SL7lN+QybeGg5Z1/Nc+pUYuUsvpF8EayH+WCTYwzv9/Uqt43wlKyV6xnYhYx2L5skWXUr6zNn0aW2wFVtsdvZA+F7msKLzLBvewhwdDQNG9n+WwJJt/J0UqkwTMhLdnVlWPM8cqyE6IaOVtNmKeCC0mNRSuqZp+lPGYssak4V78btUdbpbi3UHaB4+Wt1rLn5e5rZtd+mcgW0HAbksttymefsqJTq2/X+ckdu7L38MxJPCkCTaEz8cQ1El4SmvPp2OfUmQjw2iwW0HSHTbVwDlm0pgTUO89yRPuaAk+kiO4j0lqTfsHCnR1iqx3s+9sVj/xdr1en2yXv1eX3qIaU+VRI/YnN457q1pV1Z9w+KwS/o65UE4J+n2z8ylLColmlaaIc8GFZ5IdJ+cHEM6TTo8bFH2T0k0HB3i5kMAAUMJdMlunQekjJmgJPpEtmaPC29AraFKeouFVKXruqS/4oejL3zXtADjkTR2RL7lM42E2dAe9o9s6kqJjkYjN3O6EGoh0dYmHNECNOJ0YUXfWxGADn9DgBX9DVcRbfhuAg6NW9nkhhceV1fBHoqh4aF93a4LRZX0FvOvSiclWiS+mMEXjT2yeDAYiNoKwa2WaDoWSP97X6YTk5AMhSqf6Jk/oNeIiUQf56PR6AfWLoSjg644AgiYSuDIB77VtS/f06Pnrfaqqv/IS93hdfs5qh0YquQkViXRIR/N5RvHxIq+msEL4cFw6FwpvQNGgl2+dqHHZEdCh9mUeMdmlJ1DfhKXrGj6Ueqx67K60hIvVutrtqUVDUfH11xPNOQrCYz4kfpY0KwYt2HDaXaObf0T3VX6mItVqJLoaCa0WL7voz/S3SHe91lT6gWSmMHCij6JRIkWFzNeJdbxJvDEEepkx1wyvrf0KdY2IKWXznE69AMSDSta3AMIIGAqgQlfCG8u2dLFsLLdPXVzIOmrO1RJb7GcqnS+N55LiSYVpnNOrO/1yBe9Z/+8JY9FX2v5k0OCTT0Ki5nKbV3p1U1XWojxO+GLNv4SoYIgYB1E94oBGxU9zkub+q/tXXtfP6MJo6GDGmGU9Py4qUBiH5MB7cgfkKkwlumVoR+ITzKAu0xMmSdDhcZW7L4pSTfdzYmFHfPurNYQHwsFvLQJR8dL2MpO8v7J+/kfXZfhKbm16WtlVewuywH7QKCCQNSlGaeh2b4AACAASURBVP39A4u9bIL9gNE8dH5IyxfWHy5DB4Wy3g8Va9sOe71QrtflJ3U+nnvnDlVz2O/JDh2T/jjpz1fpqdCVXt10Dxh1WODGNf5zpSf+QaGPD8OKfsxIM4VwllHg5GFbyljSrbNit2amSAYCksAxoM7A/s7mi2Xq7Vg7ARvtLX8rRkI3EMTQQZ1QtOxVVXS1syJdxW6V/yWmm+7mxPyOKo9NPpX+Vk35QaL1kT9IOe3LcBamwS6JexSt2P0gMxwGgTyBjpxSf3rgzF44/cNpEHM28yxrH9Y+aiVf8BtbutpZka5i902FdNPdnJjfUZOkXjOtKT84Oq5E341EXhJEPpMkKt7DVux+tzSc/2sEaBZ9hwzW/XiRTF40O4iOEp6cW99QFrraWZGuYvdNY3XT3ZyY31GTpF4zrSk/WNFXou9G6PW1DA59b3gSpVVBrYrd75aG83+OwH7B3J0v3Bz79XEq3QvHEQua8EPXxFZXOyvSXYYOXr5X9z5qqW9NknqtS035QaKvRN+N9JK3wXOPnBujJC5GuFbsfrc0nP+DBDYBC04dIdIiTHfUN3ibvnJL9pn1t0J6bypZkU4OHaTRgw/DW+N2UpzaHcFvql+xIyPRct6nimSPdsPR8YjQq8evVz6fQcXufCJsgUApgWhM40Fs6gy3HSzIF23/UzN1lKZveaccOqjRb698dOFnKr+5dkjJSGotRav8JvyNN7qwomu5GsgEBD5EYHJaxOKZP5j/E8uOGB0uQwfvuSiSY/VOdv0Mk8i+zn2iJPWZDKrTqvxoRKRTne7BEUj0A0A4DALmEfBNF+cLMp0+eyJNe8+WvsPHl8oqSa3ngl/zm7DtuxKNOTrquSbIBQRA4I8RuAppc77oLeu8K9GYo+OP3VaoLgiAQD0EmpfoCXNHrPuyyMLRUc+FRi4gAAJ/kUDzEr3iwuH+8pILUqLh6PiL9xbqDAIg8DaB3nWWQCXWb2cqM8jkN4Sjox6myAUEQOC3CIjJoi4GbkZSa2GQyc93dy9nCUfHy+hwIgiAwJ8nMFmKcfQiZCQ12fHm32x+bwwwgqPjzeuA00EABL6CQFZS62hQTfnBis5fjI7nyQFbQ5oH6Y1fvnym2AIBEDCeQE2Sem1nTflBolOie5qOZiXmP4g6k+lq6lv+NLuIZ5oMn79FYDgYLdIn4QZbvv73b5AOoWiwGGR9h0BNknotoab84Oi4ED3abO5dxmxFpNYyeJdPfPwsgY6Y+bNpkR7Kr6G58z7/xtWvSVKvsGrKD1Z0QnQtQITpONSL2eR/wHy6XlBETCWwd+jn+91bwb/jNhvOGJ//o2nrxLpRCG0RoCEmtS5d2OX9OpoCiZYU1wHjIWOji0an38dVqtl1oEYef5WAv4zZ7M3Kb68Tqt1kRDZ0LMaedZl3cww7PkcgEgsXUsiuX5jfyh55HHeDWn5ypUT//NAV8TS79AdkRyc3xFWiP3d/oCRDCRw7m5Dzw/5B9aLTYnzvB73PKteA3bJAjg6OIdEPIDd/+EDPM1SKP3NlWQNm33n6ab46ogRY0QThSOvGk/vZoxkeE+qp9ZxKdbIXf3+GgPpersgB9ligLZ9uISa+3JXBYXI57JLjLtsJcfdtODpK6Hx213EgxwH2GRfl7rnNXp5bo66KQ6Kpyzp5Ochr1KHJ0i+afPmAL7qu2+zv5DNdizA7XWs87p8efkvX1pCNpnFieV3PLEQcxkuHmEWMydfUh8RAuGeKF3LEZv0Eknd8nbktsnbYwBCJ/m1Hx4bMJDEEdKzeF6bWc/pZ/52AHM0k8I+MYRHuGsTFqk9Yd0fG17xbPJDfpgnu6VntJgyZlINzsjLHrp53TDelYIcegUs3jK24Jnt73metiyOs6CVnFx/ggvGFtGGu1jMkWu++/p5UHdt2KNjbtElDoaqbwzHdLv3sk5tjdIzj0oNqZ1/6OdV2EiMr+uT16GW17Be9YvxfMQW2P0SALnZWogcs7PLDh8quLObnJZpe49gX28anbk9So/fLy9Omh6fOyjvnSw+s5Zw6atASLb9niXvk/q911Kcf+se9PrxSpR+JcxnrS6Ji8fhSf8iX8jaqWQ4bZiWa1rNiLFbvJdqpq5To1m15ajt9Dd5Z4OtlemT/0DdiOJvRlRAaPbL2q8mwdxjF1MsjmP3b7V/OGid+AQF6yzdn8x5/4MSwov629+oP+sDtBk6yUCwpdMhgRrd04zh8O2I9Knzfvfwm9w3xRT98HfIBYm1J9IYz7tHYAUYa7dPP5tw77k8uLa4ch+FIrLLM5hcj+wMQUIRxBBySzFlkdZ9yTj/biqu2e5zcHPvLINdnc0H6dwmImUkDcTFIjWYyM89t24hGpzurEzC7SxY8nw1HwtERnWzW7Xfotb64RtFyELDuyysmyMuMP3+YgMPWNC/A3n7kZ6Ym3htAaPmTjfNvMe/awSzcHvpeqVlENjQs6DZvlmjVkb+PfmeVSLN//fVsrVo/7+iQfe7ohQ090JLPY+GvYjKkLX+5Xnd2NJcShegc8G3rv6Wt3SG/VfAkFtZT6F5dzw4XYpo8/laioPkRKYSXgU83yaLlYcbpaY3sAOHOS0KwOCe+DZXcs6HQigZiCQEp0aW/6B8m1Jajg5o5kbYLaTRNl7PjNrmm/V0/FGR4d7uhX9XhgMUm+Os/fEl+sbhQvqvb8KvaRnQ70BSIV8kug7JMRDcd+JRPEi1HtpDmeOT0lt5kcuwsN+d/IT1S075DVqWzNvR6kLw9zOeFrR8kAImmiz71xJUfsdg/SS1ekWs6WBz+OYu5zQKHLOidHWS/TCI5wjcS2DLZKtXpTqeRUZede+NeN3Ff5s6YOmLY4cy5nXx8vduKL99sl3qel5zb4lUVBZ9uQDm8LdnE318mICXaBAuxRSs6vf7RasdmnhUdON925M6VFe1mPCBXtGe7JjxrpFXFZ0MEyiV6mk5TW1FqJOYZt/Y3v+LHLZnP3XPl98v7J95PnRORPpNgD2QBEb0UUXZ8RZnY/SMEpESbID4GSLTVY93hdDNjixSIfLxdumLYvsdn7b85+JGbssVmLpgbhmGczqeV1IT6YvLz85UaHsj/vL3rIhEmAGOXtUfXncQw8EfiBfbm+QJxxjcSgESrqxq5wdHax5lvY/L1GoZisvXxG+usqzIQM5vAcGTbgW2H+0w1j+So0OnRkTlFRHvk4hhUGtAqsUf9iWYZA5x659tLZq/HMz5WqRD7VQJSojXuo8b5GGBFOzTNTTSjWUmvjU1nvBuJoV8hz3yPrkkQ+W4CndlpRUOzH/WLnhSXupzSiO6F5g2zczl30rtOKPSqL7oXpQMOvxvwy63znK182pUreEcHxzl8Z7crWNHXW2Rv0+ueQ8aGphf5l4P+nK+sNR9d0yLyKwSGc2azsxXfHbqyJG8Fs8V75UvwlwEL9F0V9PqDzRNDSSr0lLLjc8ZUhmnG+LwSoN9Aeri1dkxMMEi+qHS0yTXBl0Qg0dcLeaJvYoctrtsUSSXamto0AHjQ/qxX2coh/hkCyy7jAY/vFEZuie3Ymak0/oFmEtjfOePm0Mpl4q20GNdGQ49D6vpJw163N8mwQxGITvKxds5FRxrepRlkk0ldVYrviMHRkV5H341X1kgOVEh3dZQV0ycnyATe6JTMb33u4mBxzxl4pmcsCrNUxiOaM/HZ14tDsgPFOTuxSuJhNKQJGIWNiFBNYMykI8kVDzg8Jonmaf/F6nP+4BFY0elFW7H+6pgb3XUZAyoTRAHdCN30O5ieg08QIAJjdupRSCcj3c9YcH3+0gdE00krUYZCPwaXlWjp6LjrjHqcn6EpINHphenzyb6fmEPJrmifHhKfB5ryymHH7C7EQUASIHGVIVlWbd99cSzqjl8f06DQj26t84B+GZUVHZ36s2Tz0Yl/7jgcHeklW9jUaeOydmG6L/Pp0SSFS3RWzRD5jSj16FDuroom70dLMUfHSTo3hl3WlT0NKhLf2U3CTD3wKVAE0yndAUWHujZZTEqire99mw8rOr0T6J19J6jusxHRyK8pT75B6Sn4/H4C1KMjeCzSNGb7goLGbnf3r2KhMeCyK3QXCv0I4T9GPRWF7/l0YXb4UiMak5FebwWalmHDRsIaSkPeq0HyHeGbc8X1OxGPut3piHRCZMDemSlglyzStrzM1fE7kJ9u6XDWjeVTy9iN5UxXX8sMjo705uALkmh6X+Nf/+072df4Ab0rxMQJKa2f+hQirTll+JjZ8un7VT4ODSvMnzs8ud2v7KmQb+YLW+mDywun/qVT4OhIrxb1Ql1eX9dcdnrpQfoMZpaFnqoZIL8U9RbSAfGwyR3+7uuKkVjjJROmYpjhPLcrcxTR7ycAiU6vMTkyvKIjI9t1io4PM72i0tPw+ZsExmXGchS/fYfs45ydQJtB3+XQ6Nu77NgxKBQefW5r+/oeODpSdjTbb8e9zuSe7M1I9J6+OcfLKs3pKfj8XQLFX3NJ4sC6bz99dxjL3Ha2WFPz6BZM69/Frlq+ufR0NOTjxU48qj2VMVjRKZotvR8W/2dD5ruyoyfYHdP0SGbzQPyPE4h6vZIZn8skusN45+3G+k5G5ylH0eXvaF9mkn479+/JYMwOfWPCqMHuJJDo9KbtMY80eJNuys90pjvaGNlDmqTjYRfZ3OnY+AICns3JULvppny7x7Lmb7s5BC/yllxHj08u8350qVc+Qo7AZeBKbl9rG01WBo6O9LKu6fs1tHOeDt9LD1KXaOoyLQaBI/wWgY7Nz16veyO+JRK9ZEH+IexFUkvmynwiz58yLo0G164l5xcrZORpTari0w1usjKwoq+XY05fgwP3rttWulC72LOlR9gNzRuM8GMEttK55dtuod23Eu3TCoaFRC9uzpJ3Hic28geMC+dap+zl5Iu5f8lpTari04iarAwk+no5drxn7YP4Yq7Q+JWM4eKJ7nYhTJkrrJ+JnPlsL2ZoyT1eUetvJXrD3LffFSZYvcQc79h01zkXO1ocgZst4SP/NqmKmWL0ok1WBo6O6zWIYnpO3TFyaMiQ/bodA3d/22v6eiYiX0zgwLjNeVyUx1uJntf3kDVPXM8rMWW0w5OX1OvzjKX2wxfjftS0Yfqk0qQqPqrEzfGkMhvHcf55Nwff3AErWgHccHopdGCDrDjLo+uYr3xa2bD4NVWnIva1BPzVPJydr/fEtjuTgQXJZyx9xdT6CavvIWvDaAUJCivqyUFmtEdjXmkNFgph5slOpvi1P0OXX+ZlME+iIymmtU9YDInO3OQj0aFjy3Jri9JhLxD+QHkwkxjRnyTAbDcW/2xXfrrXp65/t3b1y4D84NI32rNJl4UzesvYdjNxf16jVyzt3maeRFvD9fpUf9cbODoy36O9K/q10jQJ44yxMt3KCdqdGr+BmSIR/RsE/NSMLt4G6Tap6vt9oq8sDuKBTgQvUWiaJET00af+0bUbabKYv/PnqszXiAl1TysTBXW9j1CtghWtWNDDqi2Wy/Bo0K2TvCycbkZkvuzFlIeL9EuaPQHxrycQDUXYph2jU0lO251uexffRLr/vc+OXDNV5DERwu+xZK2JM2e0ssRPh1QM0wn9zYCR1mpcvxGNyUjzl7gT0BqFlr/r0grMbuDSYyYfUX+naMR/3guYB/UzW2PpA6a74dLiVJKTzYhWg000819uao238bjZUeDWv6Rb9pmWRMwMeH27kL+YQSqGRkp05NZvRCcS3eAcINp3QV98FRzt5E0lXMdsIb5z6/F2Ec9Hh6V4Rbh081/MpgpHvuYREGOvKYh5DmXI3wkO3bTJW8I4p6lvt+MfP6k8Lk4UsqExxtBoiR4zMvDqDnB0FIgOD5z/u/xmJa6NJa27kb62LyTG5vcTOEpZ7KSO5rxEH8WyheJ13p7Rumo1hk22I/aG2XQrkg0NhaaZ/y7Ps1etrpH6y1ldKhPHiWS8nE/ZiZDoGyqdkCboPXnClo6Ou38utw/ClEYAASKQl2jLZywQX8sNW9SKhyRffdsn9D7EOnMotGVNu/Y8+TaaKNH9JtxQUqLh6Mh/vSYHMY864/SPsdkYAp3H89NbBYm2LjMsOXUva+lmV5tf2XwGL0f+vjNRovM1rGkLVnQ5yMnO+bfY/usvf/wFejmdH957K9GOQw7IRWGOxLcJLZL5ky750BgW+KHzTCHReR7NbxnyurD5hqKEP03gVqKZ6CDXzRq9dTTQYadsNhvOMn31s0d+Nf5bEg1Hx6/e52j3swRuJNrlW+qWWbuCjsXEXZlw9DIb70e9rfMveQd+lJ0Q+gdnkL4RfT/3T+TwWxJtwsM8rOhP3Nco410CRYlOhgHuWfBuxoXzl82uNj8T71qOVObEZvR3J9690KIVfyiM2eYTaxeutApx0mHpDQCEL7oBqMjyewkUJTrZPtY+MLvD0p7YjbA8sZXHhZ1+lhLd5UeaXkL0HrwTOnPuTq1oa8JDN1VcvMs3J4ifu2aClGgTmMOKbuYCI9d6CZRLdP2COqlrQPlwMAq9GwZ9trbmXOz+J6zoLlt1Do/eeMasSxo94eOb3FrZcfrIyoWaCySmU6Q2QAJWdANQkeVfJuCXPdpeG1Qu0avareh1Xa4TWhiA+vl71wYkkT7N9SHFOfkrl9N+NJlqd24teezVNy12oU7YLCUAiS7Fgp2/SsB3Sx+gefqkyRa0Hk8mJJJNyw3WDGzNpI1bS657x2bz/KgKkmh/Iezni1D3Ttt8F5KSgkmiSaNdSHQJmwZ3wdHRIFxk/fcISIdbiYuT5EmGm0NyxaxV7Z7jWr3b/jIuVJAcHcNArhuQ2NKWNXu4YoUrpk2n3n8NPtT/vful+RrDim6eMUr4OwSONxKc7rh4YFnYG/fG4r/kgw1E42rzHF9JderyRVvHzibk/LC/Zi0iIXMD+XrQs/lWDDX3kiVtc4kKGxtXtHWXG1NTSILN+glAoutnihz/LAE/ppUKywJ5PxJXR7kvelq7o2PFUrv9TZgr+o0pCjTNf+7OYrlKZ2fmHkQJU0d3aIyaO+TNmuF0LQJwdGhhQqLfIPAvtZlLPhNvc7lER0z6dWuEpNY5fjfTcf9kwsCHd5vxs+fDiv7ZS4+G3xDYlyiz2uWJ9OUSbQV1r4bST2bxj7xWjdZzdhT68EQDESPxB+GDBCDRH4SNogwnQBMzJ4vHlvwNkh4PFRI9F8t01xkGsuPEgbOurgOiovShGOe9Obw2tKKbrESeZN2Vs/nF6NFRQbqh3XB0NAQW2f5BAmdlMpfEpFxVSHSiqDU2eSY0f885z87t/0r+A3qhSd1U5PK0T5+fl2g53rEDiX4a41snwIp+Cx9O/iYC/qBEmNUuOQ0HC2YyuN3kk8uXbrQkiuzZURsN32ZixozpdPDuWgG0dteMzXc8aw9rVzMv0fIF5gQSrY2vloSQ6FowIpOvINDlSpBvYjbbUyNDN3GCpC6RIFmsqlPz8MJrfjHz3kPrsJDNIl+MO3k+5CTaDc6bzebfwyEuzxeDM+4QkBKddCe6k+oDhzBHxwcgo4i7BCIWxCVe6GSfG+emGSo4PHwuBfxu9s8cTK3yTrLu1jOnFtI6bO1F1t6OC/u1NnMSfUp+wOzX3Npa5SHRLQFY0bdMsOdHCUxvLOf8jmz3hoJE07IrtfZ0CC/ZOYwvup13rofDRZe70WuLtuQk2pqSEb1Zvvn68p22/OS5kOifvOxodCmBIBxWh35uTuCiRI9Z4pQuzffpnUPOk8mbhzENPMlPr/FkZpH86Vi9lkdeop8sGclrIQBHRy0YkclXEAjvTcy/zc1rVJToKXs0UdwzhHYsvPSHjkZtDDwZ5R8f2LvdSp5pO9LmCcCKzvPA1i8TOEmnQAWBOPfCrSjR1vw1V0J5YWGdmVERU3JHPxNieyRDGCafr3mynykRaasIQKKryGD/7xFY5t4I5ts/TJbASnfeSHSP5yQ8TffS55Fd/BwvnX170oK8Jdn56dYlU2LnVsUqOjiK27dFYE9TBODoaIos8v17BKaFNV2zLejlDdsbiY5s9tZrvWxZh3p7WR9Z18nYwTRksSRwOZvSpRZFSS5uZyuLeLMEYEU3yxe5/ykC8XXq/mK1o27eCdK/ef92uIxiKZ75/PawRrW3OrPTiiYaVf2ij6UKTXZ25hemKMnF7efbhDNeJQCJfpUczvtCAsdKb4WT8xSUNX3K2bFs//P7TnWu/j2cM5tGmyhPerfEhJa7umrGpqIkF7efbxPOeJWAlGgMXXkVH877MgL9iuHNnUrtVgAO747VvmS15/W5TESWSxLlgKdDV068fEZsWuJQ9fsuSnJxWzUasaYJwIpumjDy/0sE/JldNrky7X5sIZO0enW0dVBrF2tRo10cLC522LrKhhb7J2n1i5Jc3E7T4bN5ApDo5hmjhD9EYJLvuHGp+U5rwb4+i5/r21bKZcX445+D0jN1dgb3JFpOZSdyKUpycVunJKSphwAcHfVwRC7fQsC7eQ9ILVvvlJ+2uqF+LGdUrk6gcySKMw4HnROeS8NZ9TQk/DpypyjJxe3nykTqdwjAin6HHs4FgSyBFc92i8ge0Y8fajHFVXnUoyPT5ZlW8LoX9pfzipJc3FbZI9Y0AUh004SR/w8RcJi7f6u5/pLV+67Qoh4dgRJpsdjsnbC8VL4oycXtt9qIk58iAEfHU7iQGATuEfBnfKHjEqnM4xhQH+aag0fd7lKRPvM7Aq36dBQlubhdcw2R3R0CsKLvwMEhEHiSwDq4GXb4TA77+M74xmcyyqcVIp0YyCGvnBCbfNQ8fV9YlOTidj57bDVJABLdJF3k/XMEPP6GGRzN+KyGPiEl0L3FWO6V3/dqQzp9X1iU5OJ2SQnY1RABeckwdKUhusj29wjsmFYHvTIwEdm4+7ID9e1z2KR6Ruw1S+fpKEpycbu+CiGnRwRgRT8ihOMg8BSBnnLpPnWeeLHnNm0tbfimulLedaaobtDPheClxWmrS8IRfQKQaH1WSPlrBLbzV1pMGn144Z3hesbcRsasRLveOM14fa/ntlpX5maAS+oBeYUHznmLABwdb+HDyV9NwH5t2uYNZ4tMX2Q9RCuXxY3Y0B7NvsGus5sGi+rqbHn6y9KN8zNKx7Ciq7E1fARWdMOAkf0fJmCzp5VWtnYVsLjzXLvPnIevFfagnI7Nz96um7qZZ9Xrd/lBOtUSBoA/gPrJw5DoT9JGWX+HQHQIQ87CcLB/oc7TLuOnJ/pmrGldlH8vlKNxylasJONH6ZT+J+ZUndRPZRxzdFQhamM/HB1tUEeZ5hM4pl3TnjSHk5ZFB8a6ZbN9lDXcpwElwZ3XeGXnaO8789ne8p10MlV/XjVG/cjVhNHFHhzFbe3SkfBtArCi30aIDL6TwHGzsdlu85JCExGPvlqj9C3dXUIbms95tL+b5J2DB8Ztmjwp9aJklTibbU67i5Jc3M6eiHizBCDRzfJF7n+ZwKu+aNnm6MQZ3z4SaX8zYyxO58ZoApa/Ckfzc/oi0LL65Z06zlkPSFGSi9tN1BN5lhOAo6OcC/aCgGW57Al/8i2w6YAzttjdHrju2Z9iWhFlrPTzeqS5CC1PUFae3c20VcpC6ukRn25z9UHO9wnAir7PB0d/mcDyXQfx+kA93oLtJvUy5GAezyGJX3eckcbc8Vo3fCXL015Zzrtsj79dOJLBtpPPcFx2CvZ9ggAk+hOUUcbPEhj2ZowcHvPDrpPR6al33oqvHh95jZOJ5Ijv7UsdRuDgaPzyPCxASnT29/PhGQ0l6IvHKaehzJEtCLRH4Nifc3F3syCeh/EsnLmk2Zw6cWx3GdVuqn40Z4gI/CVXBSS6qcuiny+saH1WSAkCLxKIlv1RnOi0FMxgNhhf13J9MU/N09Y2G1AI0nlGNU9LkkGin8LVSGJIdCNYkSkI3BKYHlfebul11h8wnlXpa+l67rzUeRASrTi2FZMSDUdHW/hRLgiYTAAS3f7VgRXd/jVADX6NwPRMdvRmY36zIdHtXyNIdPvXADX4NQI0HHvYf+0FXvOoRtJb3sKfsPm2/cUS4Oj4i1cNdf7bBI4uoy9eaffkDzfMC24mEokvfaFFj+gwTPpFf+JvOtHThwkYXxysaOMvESr4fQSONKLFiNEgzu1Ki205N9oq1/S7CxJt+hVC/b6QwJn8CPOPjCp8AA8S/QBQ+4elRKNHR/sXAjX4IQIbxvouu7P+yWdYbMKQlnoJF54aHE4Ft2XNtlXuZ1i/Xgqs6NfZ4UwQeI3AmO+sdfzSYJLXCiw/a0FDHEUY5A63JZVtlZtrvIEbkGgDLwqq9O0EpNmas13baHG02YzYdrPJV6QtqWyr3DbIP1MmHB3P0EJaEPguAvBFG389YUUbf4lQQRBojMCJnYt5t2XNtlVusf2mbUOiTbsiqA8IfI7Avn8zX0hbUtlWuZ+D/VpJcHS8xg1ngcCXEmhLKtsq1/TLCCva9CuE+oHARwm0JZVtlftRuC8UBol+ARpOAYHvJdCWVLZVrulXEo4O068Q6gcCHyXQllS2Ve5H4b5QGKxoBc1fdfSCbjq93NpLZcIIZIUfMTMItCWVbZVrBvXqWkCiFZsZl2OtfudPrNp+N7bp6YWTXjKkqiBgxMRKGAB+97vw+YNwdCjm3aCvFQL3UbLFPKQki3AezpxHaW+OO/PZINnp0MmUyfyyeZPyzR1BV7X9Xmz9Oz9aLbf0po/yvcvS1LG2rNm2ym2KY135wopWJHXvkYfpJmSOry3xl/GDyl8zdmIsmdx8z0/WUYgGzejQRHjYjkuhE3bwdEJPM51OXnpp+jOXqrbpzmbx6fEZTjybdZcy3fKw9Ha0Gfcfn/axFD0z5ifVvS3qviXbKrfudtSdHyRaEdW9Rx6n28fChzBdD16acTK0Eyfxga2sCTutVzxQlawx9rgdSWETNvatx/+orlrpHuekm8I62yz0rQW3bW77j84ackrHDjJdO8B+twAAFAdJREFUn9A6jE7jq0enfe448avx6r6cle5t8XIBFSe2VW5FdYzZLSUak5HK66F7j2ikuyThwStv5Ba2rM6U02yVE+Z0lu1LtNb92oLEyCID17L+seOjOi7FWOdkaY9I+Hj6bEoPKa3PCKqq3QI/VbiKadzeKnGNsbbKrbEJjWQFK1ph1b1HNNJdkgzYNj+LmCrsTuwi0QfWsayO8HOwth0detZdCxIji3TtcW/G9neIykNLtrQsdy7ifU5Lu/ZZv7ctTMT5KI9Gj7fAr6w9Grd32Wlv72ur3Lcr3nAGkGgFWPceeZAuClfXt+Jb5qj8dWOJREsjmqzoUd8hqW4iPGjHtUhd6dBNd8343chQ+FYs6yz89Y9ffSqJjgIxVfNB/Pp1X3nMebfeFed/nF95PaSTrvxQo3t1b8dGK2Fg5nB0qIuie488SDcly0w8e0/CCT1Iv7CscSLR/4QRnWiQqmKtsQftuJalKx266a4ZvxnZuVFSZMdbSFj381MS3Rf2NFnRO+9mbdX7WTR79NP8KlrjNvPmo6I0tVv3dlRn/EYMVrS6zrr3yKN0AZeLHk1t7nIuxOC5sLTZybKGwhMNib6HbsA7m2R11CnX+CVcirTCFz1MehsKX7RRwRCJnpN50UZ49LVqo04mlAmJVldB9x55lG7jzmLxBnYVz2LyeT4bNm4geuo58iWuf2hORx61I624rnTopkvzffdzJRwckpLooPEwRLTqNhOOp400osk/0hzah5UpS/BpfmV1oH2Q6AowLe2Go0OB15Us3XQqZzNjuu3QlQ7ddLXR6G9HPZnZWudZxV+Go9GIfM/75HczauYl7Out+zi/8qpCosu5tLUXVrQirytZuulUzmbGdNuhKx266cyk0X6tDOEHiW7/VsjWABKtaOhKlm46lbOZMd126EqHbjozabRfK0P4QaLbvxWyNYCjQ9HQlSzddCpnM2O67dCVDt10ZtJov1aG8INEt38rZGsAK1rR0JUs3XQqZzNjuu3QlQ7ddGbSaL9WhvCDRLd/K2RrAIlWNHQlSzedytnMmG47dKVDN52ZNNqvlSH8INHt3wrZGsDRoWjoSpZuOpWzmTHdduhKh246M2m0XytD+EGi278VsjWAFa1o6EqWbjqVs5kx3XboSoduOjNptF8rQ/hBotu/FbI1gEQrGrqSpZtO5WxmTLcdutKhm85MGu3XyhB+kOj2b4VsDeDoUDR0JUs3ncrZzJhuO3SlQzedmTTar5Uh/CDR7d8K2RrAilY0dCVLN53K2cyYbjt0pUM3nZk02q+VIfwg0e3fCtkaQKIVDV3J0k2ncjYzptsOXenQTWcmjfZrZQg/SHT7t0K2BnB0KBq6kqWbTuVsZky3HbrSoZvOTBrt18oQfpDo9m+FbA1gRSsaupKlm07lbGZMtx260qGbzkwa7dfKEH6Q6PZvhWwNINGKhq5k6aZTOZsZ022HrnTopjOTRvu1MoQfJLr9WyFbAzg6FA1dydJNp3I2M6bbDl3p0E1nJo32a2UIv8vSmR/noXs7frxiLRcIK3rppZdA9x7RTZfma+pnoR3TqoXgdaVDN52pPNqulyH8INFt3wj58n9eoj12XaqtIFl5UJkt3XSZU4yM5tsRudtcLYeLVLJ1pUM3Xa4YbFwJGMIPEn29IkZEft7RseW0ml0S8pKV7r391E13e6ZZe/LtOLPcIl7+jNMKijLoSoduOrMomFObNvn54fUHGhJtzi0havLzVrSlhErF7l8j3XT3c2n/aK4dURB3jpk6RTEbXzZ1pUM3XaYURDME2uTn8OvDJCQ6c00MiEKilVCp2P0Lo5vufi7tH82140BLr3KxrG0alGCoWHqs/FM3XfnZ2Nsmv12yKrq4CJBos27Fn3d0wIpObkg76PcDO3NzKsFQsczhkqhuupJTsYsItMpP/V5Dos26G2FFq3tTxe5fI91093Np/2iuHSy0rJBlKqUEQ8Uyh0uiuulKTsUuItAqP3UzQKLNuht/XqJ3Nk99ruouvX+NdNPdz6X9o7l2xGw2426mUkowVCxzuCSqm67kVOwiAq3yUzcDJNqsu/HnHR3jIEh7Lqi79P410k13P5f2j+ba4bluHCxVpYYu46tkU1c6dNOpQhDLEmiTXxTH0aUukOjsRWk//vNWdOYS5CQrs78Y1U1XPM+07fvtcGbbYVJjXenQTWcaB1Pq0ya/f4wtLhwg0abcEEk9INHqetyXrOfTqTPMjOm2V1c6dNOZSaP9WrXJ73hyJhcCkOj2b4VsDX7e0ZGBoStZuukyWRsZ1W2HrnTopjMShgGVMoQfJNqAeyFTBVjRCoauZOmmUzmbGdNth6506KYzk0b7tTKEnxESfQjsgHfbvyYG1AASrS6CrmTpplM5mxnTbYeudOimM5NG+7UyhJ8REt0LQ+pj1P41MaAGcHSoi6ArWbrpVM5mxnTboSsduunMpNF+rQzhZ4REW9aBzdM+Ju1fmjZrACta0deVLN10KmczY7rt0JUO3XRm0mi/VobwM0SiF8xp/5KYUANItLoKupKlm07lbGZMtx260qGbzkwa7dfKEH6GSHQU5qaMaf/ytFUDODoUeV3J0k2ncjYzptsOXenQTWcmjfZrZQi/bXYagA9Syd2O06EVufyDpZtbFKxodW1y94jafRPTTXdzomE7dNuhKx266QzDYEx1DOFnhETP46UXQKLFvQmJVt9QXcnSTadyNjOm2w5d6dBNZyaN9mtlCD8jJHrJOLtOWN7+pWmzBnB0KPq6kqWbTuVsZky3HbrSoZvOTBrt18oQfkZItLU6nby7l2Qd28GUUqxcMSxyZNu2e5mw4O5pf+8grGh1zXQlSzedytnMmG47dKVDN52ZNNqvlSH8zJDoh5djuOUB9cobBqwnJgl0wxn/zi4gkGh1L+hKlm46lbOZMd126EqHbjozabRfK0P4/RGJtpLFOIYLtrOsM6NJGvm8/WvYQA3g6FBQdSVLN53K2cyYbjt0pUM3nZk02q+VIfz+lkRbKyHRS9Z1tuy6Qm7717LGGsCKVjB1JUs3ncrZzJhuO3SlQzedmTTar5Uh/P6GRJMDOrl/V5wkekgrb7Lr2hztX8o6awCJVjR1JUs3ncrZzJhuO3SlQzedmTTar5Uh/P6ERO9Jjy8SLazoMRuvJ3/T0dFRN17H8y6raKh9l0536+yeluJ98TvYrr9fV7J007VEUrtY3XboSoduOu0K/lhCQ/j9CYke8pkn13Hzd4xWTeqxg7fhtPzm3wq+c7aWV4329pbvezctgBWtkOhKlm46lbOZMd126EqHbjozabRfK0P4/QmJtmZk0ZE2W1PO2MSKbGHhee1fw6dq4I8466/2F432ZJ/BW42GRCuoupKlm07lbGZMtx260qGbzkwa7dfKEH5/Q6L9c48621FYnjb0d90fjzMrb8ojxv/Zit+VgTWV3g2yoUXw/aKvQ0o0HB2Sjq5k6aaTmRr8R7cdutKhm85gJK1WzRB+f0OiW71StRTubzkbzTg9C+xJlZf7NNNSiRaDdNoO8EV//ApAoj+O/G6BkOi7eL7t4JzzkTUkh83YmnpLNTISEl19pXUlSzdddUlmHNFth6506KYzo/Xm1cIQfn/Eil6OBuaErXC2PBV88nLMfZJozs7kUd+rk0slGo4OCUhXsnTTKepmxnTboSsduunMpNF+rQzhl5Podczd60wY064d2LzfECnd2/FSvHTRCmeuESF4Eoo/Yiyk8etkRIuXnplQ7ouGo0Mi6sYdrRBrptPKrKVEKyo31ly+U1c6dNNl7kdEMwQM4ZeT6OHWtklJpjanl3PRNgztxuafe1Kiu92hOWGu+VVKr3YUc7b1aetWoq1SKxoSLdGZ9bv8AePATe+Y+58Ttu1phPFJL51GVu0l6bdXNPEb378Qnzm6ZUI7rkEq51TOhEH7Yk6P5c2EpyW6mWq8lOuTEi080CNZ0HBeNKOP+0IN0KNDAZk4fa1w0kynlVk7iWQTTsXfa4UiFxNdTxE+QcAIif7H1Ksrug8S5ZQzYdCWzcXUn42EH5JoW/S1S8Kwy9i/K8/pZLPaX7eSiJRoWNEFKtjMEaCBqVpho5XK6ETLVmuXo97WRlai8zNhUI0mgX0dDVdzBX9HoiOaT4Q098BDel7xuowLW8nvnMiLJKyhYNE/ZthCojMwEK0i4Fs6/+g+w7+XCVSx//T+jEQXZsLwqV/BpLFh1r8j0daAsXh6Jjke+JbHGaeR3+OYMXfknE/nwyLgbEYTj1yClGj06Ehx4BMEfp1ARqKHbL60xRuLZCYMeinhnVlTM2FoSbS/SGcc1Ur+qWspfdFeENDaL1rewx7ZypyRv2O75CyYWBuXuf0jvZdNQscJWDfNCFZ0igWfIAACRCAj0bmZMFaWvyDDT65G1QQoLc11eNq9TSt5E/Usy1NK9HoRhq5YW0Aj9IhkTC9hBdDJcMRcYTVP/Mly50mD2T8H7JC8toVEa/BEEhD4HQJZiaaZMJIn7mQmDH/XO+feJdZJRUtze27avU0reZ31u5dX2qNjrz0hap/ZeytaCIU+xuxABvT+3CXBpmCHPbE5YvO9KFNKNBwd9/DjGAj8EoGsRH+y3Xqam4rhpafJJyt4p6y0Vo6mEU1ZSa9GNAvOO5s7nrcJyeOx+HdynNMoYLZDh/usK34PYUXfAY9DIPB7BCDRz1/zi0Tv7fnT5y5j7lnWxuYLL+3P6G/m3CVXdI+JLh+Q6KeZ4gQQ+GYCkOjnr+5Fop0XpqyeMZrfw2ExSXIq0VT+LhDDOfui+zQcHc9fD5wBAl9MwGiJjrruxRmu5xf50HVKJHr4ghF9FktNOSwUrcpItLXuiqUYt2Rhw4r+0EVEMSDwNwgYLdEDxhcJRgMleilcFs+FvT3rUEfGhey8kZVoa9ilES37IPYh0c8hRWoQ+HICRkv09Hy+dG4wUKLF0J4nw4FUfc3j5MScRFvTgB4YxmwHR8eTTJEcBL6bgNESrdAbKNGqcrqxSLhGFrxzlMti5SXaWpIPxHe7sKJ1aSIdCPwEAUj085c57XT37Jk9elfY4fRO0DrS9EkFibbmNDL8xALRVxrTKD2LFulB4FsJQKKfv7KvSvSIRzRhRzJp0nHlFQr2aEGWtRgmztjzLpRCXjVsGrB2YQ2tQBYg8NcJQKKfv4IvSrQfLCw/uE56si8U7LvkBqHJ/2FFF8BgEwR+mcA/9vEZWZe0CNBKdxGgy7WJg08sXTjSWyExiF+6Y9a0KtaE9SvP3fKhRWscQqIrCeEACPwegUQTpDB89o/mIkCXKxJ+pHLShNUo6flRhaIZS74hZ3P1xEtj1qHjIsDR8XtfRLQYBCoInMfj3vhj//eosPO5d3Z0FwFKa23OyoVUk7RSz332qOvziO2yy0jkXhkuSb5p3lIKeF34HFmkBgEQAIG3CfTJSl7QOmRqJQxr2MmosXhfOIZEv80ZGYAACIDACwR6JNGDooWcTuVP+XnUJ28nJRqOjhfw4hQQAAEQeIfAhhwZDstoMmXmZzZ7dEx2dSvK+DuFvnwuOt29jA4nggAI/EUCE3Jk7BhNl5QNGYk+0Cq0/+DoyNJBHARAAAQ+RSDiW0v8nwsZie5SX76Z7FQCR0eOETZAAARA4AMEQupouKDOz9mwSpYspF1HmqRjmIwuzLxDzKb9aByOjo/iRmEgAAKtE+iTs3lD3o5MOCbDwcWef2xCfhDM0ZGhgygIgAAIfI7AmpGXIw4uZvSQxljSbEppOIqpsWeBnOkOjo6UCj5BAARA4FME/BG9EFwKnRYhGg7lorPJlj/nR+p2d5ISDUdHAgV/QQAEQOCDBDpsRMtflU7TMRAOkJm9h0R/8HqgKBAAARDIEhhQ1+honndHi+P+QdjWfRJvODqyvBAHARAAgQ8SGLrB0RrO2Tbj4qDipyEb+daK0/RMsKI/eDlQFAiAAAjkCHR4vLeiLXN71852VnSyueNbxyCg14SQ6BwvbIAACIDAJwnsmFhddhOzYLA7Dof7SW/E+ZwGsHQCu0MVgaPjk1cDZYEACIBAnsCG2x45n3dzLsd6M84XYgrpHg/kQENY0Xlc2AIBEACBjxLouGwretUNl31n5Jw94ZaehKybdIaGRH/0YqAwEAABECgQ2A8YH0zIkk73r0aMny4vEM1ydIR9BBAAARD4NQL/YsaC+Whw+HcYjLo2410nRSBXADdm6Erii8FfEAABEAABRcAEiU6mRVV1QgwEQAAEQEASMGaODlwPEAABEACBAoHCfKWpy/rDn5ceJ4W6YRMEQAAEfpwATSttQIgO4QABBEAABEAgSyAORvnR4QaoNaoAAiAAAiAAAiAAAiAAAiAAAiAAAiAAAiAAAiAAAiAAAiAAAiAAAiAAAiAAAiAAAiAAAiAAAiAAAiAAAiAAAiAAAiAAAiAAAiAAAiAAAiAAAiAAAiAAAiAAAiAAAiAAAiAAAiAAAiAAAiAAAiAAAiAAAiAAAiAAAiAAAiAAAiAAAiAAAiAAAiAAAiAAAiAAAiAAAiAAAiAAAiAAAiAAAiAAAiAAAiAAAiAAAiAAAiAAAiAAAiAAAiAAAiAAAiAAAiAAAiAAAiAAAiAAAiAAAiAAAiAAAiAAAiAAAiAAAiAAAiAAAiAAAiAAAiAAAiAAAiAAAiAAAiAAAiAAAiAAAiAAAiAAAiAAAiAAAiAAAiAAAiAAAiAAAiAAAiAAAiAAAiAAAiAAAiAAAiAAAiAAAiAAAiAAAiAAAiAAAiAAAiAAAiAAAiAAAiAAAiAAAiAAAiAAAiAAAiAAAiAAAiAAAiAAAiAAAiAAAiAAAiAAAiAAAiAAAiAAAiAAAiAAAiAAAr9M4D9inNUAUbGnOwAAAABJRU5ErkJggg==;" parent="U3rNr6C6E1IXeNHttjAs-13" vertex="1">
          <mxGeometry width="5203.25" height="3630" as="geometry" />
        </mxCell>
        <mxCell id="z_r0zyh52eoSOESYPmUw-7" value="" style="rounded=0;whiteSpace=wrap;html=1;strokeWidth=8;" parent="U3rNr6C6E1IXeNHttjAs-13" vertex="1">
          <mxGeometry x="710" y="3090" width="160" height="220" as="geometry" />
        </mxCell>
        <mxCell id="z_r0zyh52eoSOESYPmUw-8" value="" style="rounded=0;whiteSpace=wrap;html=1;strokeWidth=8;" parent="U3rNr6C6E1IXeNHttjAs-13" vertex="1">
          <mxGeometry x="860" y="3090" width="140" height="220" as="geometry" />
        </mxCell>
        <mxCell id="z_r0zyh52eoSOESYPmUw-9" value="" style="rounded=0;whiteSpace=wrap;html=1;strokeWidth=8;" parent="U3rNr6C6E1IXeNHttjAs-13" vertex="1">
          <mxGeometry x="1000" y="3090" width="140" height="220" as="geometry" />
        </mxCell>
        <mxCell id="z_r0zyh52eoSOESYPmUw-10" value="" style="rounded=0;whiteSpace=wrap;html=1;strokeWidth=8;" parent="U3rNr6C6E1IXeNHttjAs-13" vertex="1">
          <mxGeometry x="1140" y="3090" width="140" height="220" as="geometry" />
        </mxCell>
        <mxCell id="z_r0zyh52eoSOESYPmUw-11" value="" style="rounded=0;whiteSpace=wrap;html=1;strokeWidth=8;" parent="U3rNr6C6E1IXeNHttjAs-13" vertex="1">
          <mxGeometry x="1280" y="3090" width="140" height="220" as="geometry" />
        </mxCell>
        <mxCell id="z_r0zyh52eoSOESYPmUw-12" value="" style="rounded=0;whiteSpace=wrap;html=1;strokeWidth=8;" parent="U3rNr6C6E1IXeNHttjAs-13" vertex="1">
          <mxGeometry x="1420" y="3090" width="150" height="220" as="geometry" />
        </mxCell>
        <mxCell id="z_r0zyh52eoSOESYPmUw-13" value="&lt;font size=&quot;1&quot; style=&quot;&quot;&gt;&lt;b style=&quot;font-size: 50px;&quot;&gt;FD&lt;/b&gt;&lt;/font&gt;" style="text;html=1;strokeColor=none;fillColor=none;align=center;verticalAlign=middle;whiteSpace=wrap;rounded=0;rotation=-90;" parent="U3rNr6C6E1IXeNHttjAs-13" vertex="1">
          <mxGeometry x="685.78" y="3143.6" width="191.25" height="106.56" as="geometry" />
        </mxCell>
        <mxCell id="z_r0zyh52eoSOESYPmUw-14" value="&lt;font size=&quot;1&quot; style=&quot;&quot;&gt;&lt;b style=&quot;font-size: 44px;&quot;&gt;DV_Close&lt;/b&gt;&lt;/font&gt;" style="text;html=1;strokeColor=none;fillColor=none;align=center;verticalAlign=middle;whiteSpace=wrap;rounded=0;rotation=-90;" parent="U3rNr6C6E1IXeNHttjAs-13" vertex="1">
          <mxGeometry x="833" y="3146.72" width="191.25" height="106.56" as="geometry" />
        </mxCell>
        <mxCell id="z_r0zyh52eoSOESYPmUw-15" value="&lt;font size=&quot;1&quot; style=&quot;&quot;&gt;&lt;b style=&quot;font-size: 44px;&quot;&gt;VFD&lt;br&gt;FeedBack&lt;/b&gt;&lt;/font&gt;" style="text;html=1;strokeColor=none;fillColor=none;align=center;verticalAlign=middle;whiteSpace=wrap;rounded=0;rotation=-90;" parent="U3rNr6C6E1IXeNHttjAs-13" vertex="1">
          <mxGeometry x="974.38" y="3146.72" width="191.25" height="106.56" as="geometry" />
        </mxCell>
        <mxCell id="z_r0zyh52eoSOESYPmUw-16" value="&lt;font size=&quot;1&quot; style=&quot;&quot;&gt;&lt;b style=&quot;font-size: 44px;&quot;&gt;DV_Open&lt;/b&gt;&lt;/font&gt;" style="text;html=1;strokeColor=none;fillColor=none;align=center;verticalAlign=middle;whiteSpace=wrap;rounded=0;rotation=-90;" parent="U3rNr6C6E1IXeNHttjAs-13" vertex="1">
          <mxGeometry x="1114.38" y="3146.72" width="191.25" height="106.56" as="geometry" />
        </mxCell>
        <mxCell id="z_r0zyh52eoSOESYPmUw-17" value="&lt;font size=&quot;1&quot; style=&quot;&quot;&gt;&lt;b style=&quot;font-size: 44px;&quot;&gt;Proximity&lt;br&gt;Sendor&lt;/b&gt;&lt;/font&gt;" style="text;html=1;strokeColor=none;fillColor=none;align=center;verticalAlign=middle;whiteSpace=wrap;rounded=0;rotation=-90;" parent="U3rNr6C6E1IXeNHttjAs-13" vertex="1">
          <mxGeometry x="1254.37" y="3146.72" width="191.25" height="106.56" as="geometry" />
        </mxCell>
        <mxCell id="z_r0zyh52eoSOESYPmUw-18" value="&lt;font size=&quot;1&quot; style=&quot;&quot;&gt;&lt;b style=&quot;font-size: 44px;&quot;&gt;GND&lt;/b&gt;&lt;/font&gt;" style="text;html=1;strokeColor=none;fillColor=none;align=center;verticalAlign=middle;whiteSpace=wrap;rounded=0;rotation=-90;" parent="U3rNr6C6E1IXeNHttjAs-13" vertex="1">
          <mxGeometry x="1399.38" y="3146.72" width="191.25" height="106.56" as="geometry" />
        </mxCell>
        <mxCell id="z_r0zyh52eoSOESYPmUw-19" value="" style="rounded=0;whiteSpace=wrap;html=1;strokeWidth=8;" parent="U3rNr6C6E1IXeNHttjAs-13" vertex="1">
          <mxGeometry x="1720" y="3100" width="140" height="220" as="geometry" />
        </mxCell>
        <mxCell id="z_r0zyh52eoSOESYPmUw-20" value="" style="rounded=0;whiteSpace=wrap;html=1;strokeWidth=8;" parent="U3rNr6C6E1IXeNHttjAs-13" vertex="1">
          <mxGeometry x="1860" y="3100" width="140" height="220" as="geometry" />
        </mxCell>
        <mxCell id="z_r0zyh52eoSOESYPmUw-21" value="" style="rounded=0;whiteSpace=wrap;html=1;strokeWidth=8;" parent="U3rNr6C6E1IXeNHttjAs-13" vertex="1">
          <mxGeometry x="2000" y="3100" width="140" height="220" as="geometry" />
        </mxCell>
        <mxCell id="z_r0zyh52eoSOESYPmUw-22" value="" style="rounded=0;whiteSpace=wrap;html=1;strokeWidth=8;" parent="U3rNr6C6E1IXeNHttjAs-13" vertex="1">
          <mxGeometry x="2140" y="3100" width="140" height="220" as="geometry" />
        </mxCell>
        <mxCell id="z_r0zyh52eoSOESYPmUw-23" value="" style="rounded=0;whiteSpace=wrap;html=1;strokeWidth=8;" parent="U3rNr6C6E1IXeNHttjAs-13" vertex="1">
          <mxGeometry x="2280" y="3100" width="140" height="220" as="geometry" />
        </mxCell>
        <mxCell id="z_r0zyh52eoSOESYPmUw-24" value="" style="rounded=0;whiteSpace=wrap;html=1;strokeWidth=8;" parent="U3rNr6C6E1IXeNHttjAs-13" vertex="1">
          <mxGeometry x="2420" y="3100" width="140" height="220" as="geometry" />
        </mxCell>
        <mxCell id="z_r0zyh52eoSOESYPmUw-25" value="" style="rounded=0;whiteSpace=wrap;html=1;strokeWidth=8;" parent="U3rNr6C6E1IXeNHttjAs-13" vertex="1">
          <mxGeometry x="2560" y="3100" width="140" height="220" as="geometry" />
        </mxCell>
        <mxCell id="z_r0zyh52eoSOESYPmUw-26" value="" style="rounded=0;whiteSpace=wrap;html=1;strokeWidth=8;" parent="U3rNr6C6E1IXeNHttjAs-13" vertex="1">
          <mxGeometry x="2700" y="3100" width="160" height="220" as="geometry" />
        </mxCell>
        <mxCell id="z_r0zyh52eoSOESYPmUw-27" value="" style="rounded=0;whiteSpace=wrap;html=1;strokeWidth=8;" parent="U3rNr6C6E1IXeNHttjAs-13" vertex="1">
          <mxGeometry x="2860" y="3100" width="160" height="220" as="geometry" />
        </mxCell>
        <mxCell id="z_r0zyh52eoSOESYPmUw-28" value="&lt;font size=&quot;1&quot; style=&quot;&quot;&gt;&lt;b style=&quot;font-size: 50px;&quot;&gt;24 V&lt;/b&gt;&lt;/font&gt;" style="text;html=1;strokeColor=none;fillColor=none;align=center;verticalAlign=middle;whiteSpace=wrap;rounded=0;rotation=-90;" parent="U3rNr6C6E1IXeNHttjAs-13" vertex="1">
          <mxGeometry x="1690" y="3156.72" width="191.25" height="106.56" as="geometry" />
        </mxCell>
        <mxCell id="z_r0zyh52eoSOESYPmUw-29" value="&lt;font size=&quot;1&quot; style=&quot;&quot;&gt;&lt;b style=&quot;font-size: 50px;&quot;&gt;24 V&lt;/b&gt;&lt;/font&gt;" style="text;html=1;strokeColor=none;fillColor=none;align=center;verticalAlign=middle;whiteSpace=wrap;rounded=0;rotation=-90;" parent="U3rNr6C6E1IXeNHttjAs-13" vertex="1">
          <mxGeometry x="1834.38" y="3156.72" width="191.25" height="106.56" as="geometry" />
        </mxCell>
        <mxCell id="z_r0zyh52eoSOESYPmUw-30" value="&lt;font size=&quot;1&quot; style=&quot;&quot;&gt;&lt;b style=&quot;font-size: 44px;&quot;&gt;DV_ON&lt;/b&gt;&lt;/font&gt;" style="text;html=1;strokeColor=none;fillColor=none;align=center;verticalAlign=middle;whiteSpace=wrap;rounded=0;rotation=-90;" parent="U3rNr6C6E1IXeNHttjAs-13" vertex="1">
          <mxGeometry x="1974.38" y="3156.72" width="191.25" height="106.56" as="geometry" />
        </mxCell>
        <mxCell id="z_r0zyh52eoSOESYPmUw-31" value="&lt;font size=&quot;1&quot; style=&quot;&quot;&gt;&lt;b style=&quot;font-size: 44px;&quot;&gt;LIGHT&lt;/b&gt;&lt;/font&gt;" style="text;html=1;strokeColor=none;fillColor=none;align=center;verticalAlign=middle;whiteSpace=wrap;rounded=0;rotation=-90;" parent="U3rNr6C6E1IXeNHttjAs-13" vertex="1">
          <mxGeometry x="2114.37" y="3156.72" width="191.25" height="106.56" as="geometry" />
        </mxCell>
        <mxCell id="z_r0zyh52eoSOESYPmUw-32" value="&lt;font size=&quot;1&quot; style=&quot;&quot;&gt;&lt;b style=&quot;font-size: 44px;&quot;&gt;VFD&lt;br&gt;Foward&lt;/b&gt;&lt;/font&gt;" style="text;html=1;strokeColor=none;fillColor=none;align=center;verticalAlign=middle;whiteSpace=wrap;rounded=0;rotation=-90;" parent="U3rNr6C6E1IXeNHttjAs-13" vertex="1">
          <mxGeometry x="2254.38" y="3156.72" width="191.25" height="106.56" as="geometry" />
        </mxCell>
        <mxCell id="z_r0zyh52eoSOESYPmUw-33" value="&lt;font size=&quot;1&quot; style=&quot;&quot;&gt;&lt;b style=&quot;font-size: 44px;&quot;&gt;VFD&lt;br&gt;Reverse&lt;br&gt;&lt;/b&gt;&lt;/font&gt;" style="text;html=1;strokeColor=none;fillColor=none;align=center;verticalAlign=middle;whiteSpace=wrap;rounded=0;rotation=-90;" parent="U3rNr6C6E1IXeNHttjAs-13" vertex="1">
          <mxGeometry x="2394.37" y="3156.72" width="191.25" height="106.56" as="geometry" />
        </mxCell>
        <mxCell id="z_r0zyh52eoSOESYPmUw-34" value="&lt;span style=&quot;font-size: 44px;&quot;&gt;&lt;b&gt;WASH&lt;br&gt;PUMP&lt;br&gt;&lt;/b&gt;&lt;/span&gt;" style="text;html=1;strokeColor=none;fillColor=none;align=center;verticalAlign=middle;whiteSpace=wrap;rounded=0;rotation=-90;" parent="U3rNr6C6E1IXeNHttjAs-13" vertex="1">
          <mxGeometry x="2534.38" y="3159.72" width="191.25" height="106.56" as="geometry" />
        </mxCell>
        <mxCell id="z_r0zyh52eoSOESYPmUw-35" value="&lt;span style=&quot;font-size: 44px;&quot;&gt;&lt;b&gt;Water&lt;br&gt;Inlet Valve&lt;br&gt;&lt;/b&gt;&lt;/span&gt;" style="text;html=1;strokeColor=none;fillColor=none;align=center;verticalAlign=middle;whiteSpace=wrap;rounded=0;rotation=-90;" parent="U3rNr6C6E1IXeNHttjAs-13" vertex="1">
          <mxGeometry x="2687" y="3159.72" width="191.25" height="106.56" as="geometry" />
        </mxCell>
        <mxCell id="z_r0zyh52eoSOESYPmUw-36" value="&lt;span style=&quot;font-size: 44px;&quot;&gt;&lt;b&gt;Heater&lt;br&gt;&lt;/b&gt;&lt;/span&gt;" style="text;html=1;strokeColor=none;fillColor=none;align=center;verticalAlign=middle;whiteSpace=wrap;rounded=0;rotation=-90;" parent="U3rNr6C6E1IXeNHttjAs-13" vertex="1">
          <mxGeometry x="2844.38" y="3160.72" width="191.25" height="106.56" as="geometry" />
        </mxCell>
        <mxCell id="z_r0zyh52eoSOESYPmUw-37" value="" style="rounded=0;whiteSpace=wrap;html=1;strokeWidth=8;" parent="U3rNr6C6E1IXeNHttjAs-13" vertex="1">
          <mxGeometry x="3510" y="3046.28" width="160" height="323.72" as="geometry" />
        </mxCell>
        <mxCell id="z_r0zyh52eoSOESYPmUw-38" value="" style="rounded=0;whiteSpace=wrap;html=1;strokeWidth=8;" parent="U3rNr6C6E1IXeNHttjAs-13" vertex="1">
          <mxGeometry x="3670" y="3046.28" width="160" height="323.72" as="geometry" />
        </mxCell>
        <mxCell id="z_r0zyh52eoSOESYPmUw-39" value="" style="rounded=0;whiteSpace=wrap;html=1;strokeWidth=8;" parent="U3rNr6C6E1IXeNHttjAs-13" vertex="1">
          <mxGeometry x="3831" y="3043" width="160" height="330" as="geometry" />
        </mxCell>
        <mxCell id="z_r0zyh52eoSOESYPmUw-40" value="&lt;b style=&quot;&quot;&gt;&lt;font style=&quot;font-size: 50px;&quot;&gt;Charger&lt;/font&gt;&lt;/b&gt;" style="text;html=1;strokeColor=none;fillColor=none;align=center;verticalAlign=middle;whiteSpace=wrap;rounded=0;rotation=-90;" parent="U3rNr6C6E1IXeNHttjAs-13" vertex="1">
          <mxGeometry x="3494.38" y="3154.72" width="191.25" height="106.56" as="geometry" />
        </mxCell>
        <mxCell id="z_r0zyh52eoSOESYPmUw-41" value="&lt;b style=&quot;&quot;&gt;&lt;font style=&quot;font-size: 50px;&quot;&gt;NO&amp;nbsp;&lt;br&gt;Connection&lt;br&gt;&lt;/font&gt;&lt;/b&gt;" style="text;html=1;strokeColor=none;fillColor=none;align=center;verticalAlign=middle;whiteSpace=wrap;rounded=0;rotation=-90;" parent="U3rNr6C6E1IXeNHttjAs-13" vertex="1">
          <mxGeometry x="3654.38" y="3160.72" width="191.25" height="106.56" as="geometry" />
        </mxCell>
        <mxCell id="z_r0zyh52eoSOESYPmUw-43" value="&lt;b style=&quot;&quot;&gt;&lt;font style=&quot;font-size: 50px;&quot;&gt;NO&amp;nbsp;&lt;br&gt;Connection&lt;br&gt;&lt;/font&gt;&lt;/b&gt;" style="text;html=1;strokeColor=none;fillColor=none;align=center;verticalAlign=middle;whiteSpace=wrap;rounded=0;rotation=-90;" parent="U3rNr6C6E1IXeNHttjAs-13" vertex="1">
          <mxGeometry x="3815.38" y="3156.72" width="191.25" height="106.56" as="geometry" />
        </mxCell>
        <mxCell id="z_r0zyh52eoSOESYPmUw-45" value="&lt;span style=&quot;font-size: 100px;&quot;&gt;&lt;b&gt;-&lt;/b&gt;&lt;/span&gt;" style="text;html=1;strokeColor=none;fillColor=none;align=center;verticalAlign=middle;whiteSpace=wrap;rounded=0;" parent="U3rNr6C6E1IXeNHttjAs-13" vertex="1">
          <mxGeometry x="530" y="550" width="100" height="140" as="geometry" />
        </mxCell>
        <mxCell id="z_r0zyh52eoSOESYPmUw-46" value="&lt;font size=&quot;1&quot; style=&quot;&quot;&gt;&lt;b style=&quot;font-size: 100px;&quot;&gt;+&lt;/b&gt;&lt;/font&gt;" style="text;html=1;strokeColor=none;fillColor=none;align=center;verticalAlign=middle;whiteSpace=wrap;rounded=0;" parent="U3rNr6C6E1IXeNHttjAs-13" vertex="1">
          <mxGeometry x="530" y="700" width="100" height="140" as="geometry" />
        </mxCell>
        <mxCell id="z_r0zyh52eoSOESYPmUw-47" value="&lt;b style=&quot;&quot;&gt;&lt;font style=&quot;font-size: 100px;&quot;&gt;24 V DC&lt;/font&gt;&lt;/b&gt;" style="text;html=1;strokeColor=none;fillColor=none;align=center;verticalAlign=middle;whiteSpace=wrap;rounded=0;rotation=-90;" parent="U3rNr6C6E1IXeNHttjAs-13" vertex="1">
          <mxGeometry x="240" y="652" width="301.25" height="106.56" as="geometry" />
        </mxCell>
        <mxCell id="z_r0zyh52eoSOESYPmUw-49" value="&lt;font size=&quot;1&quot; style=&quot;&quot;&gt;&lt;b style=&quot;font-size: 100px;&quot;&gt;+&lt;/b&gt;&lt;/font&gt;" style="text;html=1;strokeColor=none;fillColor=none;align=center;verticalAlign=middle;whiteSpace=wrap;rounded=0;" parent="U3rNr6C6E1IXeNHttjAs-13" vertex="1">
          <mxGeometry x="4510" y="510" width="100" height="140" as="geometry" />
        </mxCell>
        <mxCell id="z_r0zyh52eoSOESYPmUw-50" value="&lt;font size=&quot;1&quot; style=&quot;&quot;&gt;&lt;b style=&quot;font-size: 100px;&quot;&gt;-&lt;/b&gt;&lt;/font&gt;" style="text;html=1;strokeColor=none;fillColor=none;align=center;verticalAlign=middle;whiteSpace=wrap;rounded=0;" parent="U3rNr6C6E1IXeNHttjAs-13" vertex="1">
          <mxGeometry x="4358" y="503" width="100" height="140" as="geometry" />
        </mxCell>
        <mxCell id="z_r0zyh52eoSOESYPmUw-51" value="" style="rounded=0;whiteSpace=wrap;html=1;strokeWidth=10;" parent="U3rNr6C6E1IXeNHttjAs-13" vertex="1">
          <mxGeometry x="4100" y="1570" width="140" height="90" as="geometry" />
        </mxCell>
        <mxCell id="z_r0zyh52eoSOESYPmUw-52" value="" style="rounded=0;whiteSpace=wrap;html=1;strokeWidth=10;" parent="U3rNr6C6E1IXeNHttjAs-13" vertex="1">
          <mxGeometry x="4100" y="1663" width="140" height="80" as="geometry" />
        </mxCell>
        <mxCell id="z_r0zyh52eoSOESYPmUw-54" value="" style="edgeStyle=orthogonalEdgeStyle;rounded=0;orthogonalLoop=1;jettySize=auto;html=1;" parent="U3rNr6C6E1IXeNHttjAs-13" source="z_r0zyh52eoSOESYPmUw-51" target="z_r0zyh52eoSOESYPmUw-52" edge="1">
          <mxGeometry relative="1" as="geometry" />
        </mxCell>
        <mxCell id="z_r0zyh52eoSOESYPmUw-53" value="" style="rounded=0;whiteSpace=wrap;html=1;strokeWidth=10;" parent="U3rNr6C6E1IXeNHttjAs-13" vertex="1">
          <mxGeometry x="4101" y="1740" width="140" height="80" as="geometry" />
        </mxCell>
        <mxCell id="z_r0zyh52eoSOESYPmUw-55" value="" style="rounded=0;whiteSpace=wrap;html=1;strokeWidth=10;" parent="U3rNr6C6E1IXeNHttjAs-13" vertex="1">
          <mxGeometry x="4101" y="1820" width="140" height="80" as="geometry" />
        </mxCell>
        <mxCell id="z_r0zyh52eoSOESYPmUw-56" value="" style="rounded=0;whiteSpace=wrap;html=1;strokeWidth=10;" parent="U3rNr6C6E1IXeNHttjAs-13" vertex="1">
          <mxGeometry x="4101" y="1900" width="140" height="80" as="geometry" />
        </mxCell>
        <mxCell id="z_r0zyh52eoSOESYPmUw-57" value="" style="rounded=0;whiteSpace=wrap;html=1;strokeWidth=10;" parent="U3rNr6C6E1IXeNHttjAs-13" vertex="1">
          <mxGeometry x="4101" y="1980" width="140" height="80" as="geometry" />
        </mxCell>
        <mxCell id="z_r0zyh52eoSOESYPmUw-58" value="&lt;b&gt;&lt;font style=&quot;font-size: 27px;&quot;&gt;KEY&lt;/font&gt;&lt;/b&gt;" style="text;html=1;strokeColor=none;fillColor=none;align=center;verticalAlign=middle;whiteSpace=wrap;rounded=0;" parent="U3rNr6C6E1IXeNHttjAs-13" vertex="1">
          <mxGeometry x="4142" y="1600" width="60" height="30" as="geometry" />
        </mxCell>
        <mxCell id="z_r0zyh52eoSOESYPmUw-59" value="&lt;b&gt;&lt;font style=&quot;font-size: 27px;&quot;&gt;VCC&lt;/font&gt;&lt;/b&gt;" style="text;html=1;strokeColor=none;fillColor=none;align=center;verticalAlign=middle;whiteSpace=wrap;rounded=0;" parent="U3rNr6C6E1IXeNHttjAs-13" vertex="1">
          <mxGeometry x="4142" y="1688" width="60" height="30" as="geometry" />
        </mxCell>
        <mxCell id="z_r0zyh52eoSOESYPmUw-60" value="&lt;b&gt;&lt;font style=&quot;font-size: 27px;&quot;&gt;GND&lt;/font&gt;&lt;/b&gt;" style="text;html=1;strokeColor=none;fillColor=none;align=center;verticalAlign=middle;whiteSpace=wrap;rounded=0;" parent="U3rNr6C6E1IXeNHttjAs-13" vertex="1">
          <mxGeometry x="4141" y="1765" width="60" height="30" as="geometry" />
        </mxCell>
        <mxCell id="z_r0zyh52eoSOESYPmUw-61" value="&lt;b&gt;&lt;font style=&quot;font-size: 27px;&quot;&gt;TXD&lt;/font&gt;&lt;/b&gt;" style="text;html=1;strokeColor=none;fillColor=none;align=center;verticalAlign=middle;whiteSpace=wrap;rounded=0;" parent="U3rNr6C6E1IXeNHttjAs-13" vertex="1">
          <mxGeometry x="4142" y="1845" width="60" height="30" as="geometry" />
        </mxCell>
        <mxCell id="z_r0zyh52eoSOESYPmUw-62" value="&lt;b&gt;&lt;font style=&quot;font-size: 27px;&quot;&gt;RXD&lt;/font&gt;&lt;/b&gt;" style="text;html=1;strokeColor=none;fillColor=none;align=center;verticalAlign=middle;whiteSpace=wrap;rounded=0;" parent="U3rNr6C6E1IXeNHttjAs-13" vertex="1">
          <mxGeometry x="4140" y="1925" width="60" height="30" as="geometry" />
        </mxCell>
        <mxCell id="z_r0zyh52eoSOESYPmUw-63" value="&lt;b&gt;&lt;font style=&quot;font-size: 27px;&quot;&gt;STATE&lt;/font&gt;&lt;/b&gt;" style="text;html=1;strokeColor=none;fillColor=none;align=center;verticalAlign=middle;whiteSpace=wrap;rounded=0;" parent="U3rNr6C6E1IXeNHttjAs-13" vertex="1">
          <mxGeometry x="4140" y="2000" width="60" height="30" as="geometry" />
        </mxCell>
        <mxCell id="z_r0zyh52eoSOESYPmUw-65" value="" style="rounded=0;whiteSpace=wrap;html=1;fillColor=none;strokeWidth=20;strokeColor=#f90101;" parent="U3rNr6C6E1IXeNHttjAs-13" vertex="1">
          <mxGeometry x="580" y="3010" width="2570" height="380" as="geometry" />
        </mxCell>
        <mxCell id="z_r0zyh52eoSOESYPmUw-66" value="" style="rounded=0;whiteSpace=wrap;html=1;fillColor=none;strokeWidth=20;strokeColor=#f90101;" parent="U3rNr6C6E1IXeNHttjAs-13" vertex="1">
          <mxGeometry x="3398" y="3005" width="690" height="407" as="geometry" />
        </mxCell>
        <mxCell id="z_r0zyh52eoSOESYPmUw-67" value="" style="rounded=0;whiteSpace=wrap;html=1;fillColor=none;strokeWidth=20;strokeColor=#f90101;" parent="U3rNr6C6E1IXeNHttjAs-13" vertex="1">
          <mxGeometry x="4020" y="1468" width="350" height="662" as="geometry" />
        </mxCell>
        <mxCell id="z_r0zyh52eoSOESYPmUw-68" value="" style="rounded=0;whiteSpace=wrap;html=1;fillColor=none;strokeWidth=20;strokeColor=#f90101;" parent="U3rNr6C6E1IXeNHttjAs-13" vertex="1">
          <mxGeometry x="4250" y="380" width="450" height="380" as="geometry" />
        </mxCell>
        <mxCell id="z_r0zyh52eoSOESYPmUw-69" value="" style="rounded=0;whiteSpace=wrap;html=1;fillColor=none;strokeWidth=20;strokeColor=#f90101;" parent="U3rNr6C6E1IXeNHttjAs-13" vertex="1">
          <mxGeometry x="270" y="460" width="458" height="480" as="geometry" />
        </mxCell>
        <mxCell id="z_r0zyh52eoSOESYPmUw-70" value="&lt;font size=&quot;1&quot; style=&quot;&quot;&gt;&lt;b style=&quot;font-size: 100px;&quot;&gt;12 V&lt;/b&gt;&lt;/font&gt;" style="text;html=1;strokeColor=none;fillColor=none;align=center;verticalAlign=middle;whiteSpace=wrap;rounded=0;" parent="U3rNr6C6E1IXeNHttjAs-13" vertex="1">
          <mxGeometry x="2291" y="240" width="320" height="150" as="geometry" />
        </mxCell>
        <mxCell id="z_r0zyh52eoSOESYPmUw-71" value="&lt;font size=&quot;1&quot; style=&quot;&quot;&gt;&lt;b style=&quot;font-size: 100px;&quot;&gt;+&lt;/b&gt;&lt;/font&gt;" style="text;html=1;strokeColor=none;fillColor=none;align=center;verticalAlign=middle;whiteSpace=wrap;rounded=0;" parent="U3rNr6C6E1IXeNHttjAs-13" vertex="1">
          <mxGeometry x="2445.63" y="370" width="125.62" height="100" as="geometry" />
        </mxCell>
        <mxCell id="z_r0zyh52eoSOESYPmUw-72" value="&lt;font size=&quot;1&quot; style=&quot;&quot;&gt;&lt;b style=&quot;font-size: 104px;&quot;&gt;-&lt;/b&gt;&lt;/font&gt;" style="text;html=1;strokeColor=none;fillColor=none;align=center;verticalAlign=middle;whiteSpace=wrap;rounded=0;" parent="U3rNr6C6E1IXeNHttjAs-13" vertex="1">
          <mxGeometry x="2350" y="361" width="125.62" height="100" as="geometry" />
        </mxCell>
        <mxCell id="z_r0zyh52eoSOESYPmUw-73" value="" style="rounded=0;whiteSpace=wrap;html=1;fillColor=none;strokeWidth=20;strokeColor=#f90101;" parent="U3rNr6C6E1IXeNHttjAs-13" vertex="1">
          <mxGeometry x="2237" y="230" width="450" height="500" as="geometry" />
        </mxCell>
        <mxCell id="z_r0zyh52eoSOESYPmUw-74" value="" style="rounded=0;whiteSpace=wrap;html=1;fillColor=none;strokeWidth=20;strokeColor=#f90101;" parent="U3rNr6C6E1IXeNHttjAs-13" vertex="1">
          <mxGeometry x="3330" y="1930" width="210" height="430" as="geometry" />
        </mxCell>
        <mxCell id="z_r0zyh52eoSOESYPmUw-75" value="" style="rounded=0;whiteSpace=wrap;html=1;fillColor=none;strokeWidth=20;strokeColor=#f90101;" parent="U3rNr6C6E1IXeNHttjAs-13" vertex="1">
          <mxGeometry x="3510" y="1810" width="500" height="280" as="geometry" />
        </mxCell>
        <mxCell id="z_r0zyh52eoSOESYPmUw-76" value="&lt;b&gt;&lt;font style=&quot;font-size: 59px;&quot;&gt;Flowsensor&amp;nbsp;&lt;/font&gt;&lt;/b&gt;" style="text;html=1;strokeColor=none;fillColor=none;align=center;verticalAlign=middle;whiteSpace=wrap;rounded=0;rotation=0;" parent="U3rNr6C6E1IXeNHttjAs-13" vertex="1">
          <mxGeometry x="3190" y="2380" width="480" height="70" as="geometry" />
        </mxCell>
        <mxCell id="z_r0zyh52eoSOESYPmUw-77" value="&lt;span style=&quot;font-size: 59px;&quot;&gt;&lt;b&gt;Thermocouple&amp;nbsp;&lt;/b&gt;&lt;/span&gt;" style="text;html=1;strokeColor=none;fillColor=none;align=center;verticalAlign=middle;whiteSpace=wrap;rounded=0;rotation=0;" parent="U3rNr6C6E1IXeNHttjAs-13" vertex="1">
          <mxGeometry x="3533" y="1914" width="480" height="70" as="geometry" />
        </mxCell>
        <mxCell id="z_r0zyh52eoSOESYPmUw-81" value="" style="edgeStyle=orthogonalEdgeStyle;rounded=0;orthogonalLoop=1;jettySize=auto;html=1;" parent="U3rNr6C6E1IXeNHttjAs-13" source="z_r0zyh52eoSOESYPmUw-78" edge="1">
          <mxGeometry relative="1" as="geometry">
            <mxPoint x="1050" y="2963.000000000001" as="targetPoint" />
          </mxGeometry>
        </mxCell>
        <mxCell id="z_r0zyh52eoSOESYPmUw-78" value="" style="rounded=0;whiteSpace=wrap;html=1;fillColor=none;strokeColor=#0000FF;strokeWidth=17;" parent="U3rNr6C6E1IXeNHttjAs-13" vertex="1">
          <mxGeometry x="650" y="3043" width="800" height="307" as="geometry" />
        </mxCell>
        <mxCell id="z_r0zyh52eoSOESYPmUw-79" value="" style="endArrow=classic;startArrow=classic;html=1;rounded=0;" parent="U3rNr6C6E1IXeNHttjAs-13" edge="1">
          <mxGeometry width="50" height="50" relative="1" as="geometry">
            <mxPoint x="2580" y="2690" as="sourcePoint" />
            <mxPoint x="2630" y="2640" as="targetPoint" />
          </mxGeometry>
        </mxCell>
        <mxCell id="z_r0zyh52eoSOESYPmUw-82" value="&lt;b&gt;&lt;font style=&quot;font-size: 63px;&quot;&gt;Input Section&lt;/font&gt;&lt;/b&gt;" style="text;html=1;strokeColor=none;fillColor=none;align=center;verticalAlign=middle;whiteSpace=wrap;rounded=0;" parent="U3rNr6C6E1IXeNHttjAs-13" vertex="1">
          <mxGeometry x="620" y="2692" width="870" height="230" as="geometry" />
        </mxCell>
        <mxCell id="z_r0zyh52eoSOESYPmUw-83" value="" style="shape=singleArrow;whiteSpace=wrap;html=1;arrowWidth=0.4;arrowSize=0.4;fillColor=none;strokeColor=#0000FF;rounded=0;strokeWidth=17;rotation=-90;" parent="U3rNr6C6E1IXeNHttjAs-13" vertex="1">
          <mxGeometry x="935" y="2914.5" width="160" height="60" as="geometry" />
        </mxCell>
        <mxCell id="z_r0zyh52eoSOESYPmUw-84" value="" style="edgeStyle=orthogonalEdgeStyle;rounded=0;orthogonalLoop=1;jettySize=auto;html=1;" parent="U3rNr6C6E1IXeNHttjAs-13" source="z_r0zyh52eoSOESYPmUw-78" target="z_r0zyh52eoSOESYPmUw-83" edge="1">
          <mxGeometry relative="1" as="geometry" />
        </mxCell>
        <mxCell id="U3rNr6C6E1IXeNHttjAs-4" value="&lt;b&gt;&lt;font style=&quot;font-size: 30px;&quot;&gt;24 V&lt;/font&gt;&lt;/b&gt;" style="text;html=1;strokeColor=none;fillColor=none;align=center;verticalAlign=middle;whiteSpace=wrap;rounded=0;" parent="U3rNr6C6E1IXeNHttjAs-13" vertex="1">
          <mxGeometry x="2000" y="3332" width="140" height="30" as="geometry" />
        </mxCell>
        <mxCell id="U3rNr6C6E1IXeNHttjAs-5" value="&lt;b&gt;&lt;font style=&quot;font-size: 30px;&quot;&gt;230 V&lt;/font&gt;&lt;/b&gt;" style="text;html=1;strokeColor=none;fillColor=none;align=center;verticalAlign=middle;whiteSpace=wrap;rounded=0;" parent="U3rNr6C6E1IXeNHttjAs-13" vertex="1">
          <mxGeometry x="2140" y="3332" width="140" height="30" as="geometry" />
        </mxCell>
        <mxCell id="U3rNr6C6E1IXeNHttjAs-6" value="&lt;b&gt;&lt;font style=&quot;font-size: 24px;&quot;&gt;24 V VFD&lt;/font&gt;&lt;/b&gt;" style="text;html=1;strokeColor=none;fillColor=none;align=center;verticalAlign=middle;whiteSpace=wrap;rounded=0;" parent="U3rNr6C6E1IXeNHttjAs-13" vertex="1">
          <mxGeometry x="2270" y="3332" width="140" height="30" as="geometry" />
        </mxCell>
        <mxCell id="U3rNr6C6E1IXeNHttjAs-7" value="&lt;b&gt;&lt;font style=&quot;font-size: 24px;&quot;&gt;24 V VFD&lt;/font&gt;&lt;/b&gt;" style="text;html=1;strokeColor=none;fillColor=none;align=center;verticalAlign=middle;whiteSpace=wrap;rounded=0;" parent="U3rNr6C6E1IXeNHttjAs-13" vertex="1">
          <mxGeometry x="2418" y="3334" width="140" height="30" as="geometry" />
        </mxCell>
        <mxCell id="U3rNr6C6E1IXeNHttjAs-9" value="&lt;b&gt;&lt;font style=&quot;font-size: 30px;&quot;&gt;230 V&lt;/font&gt;&lt;/b&gt;" style="text;html=1;strokeColor=none;fillColor=none;align=center;verticalAlign=middle;whiteSpace=wrap;rounded=0;" parent="U3rNr6C6E1IXeNHttjAs-13" vertex="1">
          <mxGeometry x="2571.25" y="3332" width="140" height="30" as="geometry" />
        </mxCell>
        <mxCell id="U3rNr6C6E1IXeNHttjAs-10" value="&lt;b&gt;&lt;font style=&quot;font-size: 30px;&quot;&gt;230 V&lt;/font&gt;&lt;/b&gt;" style="text;html=1;strokeColor=none;fillColor=none;align=center;verticalAlign=middle;whiteSpace=wrap;rounded=0;" parent="U3rNr6C6E1IXeNHttjAs-13" vertex="1">
          <mxGeometry x="2725.63" y="3332" width="140" height="30" as="geometry" />
        </mxCell>
        <mxCell id="U3rNr6C6E1IXeNHttjAs-11" value="&lt;b&gt;&lt;font style=&quot;font-size: 30px;&quot;&gt;230 V&lt;/font&gt;&lt;/b&gt;" style="text;html=1;strokeColor=none;fillColor=none;align=center;verticalAlign=middle;whiteSpace=wrap;rounded=0;" parent="U3rNr6C6E1IXeNHttjAs-13" vertex="1">
          <mxGeometry x="2878.25" y="3334" width="140" height="30" as="geometry" />
        </mxCell>
        <mxCell id="27-6pV3LzJoPshTDTjEv-1" value="&lt;b&gt;&lt;font style=&quot;font-size: 30px;&quot;&gt;Proximity Sensor&lt;/font&gt;&lt;/b&gt;" style="rounded=0;whiteSpace=wrap;html=1;strokeWidth=2;" parent="U3rNr6C6E1IXeNHttjAs-13" vertex="1">
          <mxGeometry x="713" y="3092.72" width="147" height="215.28" as="geometry" />
        </mxCell>
        <mxCell id="27-6pV3LzJoPshTDTjEv-2" value="&lt;font size=&quot;1&quot; style=&quot;&quot;&gt;&lt;b style=&quot;font-size: 40px;&quot;&gt;FD&lt;/b&gt;&lt;/font&gt;" style="rounded=0;whiteSpace=wrap;html=1;strokeWidth=6;" parent="U3rNr6C6E1IXeNHttjAs-13" vertex="1">
          <mxGeometry x="1280" y="3092.3599999999997" width="147" height="215.28" as="geometry" />
        </mxCell>
        <mxCell id="U3rNr6C6E1IXeNHttjAs-14" value="" style="whiteSpace=wrap;html=1;verticalAlign=top;labelBackgroundColor=default;strokeWidth=11;" parent="1" vertex="1">
          <mxGeometry x="2640" y="-520" width="1775.12" height="2770" as="geometry" />
        </mxCell>
        <mxCell id="U3rNr6C6E1IXeNHttjAs-15" value="" style="edgeStyle=orthogonalEdgeStyle;rounded=0;orthogonalLoop=1;jettySize=auto;html=1;" parent="1" source="z_r0zyh52eoSOESYPmUw-2" target="U3rNr6C6E1IXeNHttjAs-14" edge="1">
          <mxGeometry relative="1" as="geometry" />
        </mxCell>
        <mxCell id="U3rNr6C6E1IXeNHttjAs-16" value="&lt;b&gt;&lt;font style=&quot;font-size: 50px;&quot;&gt;PHASE 1&lt;/font&gt;&lt;/b&gt;" style="rounded=0;whiteSpace=wrap;html=1;strokeColor=#000000;strokeWidth=13;" parent="1" vertex="1">
          <mxGeometry x="3216" y="-642" width="200" height="300" as="geometry" />
        </mxCell>
        <mxCell id="U3rNr6C6E1IXeNHttjAs-17" value="&lt;b style=&quot;border-color: var(--border-color);&quot;&gt;&lt;font style=&quot;border-color: var(--border-color); font-size: 50px;&quot;&gt;PHASE 2&lt;/font&gt;&lt;/b&gt;" style="rounded=0;whiteSpace=wrap;html=1;strokeColor=#000000;strokeWidth=13;" parent="1" vertex="1">
          <mxGeometry x="3427" y="-642" width="200" height="300" as="geometry" />
        </mxCell>
        <mxCell id="U3rNr6C6E1IXeNHttjAs-18" value="&lt;b style=&quot;border-color: var(--border-color);&quot;&gt;&lt;font style=&quot;border-color: var(--border-color); font-size: 50px;&quot;&gt;PHASE 3&lt;/font&gt;&lt;/b&gt;" style="rounded=0;whiteSpace=wrap;html=1;strokeColor=#000000;strokeWidth=13;" parent="1" vertex="1">
          <mxGeometry x="3633" y="-642" width="200" height="300" as="geometry" />
        </mxCell>
        <mxCell id="U3rNr6C6E1IXeNHttjAs-24" value="&lt;font size=&quot;1&quot; style=&quot;&quot;&gt;&lt;b style=&quot;font-size: 59px;&quot;&gt;GND&lt;/b&gt;&lt;/font&gt;" style="rounded=0;whiteSpace=wrap;html=1;strokeWidth=10;" parent="1" vertex="1">
          <mxGeometry x="4132" y="1250" width="338" height="150" as="geometry" />
        </mxCell>
        <mxCell id="U3rNr6C6E1IXeNHttjAs-25" value="&lt;p style=&quot;line-height: 180%;&quot;&gt;&lt;br&gt;&lt;/p&gt;" style="rounded=0;whiteSpace=wrap;html=1;strokeWidth=14;" parent="1" vertex="1">
          <mxGeometry x="2920" y="1570" width="120" height="480" as="geometry" />
        </mxCell>
        <mxCell id="U3rNr6C6E1IXeNHttjAs-26" value="&lt;font style=&quot;font-size: 50px;&quot;&gt;&lt;b&gt;Connector&lt;/b&gt;&lt;/font&gt;" style="text;html=1;strokeColor=none;fillColor=none;align=center;verticalAlign=middle;whiteSpace=wrap;rounded=0;rotation=90;" parent="1" vertex="1">
          <mxGeometry x="2791.25" y="1731.25" width="377.5" height="130" as="geometry" />
        </mxCell>
        <mxCell id="U3rNr6C6E1IXeNHttjAs-31" value="&lt;span style=&quot;font-size: 59px;&quot;&gt;&lt;b&gt;NC&lt;/b&gt;&lt;/span&gt;" style="rounded=0;whiteSpace=wrap;html=1;strokeWidth=10;" parent="1" vertex="1">
          <mxGeometry x="4134" y="1889" width="338" height="150" as="geometry" />
        </mxCell>
        <mxCell id="U3rNr6C6E1IXeNHttjAs-32" value="&lt;br&gt;&lt;b style=&quot;border-color: var(--border-color); color: rgb(0, 0, 0); font-family: Helvetica; font-size: 59px; font-style: normal; font-variant-ligatures: normal; font-variant-caps: normal; letter-spacing: normal; orphans: 2; text-align: center; text-indent: 0px; text-transform: none; widows: 2; word-spacing: 0px; -webkit-text-stroke-width: 0px; background-color: rgb(251, 251, 251); text-decoration-thickness: initial; text-decoration-style: initial; text-decoration-color: initial;&quot;&gt;CT-3&lt;/b&gt;&lt;br&gt;" style="rounded=0;whiteSpace=wrap;html=1;strokeWidth=10;" parent="1" vertex="1">
          <mxGeometry x="4133" y="1731" width="338" height="149" as="geometry" />
        </mxCell>
        <mxCell id="U3rNr6C6E1IXeNHttjAs-33" value="&lt;span style=&quot;font-size: 59px;&quot;&gt;&lt;b&gt;CT-2&lt;/b&gt;&lt;/span&gt;" style="rounded=0;whiteSpace=wrap;html=1;strokeWidth=10;" parent="1" vertex="1">
          <mxGeometry x="4132" y="1570" width="338" height="150" as="geometry" />
        </mxCell>
        <mxCell id="U3rNr6C6E1IXeNHttjAs-34" value="&lt;span style=&quot;font-size: 59px;&quot;&gt;&lt;b&gt;CT-1&lt;/b&gt;&lt;/span&gt;" style="rounded=0;whiteSpace=wrap;html=1;strokeWidth=10;" parent="1" vertex="1">
          <mxGeometry x="4132" y="1410" width="338" height="150" as="geometry" />
        </mxCell>
        <mxCell id="9zXtAVdsBJGfhKQ4MtfY-1" value="" style="rounded=0;whiteSpace=wrap;html=1;strokeWidth=16;fillColor=none;strokeColor=#FFFF00;" vertex="1" parent="1">
          <mxGeometry x="-990" y="2120" width="1430" height="300" as="geometry" />
        </mxCell>
        <mxCell id="9zXtAVdsBJGfhKQ4MtfY-3" value="&lt;b&gt;1&lt;/b&gt;" style="html=1;shadow=0;dashed=0;align=center;verticalAlign=middle;shape=mxgraph.arrows2.calloutArrow;dy=10;dx=20;notch=238.67;arrowHead=10;strokeWidth=10;" vertex="1" parent="1">
          <mxGeometry x="-2790" y="-360" width="380" height="300" as="geometry" />
        </mxCell>
      </root>
    </mxGraphModel>
  </diagram>
</mxfile>
